{
copyright = "Copyright (c) 2015, Cadson Demak (info@cadsondemak.com)";
customParameters = (
{
name = vendorID;
value = CDK;
},
{
name = description;
value = "New Copyright (c) 2015, Cadson Demak (info@cadsondemak.com)";
},
{
name = license;

glyphs = (
{
glyphname = A;
lastChange = "2015-10-27 15:50:12 +0000";
layers = (
{
layerId = "3717E746-9C6F-47D9-B2A4-B2AE7EC69823";
name = Bold;
paths = (
{
closed = 1;
nodes = (
"265 0 LINE",
"265 20 LINE",
"235 31 OFFCURVE",
"210 41 OFFCURVE",
"183 46 CURVE",
"359 534 LINE",
"530 48 LINE",
"519 46 OFFCURVE",
"493 39 OFFCURVE",
"451 25 CURVE",
"451 0 LINE",
"807 0 LINE",
"807 22 LINE",
"779 32 OFFCURVE",
"752 40 OFFCURVE",
"728 46 CURVE",
"479 704 LINE",
"334 704 LINE",
"86 49 LINE",
"82 48 OFFCURVE",
"34 35 OFFCURVE",
"6 26 CURVE",
"6 0 LINE"
);
},
{
closed = 1;
nodes = (
"539 176 LINE",
"539 235 LINE",
"200 235 LINE",
"200 176 LINE"
);
}
);
width = 813;
}
);
leftKerningGroup = A;
note = A;
rightKerningGroup = A;
unicode = 0041;
},
{
glyphname = Aacute;
lastChange = "2015-10-27 15:50:13 +0000";
layers = (
{
layerId = "3717E746-9C6F-47D9-B2A4-B2AE7EC69823";
name = Bold;
paths = (
{
closed = 1;
nodes = (
"265 0 LINE",
"265 20 LINE",
"235 31 OFFCURVE",
"210 41 OFFCURVE",
"183 46 CURVE",
"359 534 LINE",
"530 48 LINE",
"519 46 OFFCURVE",
"493 39 OFFCURVE",
"451 25 CURVE",
"451 0 LINE",
"807 0 LINE",
"807 22 LINE",
"779 32 OFFCURVE",
"752 40 OFFCURVE",
"728 46 CURVE",
"479 704 LINE",
"334 704 LINE",
"86 49 LINE",
"82 48 OFFCURVE",
"34 35 OFFCURVE",
"6 26 CURVE",
"6 0 LINE"
);
},
{
closed = 1;
nodes = (
"539 176 LINE",
"539 235 LINE",
"200 235 LINE",
"200 176 LINE"
);
},
{
closed = 1;
nodes = (
"477 886 LINE SMOOTH",
"516 909 OFFCURVE",
"538 931 OFFCURVE",
"538 960 CURVE SMOOTH",
"538 982 OFFCURVE",
"521 1011 OFFCURVE",
"477 1011 CURVE SMOOTH",
"436 1011 OFFCURVE",
"406 975 OFFCURVE",
"401 969 CURVE",
"274 830 LINE",
"305 786 LINE"
);
}
);
width = 813;
}
);
leftKerningGroup = A;
note = Aacute;
rightKerningGroup = A;
unicode = 00C1;
},
{
glyphname = Abreve;
lastChange = "2015-11-29 22:40:05 +0000";
layers = (
{
layerId = "3717E746-9C6F-47D9-B2A4-B2AE7EC69823";
name = Bold;
paths = (
{
closed = 1;
nodes = (
"265 0 LINE",
"265 20 LINE",
"235 31 OFFCURVE",
"210 41 OFFCURVE",
"183 46 CURVE",
"359 534 LINE",
"530 48 LINE",
"519 46 OFFCURVE",
"493 39 OFFCURVE",
"451 25 CURVE",
"451 0 LINE",
"807 0 LINE",
"807 22 LINE",
"779 32 OFFCURVE",
"752 40 OFFCURVE",
"728 46 CURVE",
"479 704 LINE",
"334 704 LINE",
"86 49 LINE",
"82 48 OFFCURVE",
"34 35 OFFCURVE",
"6 26 CURVE",
"6 0 LINE"
);
},
{
closed = 1;
nodes = (
"539 176 LINE",
"539 235 LINE",
"200 235 LINE",
"200 176 LINE"
);
},
{
closed = 1;
nodes = (
"513 786 OFFCURVE",
"586 831 OFFCURVE",
"604 927 CURVE",
"498 927 LINE",
"491 856 OFFCURVE",
"447 847 OFFCURVE",
"406 847 CURVE SMOOTH",
"365 847 OFFCURVE",
"321 856 OFFCURVE",
"314 927 CURVE",
"208 927 LINE",
"226 831 OFFCURVE",
"299 786 OFFCURVE",
"406 786 CURVE SMOOTH"
);
}
);
width = 813;
}
);
leftKerningGroup = A;
note = Abreve;
rightKerningGroup = A;
unicode = 0102;
},
{
glyphname = Abreveacute;
lastChange = "2015-11-29 22:40:14 +0000";
layers = (
{
layerId = "3717E746-9C6F-47D9-B2A4-B2AE7EC69823";
name = Bold;
paths = (
{
closed = 1;
nodes = (
"265 0 LINE",
"265 20 LINE",
"235 31 OFFCURVE",
"210 41 OFFCURVE",
"183 46 CURVE",
"359 534 LINE",
"530 48 LINE",
"519 46 OFFCURVE",
"493 39 OFFCURVE",
"451 25 CURVE",
"451 0 LINE",
"807 0 LINE",
"807 22 LINE",
"779 32 OFFCURVE",
"752 40 OFFCURVE",
"728 46 CURVE",
"479 704 LINE",
"334 704 LINE",
"86 49 LINE",
"82 48 OFFCURVE",
"34 35 OFFCURVE",
"6 26 CURVE",
"6 0 LINE"
);
},
{
closed = 1;
nodes = (
"539 176 LINE",
"539 235 LINE",
"200 235 LINE",
"200 176 LINE"
);
},
{
closed = 1;
nodes = (
"513 786 OFFCURVE",
"586 831 OFFCURVE",
"604 927 CURVE",
"498 927 LINE",
"491 856 OFFCURVE",
"447 847 OFFCURVE",
"406 847 CURVE SMOOTH",
"365 847 OFFCURVE",
"321 856 OFFCURVE",
"314 927 CURVE",
"208 927 LINE",
"226 831 OFFCURVE",
"299 786 OFFCURVE",
"406 786 CURVE SMOOTH"
);
},
{
closed = 1;
nodes = (
"503 994 LINE SMOOTH",
"544 1014 OFFCURVE",
"571 1039 OFFCURVE",
"571 1068 CURVE SMOOTH",
"571 1090 OFFCURVE",
"554 1123 OFFCURVE",
"510 1123 CURVE SMOOTH",
"476 1123 OFFCURVE",
"449 1093 OFFCURVE",
"434 1074 CURVE SMOOTH",
"356 975 LINE",
"386 937 LINE"
);
}
);
width = 813;
}
);
leftKerningGroup = A;
note = Abreveacute;
rightKerningGroup = A;
unicode = 1EAE;
},
{
glyphname = Abrevedotbelow;
lastChange = "2015-11-29 22:40:21 +0000";
layers = (
{
layerId = "3717E746-9C6F-47D9-B2A4-B2AE7EC69823";
name = Bold;
paths = (
{
closed = 1;
nodes = (
"265 0 LINE",
"265 20 LINE",
"235 31 OFFCURVE",
"210 41 OFFCURVE",
"183 46 CURVE",
"359 534 LINE",
"530 48 LINE",
"519 46 OFFCURVE",
"493 39 OFFCURVE",
"451 25 CURVE",
"451 0 LINE",
"807 0 LINE",
"807 22 LINE",
"779 32 OFFCURVE",
"752 40 OFFCURVE",
"728 46 CURVE",
"479 704 LINE",
"334 704 LINE",
"86 49 LINE",
"82 48 OFFCURVE",
"34 35 OFFCURVE",
"6 26 CURVE",
"6 0 LINE"
);
},
{
closed = 1;
nodes = (
"444 -195 OFFCURVE",
"472 -163 OFFCURVE",
"472 -123 CURVE SMOOTH",
"472 -83 OFFCURVE",
"444 -50 OFFCURVE",
"399 -50 CURVE SMOOTH",
"354 -50 OFFCURVE",
"327 -83 OFFCURVE",
"327 -123 CURVE SMOOTH",
"327 -163 OFFCURVE",
"354 -195 OFFCURVE",
"399 -195 CURVE SMOOTH"
);
},
{
closed = 1;
nodes = (
"539 176 LINE",
"539 235 LINE",
"200 235 LINE",
"200 176 LINE"
);
},
{
closed = 1;
nodes = (
"513 786 OFFCURVE",
"586 831 OFFCURVE",
"604 927 CURVE",
"498 927 LINE",
"491 856 OFFCURVE",
"447 847 OFFCURVE",
"406 847 CURVE SMOOTH",
"365 847 OFFCURVE",
"321 856 OFFCURVE",
"314 927 CURVE",
"208 927 LINE",
"226 831 OFFCURVE",
"299 786 OFFCURVE",
"406 786 CURVE SMOOTH"
);
}
);
width = 813;
}
);
leftKerningGroup = A;
note = Abrevedotbelow;
rightKerningGroup = A;
unicode = 1EB6;
},
{
glyphname = Abrevegrave;
lastChange = "2015-11-29 22:40:28 +0000";
layers = (
{
layerId = "3717E746-9C6F-47D9-B2A4-B2AE7EC69823";
name = Bold;
paths = (
{
closed = 1;
nodes = (
"265 0 LINE",
"265 20 LINE",
"235 31 OFFCURVE",
"210 41 OFFCURVE",
"183 46 CURVE",
"359 534 LINE",
"530 48 LINE",
"519 46 OFFCURVE",
"493 39 OFFCURVE",
"451 25 CURVE",
"451 0 LINE",
"807 0 LINE",
"807 22 LINE",
"779 32 OFFCURVE",
"752 40 OFFCURVE",
"728 46 CURVE",
"479 704 LINE",
"334 704 LINE",
"86 49 LINE",
"82 48 OFFCURVE",
"34 35 OFFCURVE",
"6 26 CURVE",
"6 0 LINE"
);
},
{
closed = 1;
nodes = (
"539 176 LINE",
"539 235 LINE",
"200 235 LINE",
"200 176 LINE"
);
},
{
closed = 1;
nodes = (
"513 786 OFFCURVE",
"586 831 OFFCURVE",
"604 927 CURVE",
"498 927 LINE",
"491 856 OFFCURVE",
"447 847 OFFCURVE",
"406 847 CURVE SMOOTH",
"365 847 OFFCURVE",
"321 856 OFFCURVE",
"314 927 CURVE",
"208 927 LINE",
"226 831 OFFCURVE",
"299 786 OFFCURVE",
"406 786 CURVE SMOOTH"
);
},
{
closed = 1;
nodes = (
"457 975 LINE",
"379 1074 LINE SMOOTH",
"364 1093 OFFCURVE",
"337 1123 OFFCURVE",
"303 1123 CURVE SMOOTH",
"259 1123 OFFCURVE",
"242 1090 OFFCURVE",
"242 1068 CURVE SMOOTH",
"242 1039 OFFCURVE",
"269 1014 OFFCURVE",
"310 994 CURVE SMOOTH",
"427 937 LINE"
);
}
);
width = 813;
}
);
leftKerningGroup = A;
note = Abrevegrave;
rightKerningGroup = A;
unicode = 1EB0;
},
{
glyphname = Abrevehookabove;
lastChange = "2015-11-29 22:40:35 +0000";
layers = (
{
layerId = "3717E746-9C6F-47D9-B2A4-B2AE7EC69823";
name = Bold;
paths = (
{
closed = 1;
nodes = (
"265 0 LINE",
"265 20 LINE",
"235 31 OFFCURVE",
"210 41 OFFCURVE",
"183 46 CURVE",
"359 534 LINE",
"530 48 LINE",
"519 46 OFFCURVE",
"493 39 OFFCURVE",
"451 25 CURVE",
"451 0 LINE",
"807 0 LINE",
"807 22 LINE",
"779 32 OFFCURVE",
"752 40 OFFCURVE",
"728 46 CURVE",
"479 704 LINE",
"334 704 LINE",
"86 49 LINE",
"82 48 OFFCURVE",
"34 35 OFFCURVE",
"6 26 CURVE",
"6 0 LINE"
);
},
{
closed = 1;
nodes = (
"539 176 LINE",
"539 235 LINE",
"200 235 LINE",
"200 176 LINE"
);
},
{
closed = 1;
nodes = (
"513 786 OFFCURVE",
"586 831 OFFCURVE",
"604 927 CURVE",
"498 927 LINE",
"491 856 OFFCURVE",
"447 847 OFFCURVE",
"406 847 CURVE SMOOTH",
"365 847 OFFCURVE",
"321 856 OFFCURVE",
"314 927 CURVE",
"208 927 LINE",
"226 831 OFFCURVE",
"299 786 OFFCURVE",
"406 786 CURVE SMOOTH"
);
},
{
closed = 1;
nodes = (
"439 964 LINE",
"448 1004 LINE",
"496 1009 OFFCURVE",
"538 1026 OFFCURVE",
"538 1088 CURVE SMOOTH",
"538 1156 OFFCURVE",
"477 1180 OFFCURVE",
"418 1180 CURVE SMOOTH",
"388 1180 OFFCURVE",
"358 1173 OFFCURVE",
"338 1163 CURVE",
"344 1121 LINE",
"362 1132 OFFCURVE",
"384 1136 OFFCURVE",
"400 1136 CURVE SMOOTH",
"438 1136 OFFCURVE",
"457 1113 OFFCURVE",
"457 1089 CURVE SMOOTH",
"457 1051 OFFCURVE",
"426 1042 OFFCURVE",
"408 1042 CURVE SMOOTH",
"367 1042 LINE",
"371 964 LINE"
);
}
);
width = 813;
}
);
leftKerningGroup = A;
note = Abrevehookabove;
rightKerningGroup = A;
unicode = 1EB2;
},
{
glyphname = Abrevetilde;
lastChange = "2015-11-29 22:40:41 +0000";
layers = (
{
layerId = "3717E746-9C6F-47D9-B2A4-B2AE7EC69823";
name = Bold;
paths = (
{
closed = 1;
nodes = (
"265 0 LINE",
"265 20 LINE",
"235 31 OFFCURVE",
"210 41 OFFCURVE",
"183 46 CURVE",
"359 534 LINE",
"530 48 LINE",
"519 46 OFFCURVE",
"493 39 OFFCURVE",
"451 25 CURVE",
"451 0 LINE",
"807 0 LINE",
"807 22 LINE",
"779 32 OFFCURVE",
"752 40 OFFCURVE",
"728 46 CURVE",
"479 704 LINE",
"334 704 LINE",
"86 49 LINE",
"82 48 OFFCURVE",
"34 35 OFFCURVE",
"6 26 CURVE",
"6 0 LINE"
);
},
{
closed = 1;
nodes = (
"539 176 LINE",
"539 235 LINE",
"200 235 LINE",
"200 176 LINE"
);
},
{
closed = 1;
nodes = (
"513 786 OFFCURVE",
"586 831 OFFCURVE",
"604 927 CURVE",
"498 927 LINE",
"491 856 OFFCURVE",
"447 847 OFFCURVE",
"406 847 CURVE SMOOTH",
"365 847 OFFCURVE",
"321 856 OFFCURVE",
"314 927 CURVE",
"208 927 LINE",
"226 831 OFFCURVE",
"299 786 OFFCURVE",
"406 786 CURVE SMOOTH"
);
},
{
closed = 1;
nodes = (
"266 987 LINE",
"271 1016 OFFCURVE",
"295 1035 OFFCURVE",
"329 1035 CURVE SMOOTH",
"380 1035 OFFCURVE",
"415 987 OFFCURVE",
"477 987 CURVE SMOOTH",
"563 987 OFFCURVE",
"601 1037 OFFCURVE",
"608 1110 CURVE",
"544 1110 LINE",
"533 1064 OFFCURVE",
"495 1061 OFFCURVE",
"474 1061 CURVE SMOOTH",
"435 1061 OFFCURVE",
"412 1109 OFFCURVE",
"334 1109 CURVE SMOOTH",
"259 1109 OFFCURVE",
"213 1066 OFFCURVE",
"202 987 CURVE"
);
}
);
width = 813;
}
);
leftKerningGroup = A;
note = Abrevetilde;
rightKerningGroup = A;
unicode = 1EB4;
},
{
glyphname = Acaron;
lastChange = "2015-10-27 15:50:12 +0000";
layers = (
{
layerId = "3717E746-9C6F-47D9-B2A4-B2AE7EC69823";
name = Bold;
paths = (
{
closed = 1;
nodes = (
"265 0 LINE",
"265 20 LINE",
"235 31 OFFCURVE",
"210 41 OFFCURVE",
"183 46 CURVE",
"359 534 LINE",
"530 48 LINE",
"519 46 OFFCURVE",
"493 39 OFFCURVE",
"451 25 CURVE",
"451 0 LINE",
"807 0 LINE",
"807 22 LINE",
"779 32 OFFCURVE",
"752 40 OFFCURVE",
"728 46 CURVE",
"479 704 LINE",
"334 704 LINE",
"86 49 LINE",
"82 48 OFFCURVE",
"34 35 OFFCURVE",
"6 26 CURVE",
"6 0 LINE"
);
},
{
closed = 1;
nodes = (
"539 176 LINE",
"539 235 LINE",
"200 235 LINE",
"200 176 LINE"
);
},
{
closed = 1;
nodes = (
"361 786 OFFCURVE",
"452 786 OFFCURVE",
"452 786 CURVE",
"473 819 OFFCURVE",
"576 913 OFFCURVE",
"623 942 CURVE",
"544 997 LINE",
"500 962 OFFCURVE",
"430 892 OFFCURVE",
"408 855 CURVE",
"408 855 OFFCURVE",
"405 855 OFFCURVE",
"405 855 CURVE",
"383 892 OFFCURVE",
"313 962 OFFCURVE",
"269 997 CURVE",
"190 942 LINE",
"237 913 OFFCURVE",
"340 819 OFFCURVE",
"361 786 CURVE"
);
}
);
width = 813;
}
);
leftKerningGroup = A;
note = Acaron;
rightKerningGroup = A;
unicode = 01CD;
},
{
glyphname = Acircumflex;
lastChange = "2015-10-27 15:50:13 +0000";
layers = (
{
layerId = "3717E746-9C6F-47D9-B2A4-B2AE7EC69823";
name = Bold;
paths = (
{
closed = 1;
nodes = (
"265 0 LINE",
"265 20 LINE",
"235 31 OFFCURVE",
"210 41 OFFCURVE",
"183 46 CURVE",
"359 534 LINE",
"530 48 LINE",
"519 46 OFFCURVE",
"493 39 OFFCURVE",
"451 25 CURVE",
"451 0 LINE",
"807 0 LINE",
"807 22 LINE",
"779 32 OFFCURVE",
"752 40 OFFCURVE",
"728 46 CURVE",
"479 704 LINE",
"334 704 LINE",
"86 49 LINE",
"82 48 OFFCURVE",
"34 35 OFFCURVE",
"6 26 CURVE",
"6 0 LINE"
);
},
{
closed = 1;
nodes = (
"539 176 LINE",
"539 235 LINE",
"200 235 LINE",
"200 176 LINE"
);
},
{
closed = 1;
nodes = (
"313 821 OFFCURVE",
"383 891 OFFCURVE",
"405 928 CURVE",
"405 928 OFFCURVE",
"408 928 OFFCURVE",
"408 928 CURVE",
"430 891 OFFCURVE",
"500 821 OFFCURVE",
"544 786 CURVE",
"623 841 LINE",
"576 870 OFFCURVE",
"473 964 OFFCURVE",
"452 997 CURVE",
"452 997 OFFCURVE",
"361 997 OFFCURVE",
"361 997 CURVE",
"340 964 OFFCURVE",
"237 870 OFFCURVE",
"190 841 CURVE",
"269 786 LINE"
);
}
);
width = 813;
}
);
leftKerningGroup = A;
note = Acircumflex;
rightKerningGroup = A;
unicode = 00C2;
},
{
glyphname = Acircumflexacute;
lastChange = "2015-10-27 15:50:13 +0000";
layers = (
{
layerId = "3717E746-9C6F-47D9-B2A4-B2AE7EC69823";
name = Bold;
paths = (
{
closed = 1;
nodes = (
"265 0 LINE",
"265 20 LINE",
"235 31 OFFCURVE",
"210 41 OFFCURVE",
"183 46 CURVE",
"359 534 LINE",
"530 48 LINE",
"519 46 OFFCURVE",
"493 39 OFFCURVE",
"451 25 CURVE",
"451 0 LINE",
"807 0 LINE",
"807 22 LINE",
"779 32 OFFCURVE",
"752 40 OFFCURVE",
"728 46 CURVE",
"479 704 LINE",
"334 704 LINE",
"86 49 LINE",
"82 48 OFFCURVE",
"34 35 OFFCURVE",
"6 26 CURVE",
"6 0 LINE"
);
},
{
closed = 1;
nodes = (
"539 176 LINE",
"539 235 LINE",
"200 235 LINE",
"200 176 LINE"
);
},
{
closed = 1;
nodes = (
"315 821 OFFCURVE",
"385 891 OFFCURVE",
"407 928 CURVE",
"407 928 OFFCURVE",
"410 928 OFFCURVE",
"410 928 CURVE",
"432 891 OFFCURVE",
"502 821 OFFCURVE",
"546 786 CURVE",
"625 841 LINE",
"578 870 OFFCURVE",
"475 964 OFFCURVE",
"454 997 CURVE",
"454 997 OFFCURVE",
"363 997 OFFCURVE",
"363 997 CURVE",
"342 964 OFFCURVE",
"239 870 OFFCURVE",
"192 841 CURVE",
"271 786 LINE"
);
},
{
closed = 1;
nodes = (
"684 994 LINE SMOOTH",
"725 1014 OFFCURVE",
"752 1039 OFFCURVE",
"752 1068 CURVE SMOOTH",
"752 1090 OFFCURVE",
"735 1123 OFFCURVE",
"691 1123 CURVE SMOOTH",
"657 1123 OFFCURVE",
"630 1093 OFFCURVE",
"615 1074 CURVE SMOOTH",
"537 975 LINE",
"567 937 LINE"
);
}
);
width = 813;
}
);
leftKerningGroup = A;
note = Acircumflexacute;
rightKerningGroup = A;
unicode = 1EA4;
},
{
glyphname = Acircumflexdotbelow;
lastChange = "2015-10-27 15:50:13 +0000";
layers = (
{
layerId = "3717E746-9C6F-47D9-B2A4-B2AE7EC69823";
name = Bold;
paths = (
{
closed = 1;
nodes = (
"265 0 LINE",
"265 20 LINE",
"235 31 OFFCURVE",
"210 41 OFFCURVE",
"183 46 CURVE",
"359 534 LINE",
"530 48 LINE",
"519 46 OFFCURVE",
"493 39 OFFCURVE",
"451 25 CURVE",
"451 0 LINE",
"807 0 LINE",
"807 22 LINE",
"779 32 OFFCURVE",
"752 40 OFFCURVE",
"728 46 CURVE",
"479 704 LINE",
"334 704 LINE",
"86 49 LINE",
"82 48 OFFCURVE",
"34 35 OFFCURVE",
"6 26 CURVE",
"6 0 LINE"
);
},
{
closed = 1;
nodes = (
"454 -195 OFFCURVE",
"482 -163 OFFCURVE",
"482 -123 CURVE SMOOTH",
"482 -83 OFFCURVE",
"454 -50 OFFCURVE",
"409 -50 CURVE SMOOTH",
"364 -50 OFFCURVE",
"337 -83 OFFCURVE",
"337 -123 CURVE SMOOTH",
"337 -163 OFFCURVE",
"364 -195 OFFCURVE",
"409 -195 CURVE SMOOTH"
);
},
{
closed = 1;
nodes = (
"539 176 LINE",
"539 235 LINE",
"200 235 LINE",
"200 176 LINE"
);
},
{
closed = 1;
nodes = (
"315 820 OFFCURVE",
"385 890 OFFCURVE",
"407 927 CURVE",
"407 927 OFFCURVE",
"410 927 OFFCURVE",
"410 927 CURVE",
"432 890 OFFCURVE",
"502 820 OFFCURVE",
"546 785 CURVE",
"625 840 LINE",
"578 869 OFFCURVE",
"475 963 OFFCURVE",
"454 996 CURVE",
"454 996 OFFCURVE",
"363 996 OFFCURVE",
"363 996 CURVE",
"342 963 OFFCURVE",
"239 869 OFFCURVE",
"192 840 CURVE",
"271 785 LINE"
);
}
);
width = 813;
}
);
leftKerningGroup = A;
note = Acircumflexdotbelow;
rightKerningGroup = A;
unicode = 1EAC;
},
{
glyphname = Acircumflexgrave;
lastChange = "2015-10-27 15:50:13 +0000";
layers = (
{
layerId = "3717E746-9C6F-47D9-B2A4-B2AE7EC69823";
name = Bold;
paths = (
{
closed = 1;
nodes = (
"265 0 LINE",
"265 20 LINE",
"235 31 OFFCURVE",
"210 41 OFFCURVE",
"183 46 CURVE",
"359 534 LINE",
"530 48 LINE",
"519 46 OFFCURVE",
"493 39 OFFCURVE",
"451 25 CURVE",
"451 0 LINE",
"807 0 LINE",
"807 22 LINE",
"779 32 OFFCURVE",
"752 40 OFFCURVE",
"728 46 CURVE",
"479 704 LINE",
"334 704 LINE",
"86 49 LINE",
"82 48 OFFCURVE",
"34 35 OFFCURVE",
"6 26 CURVE",
"6 0 LINE"
);
},
{
closed = 1;
nodes = (
"539 176 LINE",
"539 235 LINE",
"200 235 LINE",
"200 176 LINE"
);
},
{
closed = 1;
nodes = (
"280 975 LINE",
"202 1074 LINE SMOOTH",
"187 1093 OFFCURVE",
"160 1123 OFFCURVE",
"126 1123 CURVE SMOOTH",
"82 1123 OFFCURVE",
"65 1090 OFFCURVE",
"65 1068 CURVE SMOOTH",
"65 1039 OFFCURVE",
"92 1014 OFFCURVE",
"133 994 CURVE SMOOTH",
"250 937 LINE"
);
},
{
closed = 1;
nodes = (
"315 821 OFFCURVE",
"385 891 OFFCURVE",
"407 928 CURVE",
"407 928 OFFCURVE",
"410 928 OFFCURVE",
"410 928 CURVE",
"432 891 OFFCURVE",
"502 821 OFFCURVE",
"546 786 CURVE",
"625 841 LINE",
"578 870 OFFCURVE",
"475 964 OFFCURVE",
"454 997 CURVE",
"454 997 OFFCURVE",
"363 997 OFFCURVE",
"363 997 CURVE",
"342 964 OFFCURVE",
"239 870 OFFCURVE",
"192 841 CURVE",
"271 786 LINE"
);
}
);
width = 813;
}
);
leftKerningGroup = A;
note = Acircumflexgrave;
rightKerningGroup = A;
unicode = 1EA6;
},
{
glyphname = Acircumflexhookabove;
lastChange = "2015-10-27 15:50:13 +0000";
layers = (
{
layerId = "3717E746-9C6F-47D9-B2A4-B2AE7EC69823";
name = Bold;
paths = (
{
closed = 1;
nodes = (
"265 0 LINE",
"265 20 LINE",
"235 31 OFFCURVE",
"210 41 OFFCURVE",
"183 46 CURVE",
"359 534 LINE",
"530 48 LINE",
"519 46 OFFCURVE",
"493 39 OFFCURVE",
"451 25 CURVE",
"451 0 LINE",
"807 0 LINE",
"807 22 LINE",
"779 32 OFFCURVE",
"752 40 OFFCURVE",
"728 46 CURVE",
"479 704 LINE",
"334 704 LINE",
"86 49 LINE",
"82 48 OFFCURVE",
"34 35 OFFCURVE",
"6 26 CURVE",
"6 0 LINE"
);
},
{
closed = 1;
nodes = (
"539 176 LINE",
"539 235 LINE",
"200 235 LINE",
"200 176 LINE"
);
},
{
closed = 1;
nodes = (
"315 821 OFFCURVE",
"385 891 OFFCURVE",
"407 928 CURVE",
"407 928 OFFCURVE",
"410 928 OFFCURVE",
"410 928 CURVE",
"432 891 OFFCURVE",
"502 821 OFFCURVE",
"546 786 CURVE",
"625 841 LINE",
"578 870 OFFCURVE",
"475 964 OFFCURVE",
"454 997 CURVE",
"454 997 OFFCURVE",
"363 997 OFFCURVE",
"363 997 CURVE",
"342 964 OFFCURVE",
"239 870 OFFCURVE",
"192 841 CURVE",
"271 786 LINE"
);
},
{
closed = 1;
nodes = (
"610 964 LINE",
"619 1004 LINE",
"667 1009 OFFCURVE",
"709 1026 OFFCURVE",
"709 1088 CURVE SMOOTH",
"709 1156 OFFCURVE",
"648 1180 OFFCURVE",
"589 1180 CURVE SMOOTH",
"559 1180 OFFCURVE",
"529 1173 OFFCURVE",
"509 1163 CURVE",
"515 1121 LINE",
"533 1132 OFFCURVE",
"555 1136 OFFCURVE",
"571 1136 CURVE SMOOTH",
"609 1136 OFFCURVE",
"628 1113 OFFCURVE",
"628 1089 CURVE SMOOTH",
"628 1051 OFFCURVE",
"597 1042 OFFCURVE",
"579 1042 CURVE SMOOTH",
"538 1042 LINE",
"542 964 LINE"
);
}
);
width = 813;
}
);
leftKerningGroup = A;
note = Acircumflexhookabove;
rightKerningGroup = A;
unicode = 1EA8;
},
{
glyphname = Acircumflextilde;
lastChange = "2015-10-27 15:50:12 +0000";
layers = (
{
layerId = "3717E746-9C6F-47D9-B2A4-B2AE7EC69823";
name = Bold;
paths = (
{
closed = 1;
nodes = (
"265 0 LINE",
"265 20 LINE",
"235 31 OFFCURVE",
"210 41 OFFCURVE",
"183 46 CURVE",
"359 534 LINE",
"530 48 LINE",
"519 46 OFFCURVE",
"493 39 OFFCURVE",
"451 25 CURVE",
"451 0 LINE",
"807 0 LINE",
"807 22 LINE",
"779 32 OFFCURVE",
"752 40 OFFCURVE",
"728 46 CURVE",
"479 704 LINE",
"334 704 LINE",
"86 49 LINE",
"82 48 OFFCURVE",
"34 35 OFFCURVE",
"6 26 CURVE",
"6 0 LINE"
);
},
{
closed = 1;
nodes = (
"539 176 LINE",
"539 235 LINE",
"200 235 LINE",
"200 176 LINE"
);
},
{
closed = 1;
nodes = (
"315 821 OFFCURVE",
"385 891 OFFCURVE",
"407 928 CURVE",
"407 928 OFFCURVE",
"410 928 OFFCURVE",
"410 928 CURVE",
"432 891 OFFCURVE",
"502 821 OFFCURVE",
"546 786 CURVE",
"625 841 LINE",
"578 870 OFFCURVE",
"475 964 OFFCURVE",
"454 997 CURVE",
"454 997 OFFCURVE",
"363 997 OFFCURVE",
"363 997 CURVE",
"342 964 OFFCURVE",
"239 870 OFFCURVE",
"192 841 CURVE",
"271 786 LINE"
);
},
{
closed = 1;
nodes = (
"284 1040 LINE",
"289 1069 OFFCURVE",
"313 1088 OFFCURVE",
"347 1088 CURVE SMOOTH",
"398 1088 OFFCURVE",
"433 1040 OFFCURVE",
"495 1040 CURVE SMOOTH",
"581 1040 OFFCURVE",
"619 1090 OFFCURVE",
"626 1163 CURVE",
"562 1163 LINE",
"551 1117 OFFCURVE",
"513 1114 OFFCURVE",
"492 1114 CURVE SMOOTH",
"453 1114 OFFCURVE",
"430 1162 OFFCURVE",
"352 1162 CURVE SMOOTH",
"277 1162 OFFCURVE",
"231 1119 OFFCURVE",
"220 1040 CURVE"
);
}
);
width = 813;
}
);
leftKerningGroup = A;
note = Acircumflextilde;
rightKerningGroup = A;
unicode = 1EAA;
},
{
glyphname = Adieresis;
lastChange = "2015-10-27 15:50:12 +0000";
layers = (
{
layerId = "3717E746-9C6F-47D9-B2A4-B2AE7EC69823";
name = Bold;
paths = (
{
closed = 1;
nodes = (
"265 0 LINE",
"265 20 LINE",
"235 31 OFFCURVE",
"210 41 OFFCURVE",
"183 46 CURVE",
"359 534 LINE",
"530 48 LINE",
"519 46 OFFCURVE",
"493 39 OFFCURVE",
"451 25 CURVE",
"451 0 LINE",
"807 0 LINE",
"807 22 LINE",
"779 32 OFFCURVE",
"752 40 OFFCURVE",
"728 46 CURVE",
"479 704 LINE",
"334 704 LINE",
"86 49 LINE",
"82 48 OFFCURVE",
"34 35 OFFCURVE",
"6 26 CURVE",
"6 0 LINE"
);
},
{
closed = 1;
nodes = (
"539 176 LINE",
"539 235 LINE",
"200 235 LINE",
"200 176 LINE"
);
},
{
closed = 1;
nodes = (
"304 786 OFFCURVE",
"332 818 OFFCURVE",
"332 858 CURVE SMOOTH",
"332 898 OFFCURVE",
"304 931 OFFCURVE",
"259 931 CURVE SMOOTH",
"214 931 OFFCURVE",
"187 898 OFFCURVE",
"187 858 CURVE SMOOTH",
"187 818 OFFCURVE",
"214 786 OFFCURVE",
"259 786 CURVE SMOOTH"
);
},
{
closed = 1;
nodes = (
"557 786 OFFCURVE",
"585 818 OFFCURVE",
"585 858 CURVE SMOOTH",
"585 898 OFFCURVE",
"557 931 OFFCURVE",
"512 931 CURVE SMOOTH",
"467 931 OFFCURVE",
"440 898 OFFCURVE",
"440 858 CURVE SMOOTH",
"440 818 OFFCURVE",
"467 786 OFFCURVE",
"512 786 CURVE SMOOTH"
);
}
);
width = 813;
}
);
leftKerningGroup = A;
note = Adieresis;
rightKerningGroup = A;
unicode = 00C4;
},
{
glyphname = Adotbelow;
lastChange = "2015-10-27 15:50:13 +0000";
layers = (
{
layerId = "3717E746-9C6F-47D9-B2A4-B2AE7EC69823";
name = Bold;
paths = (
{
closed = 1;
nodes = (
"265 0 LINE",
"265 20 LINE",
"235 31 OFFCURVE",
"210 41 OFFCURVE",
"183 46 CURVE",
"359 534 LINE",
"530 48 LINE",
"519 46 OFFCURVE",
"493 39 OFFCURVE",
"451 25 CURVE",
"451 0 LINE",
"807 0 LINE",
"807 22 LINE",
"779 32 OFFCURVE",
"752 40 OFFCURVE",
"728 46 CURVE",
"479 704 LINE",
"334 704 LINE",
"86 49 LINE",
"82 48 OFFCURVE",
"34 35 OFFCURVE",
"6 26 CURVE",
"6 0 LINE"
);
},
{
closed = 1;
nodes = (
"451 -195 OFFCURVE",
"479 -163 OFFCURVE",
"479 -123 CURVE SMOOTH",
"479 -83 OFFCURVE",
"451 -50 OFFCURVE",
"406 -50 CURVE SMOOTH",
"361 -50 OFFCURVE",
"334 -83 OFFCURVE",
"334 -123 CURVE SMOOTH",
"334 -163 OFFCURVE",
"361 -195 OFFCURVE",
"406 -195 CURVE SMOOTH"
);
},
{
closed = 1;
nodes = (
"539 176 LINE",
"539 235 LINE",
"200 235 LINE",
"200 176 LINE"
);
}
);
width = 813;
}
);
leftKerningGroup = A;
note = Adotbelow;
rightKerningGroup = A;
unicode = 1EA0;
},
{
glyphname = Agrave;
lastChange = "2015-10-27 15:50:13 +0000";
layers = (
{
layerId = "3717E746-9C6F-47D9-B2A4-B2AE7EC69823";
name = Bold;
paths = (
{
closed = 1;
nodes = (
"265 0 LINE",
"265 20 LINE",
"235 31 OFFCURVE",
"210 41 OFFCURVE",
"183 46 CURVE",
"359 534 LINE",
"530 48 LINE",
"519 46 OFFCURVE",
"493 39 OFFCURVE",
"451 25 CURVE",
"451 0 LINE",
"807 0 LINE",
"807 22 LINE",
"779 32 OFFCURVE",
"752 40 OFFCURVE",
"728 46 CURVE",
"479 704 LINE",
"334 704 LINE",
"86 49 LINE",
"82 48 OFFCURVE",
"34 35 OFFCURVE",
"6 26 CURVE",
"6 0 LINE"
);
},
{
closed = 1;
nodes = (
"539 176 LINE",
"539 235 LINE",
"200 235 LINE",
"200 176 LINE"
);
},
{
closed = 1;
nodes = (
"538 830 LINE",
"411 969 LINE",
"406 975 OFFCURVE",
"376 1011 OFFCURVE",
"335 1011 CURVE SMOOTH",
"291 1011 OFFCURVE",
"274 982 OFFCURVE",
"274 960 CURVE SMOOTH",
"274 931 OFFCURVE",
"296 909 OFFCURVE",
"335 886 CURVE SMOOTH",
"507 786 LINE"
);
}
);
width = 813;
}
);
leftKerningGroup = A;
note = Agrave;
rightKerningGroup = A;
unicode = 00C0;
},
{
glyphname = Ahookabove;
lastChange = "2015-10-27 15:50:13 +0000";
layers = (
{
layerId = "3717E746-9C6F-47D9-B2A4-B2AE7EC69823";
name = Bold;
paths = (
{
closed = 1;
nodes = (
"265 0 LINE",
"265 20 LINE",
"235 31 OFFCURVE",
"210 41 OFFCURVE",
"183 46 CURVE",
"359 534 LINE",
"530 48 LINE",
"519 46 OFFCURVE",
"493 39 OFFCURVE",
"451 25 CURVE",
"451 0 LINE",
"807 0 LINE",
"807 22 LINE",
"779 32 OFFCURVE",
"752 40 OFFCURVE",
"728 46 CURVE",
"479 704 LINE",
"334 704 LINE",
"86 49 LINE",
"82 48 OFFCURVE",
"34 35 OFFCURVE",
"6 26 CURVE",
"6 0 LINE"
);
},
{
closed = 1;
nodes = (
"539 176 LINE",
"539 235 LINE",
"200 235 LINE",
"200 176 LINE"
);
},
{
closed = 1;
nodes = (
"458 786 LINE",
"468 859 LINE",
"523 864 OFFCURVE",
"571 883 OFFCURVE",
"571 951 CURVE SMOOTH",
"571 1025 OFFCURVE",
"501 1051 OFFCURVE",
"434 1051 CURVE SMOOTH",
"399 1051 OFFCURVE",
"365 1043 OFFCURVE",
"342 1032 CURVE",
"349 987 LINE",
"370 999 OFFCURVE",
"395 1003 OFFCURVE",
"413 1003 CURVE SMOOTH",
"456 1003 OFFCURVE",
"478 978 OFFCURVE",
"478 952 CURVE SMOOTH",
"478 910 OFFCURVE",
"443 900 OFFCURVE",
"422 900 CURVE SMOOTH",
"375 900 LINE",
"380 786 LINE"
);
}
);
width = 813;
}
);
leftKerningGroup = A;
note = Ahookabove;
rightKerningGroup = A;
unicode = 1EA2;
},
{
glyphname = Amacron;
lastChange = "2015-10-27 15:50:13 +0000";
layers = (
{
layerId = "3717E746-9C6F-47D9-B2A4-B2AE7EC69823";
name = Bold;
paths = (
{
closed = 1;
nodes = (
"265 0 LINE",
"265 20 LINE",
"235 31 OFFCURVE",
"210 41 OFFCURVE",
"183 46 CURVE",
"359 534 LINE",
"530 48 LINE",
"519 46 OFFCURVE",
"493 39 OFFCURVE",
"451 25 CURVE",
"451 0 LINE",
"807 0 LINE",
"807 22 LINE",
"779 32 OFFCURVE",
"752 40 OFFCURVE",
"728 46 CURVE",
"479 704 LINE",
"334 704 LINE",
"86 49 LINE",
"82 48 OFFCURVE",
"34 35 OFFCURVE",
"6 26 CURVE",
"6 0 LINE"
);
},
{
closed = 1;
nodes = (
"539 176 LINE",
"539 235 LINE",
"200 235 LINE",
"200 176 LINE"
);
},
{
closed = 1;
nodes = (
"625 786 LINE",
"625 843 LINE",
"197 843 LINE",
"197 786 LINE"
);
}
);
width = 813;
}
);
leftKerningGroup = A;
note = Amacron;
rightKerningGroup = A;
unicode = 0100;
},
{
glyphname = Aogonek;
lastChange = "2015-10-27 15:50:12 +0000";
layers = (
{
layerId = "3717E746-9C6F-47D9-B2A4-B2AE7EC69823";
name = Bold;
paths = (
{
closed = 1;
nodes = (
"265 0 LINE",
"265 20 LINE",
"235 31 OFFCURVE",
"210 41 OFFCURVE",
"183 46 CURVE",
"359 534 LINE",
"530 48 LINE",
"519 46 OFFCURVE",
"493 39 OFFCURVE",
"451 25 CURVE",
"451 0 LINE",
"807 0 LINE",
"807 22 LINE",
"779 32 OFFCURVE",
"752 40 OFFCURVE",
"728 46 CURVE",
"479 704 LINE",
"334 704 LINE",
"86 49 LINE",
"82 48 OFFCURVE",
"34 35 OFFCURVE",
"6 26 CURVE",
"6 0 LINE"
);
},
{
closed = 1;
nodes = (
"539 176 LINE",
"539 235 LINE",
"200 235 LINE",
"200 176 LINE"
);
},
{
closed = 1;
nodes = (
"810 -218 OFFCURVE",
"862 -206 OFFCURVE",
"889 -186 CURVE",
"889 -109 LINE",
"860 -127 OFFCURVE",
"834 -134 OFFCURVE",
"814 -134 CURVE SMOOTH",
"775 -134 OFFCURVE",
"752 -110 OFFCURVE",
"752 -82 CURVE SMOOTH",
"752 -52 OFFCURVE",
"777 -17 OFFCURVE",
"796 0 CURVE",
"708 0 LINE",
"642 -17 OFFCURVE",
"606 -76 OFFCURVE",
"606 -122 CURVE SMOOTH",
"606 -184 OFFCURVE",
"663 -218 OFFCURVE",
"758 -218 CURVE SMOOTH"
);
}
);
width = 813;
}
);
leftKerningGroup = A;
note = Aogonek;
rightKerningGroup = A;
unicode = 0104;
},
{
glyphname = Aring;
lastChange = "2015-10-27 15:50:12 +0000";
layers = (
{
layerId = "3717E746-9C6F-47D9-B2A4-B2AE7EC69823";
name = Bold;
paths = (
{
closed = 1;
nodes = (
"265 0 LINE",
"265 20 LINE",
"235 31 OFFCURVE",
"210 41 OFFCURVE",
"183 46 CURVE",
"359 534 LINE",
"530 48 LINE",
"519 46 OFFCURVE",
"493 39 OFFCURVE",
"451 25 CURVE",
"451 0 LINE",
"807 0 LINE",
"807 22 LINE",
"779 32 OFFCURVE",
"752 40 OFFCURVE",
"728 46 CURVE",
"479 704 LINE",
"334 704 LINE",
"86 49 LINE",
"82 48 OFFCURVE",
"34 35 OFFCURVE",
"6 26 CURVE",
"6 0 LINE"
);
},
{
closed = 1;
nodes = (
"539 176 LINE",
"539 235 LINE",
"200 235 LINE",
"200 176 LINE"
);
},
{
closed = 1;
nodes = (
"477 750 OFFCURVE",
"524 795 OFFCURVE",
"524 861 CURVE SMOOTH",
"524 927 OFFCURVE",
"477 972 OFFCURVE",
"405 972 CURVE SMOOTH",
"333 972 OFFCURVE",
"286 927 OFFCURVE",
"286 861 CURVE SMOOTH",
"286 795 OFFCURVE",
"333 750 OFFCURVE",
"405 750 CURVE SMOOTH"
);
},
{
closed = 1;
nodes = (
"372 804 OFFCURVE",
"346 827 OFFCURVE",
"346 861 CURVE SMOOTH",
"346 895 OFFCURVE",
"372 918 OFFCURVE",
"405 918 CURVE SMOOTH",
"438 918 OFFCURVE",
"464 895 OFFCURVE",
"464 861 CURVE SMOOTH",
"464 827 OFFCURVE",
"438 804 OFFCURVE",
"405 804 CURVE SMOOTH"
);
}
);
width = 813;
}
);
leftKerningGroup = A;
note = Aring;
rightKerningGroup = A;
unicode = 00C5;
},
{
glyphname = Aringacute;
lastChange = "2015-10-27 15:50:13 +0000";
layers = (
{
layerId = "3717E746-9C6F-47D9-B2A4-B2AE7EC69823";
name = Bold;
paths = (
{
closed = 1;
nodes = (
"265 0 LINE",
"265 20 LINE",
"235 31 OFFCURVE",
"210 41 OFFCURVE",
"183 46 CURVE",
"359 534 LINE",
"530 48 LINE",
"519 46 OFFCURVE",
"493 39 OFFCURVE",
"451 25 CURVE",
"451 0 LINE",
"807 0 LINE",
"807 22 LINE",
"779 32 OFFCURVE",
"752 40 OFFCURVE",
"728 46 CURVE",
"479 704 LINE",
"334 704 LINE",
"86 49 LINE",
"82 48 OFFCURVE",
"34 35 OFFCURVE",
"6 26 CURVE",
"6 0 LINE"
);
},
{
closed = 1;
nodes = (
"539 176 LINE",
"539 235 LINE",
"200 235 LINE",
"200 176 LINE"
);
},
{
closed = 1;
nodes = (
"477 750 OFFCURVE",
"524 795 OFFCURVE",
"524 861 CURVE SMOOTH",
"524 927 OFFCURVE",
"477 972 OFFCURVE",
"405 972 CURVE SMOOTH",
"333 972 OFFCURVE",
"286 927 OFFCURVE",
"286 861 CURVE SMOOTH",
"286 795 OFFCURVE",
"333 750 OFFCURVE",
"405 750 CURVE SMOOTH"
);
},
{
closed = 1;
nodes = (
"372 804 OFFCURVE",
"346 827 OFFCURVE",
"346 861 CURVE SMOOTH",
"346 895 OFFCURVE",
"372 918 OFFCURVE",
"405 918 CURVE SMOOTH",
"438 918 OFFCURVE",
"464 895 OFFCURVE",
"464 861 CURVE SMOOTH",
"464 827 OFFCURVE",
"438 804 OFFCURVE",
"405 804 CURVE SMOOTH"
);
},
{
closed = 1;
nodes = (
"477 1093 LINE SMOOTH",
"516 1116 OFFCURVE",
"538 1138 OFFCURVE",
"538 1167 CURVE SMOOTH",
"538 1189 OFFCURVE",
"521 1218 OFFCURVE",
"477 1218 CURVE SMOOTH",
"436 1218 OFFCURVE",
"406 1182 OFFCURVE",
"401 1176 CURVE",
"274 1037 LINE",
"305 993 LINE"
);
}
);
width = 813;
}
);
leftKerningGroup = A;
note = Aringacute;
rightKerningGroup = A;
unicode = 01FA;
},
{
glyphname = Atilde;
lastChange = "2015-10-27 15:50:13 +0000";
layers = (
{
layerId = "3717E746-9C6F-47D9-B2A4-B2AE7EC69823";
name = Bold;
paths = (
{
closed = 1;
nodes = (
"265 0 LINE",
"265 20 LINE",
"235 31 OFFCURVE",
"210 41 OFFCURVE",
"183 46 CURVE",
"359 534 LINE",
"530 48 LINE",
"519 46 OFFCURVE",
"493 39 OFFCURVE",
"451 25 CURVE",
"451 0 LINE",
"807 0 LINE",
"807 22 LINE",
"779 32 OFFCURVE",
"752 40 OFFCURVE",
"728 46 CURVE",
"479 704 LINE",
"334 704 LINE",
"86 49 LINE",
"82 48 OFFCURVE",
"34 35 OFFCURVE",
"6 26 CURVE",
"6 0 LINE"
);
},
{
closed = 1;
nodes = (
"539 176 LINE",
"539 235 LINE",
"200 235 LINE",
"200 176 LINE"
);
},
{
closed = 1;
nodes = (
"273 786 LINE",
"278 817 OFFCURVE",
"295 836 OFFCURVE",
"324 836 CURVE SMOOTH",
"358 836 OFFCURVE",
"424 786 OFFCURVE",
"488 786 CURVE SMOOTH",
"578 786 OFFCURVE",
"618 839 OFFCURVE",
"625 915 CURVE",
"532 915 LINE",
"521 867 OFFCURVE",
"499 864 OFFCURVE",
"477 864 CURVE SMOOTH",
"436 864 OFFCURVE",
"399 914 OFFCURVE",
"318 914 CURVE SMOOTH",
"239 914 OFFCURVE",
"192 869 OFFCURVE",
"180 786 CURVE"
);
}
);
width = 813;
}
);
leftKerningGroup = A;
note = Atilde;
rightKerningGroup = A;
unicode = 00C3;
},
{
glyphname = AE;
lastChange = "2015-10-27 15:50:12 +0000";
layers = (
{
layerId = "3717E746-9C6F-47D9-B2A4-B2AE7EC69823";
name = Bold;
paths = (
{
closed = 1;
nodes = (
"275 0 LINE",
"275 20 LINE",
"246 31 OFFCURVE",
"214 41 OFFCURVE",
"188 46 CURVE",
"261 176 LINE",
"478 176 LINE",
"478 45 LINE",
"455 41 OFFCURVE",
"421 33 OFFCURVE",
"390 22 CURVE",
"390 0 LINE",
"1003 0 LINE",
"1024 196 LINE",
"982 196 LINE",
"962 174 OFFCURVE",
"926 99 OFFCURVE",
"923 59 CURVE",
"675 59 LINE",
"675 330 LINE",
"827 330 LINE",
"829 313 OFFCURVE",
"838 274 OFFCURVE",
"849 241 CURVE",
"880 241 LINE",
"880 477 LINE",
"849 477 LINE",
"837 446 OFFCURVE",
"830 407 OFFCURVE",
"827 389 CURVE",
"675 389 LINE",
"675 641 LINE",
"915 641 LINE",
"917 607 OFFCURVE",
"946 527 OFFCURVE",
"962 503 CURVE",
"1004 503 LINE",
"1004 700 LINE",
"390 700 LINE",
"390 678 LINE",
"408 671 OFFCURVE",
"427 666 OFFCURVE",
"444 662 CURVE",
"85 47 LINE",
"61 41 OFFCURVE",
"36 33 OFFCURVE",
"6 22 CURVE",
"6 0 LINE"
);
},
{
closed = 1;
nodes = (
"478 558 LINE",
"478 235 LINE",
"295 235 LINE"
);
}
);
width = 1058;
}
);
leftKerningGroup = A;
note = AE;
unicode = 00C6;
},
{
glyphname = AEacute;
lastChange = "2015-10-27 15:50:12 +0000";
layers = (
{
layerId = "3717E746-9C6F-47D9-B2A4-B2AE7EC69823";
name = Bold;
paths = (
{
closed = 1;
nodes = (
"275 0 LINE",
"275 20 LINE",
"246 31 OFFCURVE",
"214 41 OFFCURVE",
"188 46 CURVE",
"261 176 LINE",
"478 176 LINE",
"478 45 LINE",
"455 41 OFFCURVE",
"421 33 OFFCURVE",
"390 22 CURVE",
"390 0 LINE",
"1003 0 LINE",
"1024 196 LINE",
"982 196 LINE",
"962 174 OFFCURVE",
"926 99 OFFCURVE",
"923 59 CURVE",
"675 59 LINE",
"675 330 LINE",
"827 330 LINE",
"829 313 OFFCURVE",
"838 274 OFFCURVE",
"849 241 CURVE",
"880 241 LINE",
"880 477 LINE",
"849 477 LINE",
"837 446 OFFCURVE",
"830 407 OFFCURVE",
"827 389 CURVE",
"675 389 LINE",
"675 641 LINE",
"915 641 LINE",
"917 607 OFFCURVE",
"946 527 OFFCURVE",
"962 503 CURVE",
"1004 503 LINE",
"1004 700 LINE",
"390 700 LINE",
"390 678 LINE",
"408 671 OFFCURVE",
"427 666 OFFCURVE",
"444 662 CURVE",
"85 47 LINE",
"61 41 OFFCURVE",
"36 33 OFFCURVE",
"6 22 CURVE",
"6 0 LINE"
);
},
{
closed = 1;
nodes = (
"478 558 LINE",
"478 235 LINE",
"295 235 LINE"
);
},
{
closed = 1;
nodes = (
"782 886 LINE SMOOTH",
"821 909 OFFCURVE",
"843 931 OFFCURVE",
"843 960 CURVE SMOOTH",
"843 982 OFFCURVE",
"826 1011 OFFCURVE",
"782 1011 CURVE SMOOTH",
"741 1011 OFFCURVE",
"711 975 OFFCURVE",
"706 969 CURVE",
"579 830 LINE",
"610 786 LINE"
);
}
);
width = 1058;
}
);
leftKerningGroup = A;
note = AEacute;
unicode = 01FC;
},
{
glyphname = B;
lastChange = "2015-10-27 15:50:12 +0000";
layers = (
{
layerId = "3717E746-9C6F-47D9-B2A4-B2AE7EC69823";
name = Bold;
paths = (
{
closed = 1;
nodes = (
"398 0 LINE SMOOTH",
"587 0 OFFCURVE",
"653 70 OFFCURVE",
"653 197 CURVE SMOOTH",
"653 260 OFFCURVE",
"610 338 OFFCURVE",
"498 367 CURVE",
"498 374 LINE",
"583 402 OFFCURVE",
"624 465 OFFCURVE",
"624 538 CURVE SMOOTH",
"624 642 OFFCURVE",
"558 700 OFFCURVE",
"367 700 CURVE SMOOTH",
"14 700 LINE",
"14 677 LINE",
"47 666 OFFCURVE",
"72 658 OFFCURVE",
"94 654 CURVE",
"94 49 LINE",
"84 47 OFFCURVE",
"67 42 OFFCURVE",
"14 21 CURVE",
"14 0 LINE"
);
},
{
closed = 1;
nodes = (
"294 339 LINE",
"356 339 LINE SMOOTH",
"418 339 OFFCURVE",
"453 294 OFFCURVE",
"453 204 CURVE SMOOTH",
"453 112 OFFCURVE",
"427 59 OFFCURVE",
"369 59 CURVE SMOOTH",
"294 59 LINE"
);
},
{
closed = 1;
nodes = (
"294 641 LINE",
"339 641 LINE SMOOTH",
"398 641 OFFCURVE",
"423 605 OFFCURVE",
"423 526 CURVE SMOOTH",
"423 448 OFFCURVE",
"394 397 OFFCURVE",
"335 397 CURVE SMOOTH",
"294 397 LINE"
);
}
);
width = 669;
}
);
note = B;
unicode = 0042;
},
{
glyphname = C;
lastChange = "2015-10-27 15:50:13 +0000";
layers = (
{
layerId = "3717E746-9C6F-47D9-B2A4-B2AE7EC69823";
name = Bold;
paths = (
{
closed = 1;
nodes = (
"503 -10 OFFCURVE",
"594 18 OFFCURVE",
"651 67 CURVE",
"623 120 LINE",
"556 70 OFFCURVE",
"483 52 OFFCURVE",
"427 52 CURVE SMOOTH",
"310 52 OFFCURVE",
"238 159 OFFCURVE",
"238 350 CURVE SMOOTH",
"238 540 OFFCURVE",
"325 648 OFFCURVE",
"446 648 CURVE SMOOTH",
"487 648 OFFCURVE",
"525 641 OFFCURVE",
"566 610 CURVE",
"571 557 OFFCURVE",
"581 504 OFFCURVE",
"594 463 CURVE",
"640 463 LINE",
"657 625 LINE",
"601 678 OFFCURVE",
"527 710 OFFCURVE",
"396 710 CURVE SMOOTH",
"158 710 OFFCURVE",
"34 572 OFFCURVE",
"34 350 CURVE SMOOTH",
"34 128 OFFCURVE",
"157 -10 OFFCURVE",
"402 -10 CURVE SMOOTH"
);
}
);
width = 694;
}
);
leftKerningGroup = C;
note = C;
unicode = 0043;
},
{
glyphname = Cacute;
lastChange = "2015-10-27 15:50:13 +0000";
layers = (
{
layerId = "3717E746-9C6F-47D9-B2A4-B2AE7EC69823";
name = Bold;
paths = (
{
closed = 1;
nodes = (
"503 -10 OFFCURVE",
"594 18 OFFCURVE",
"651 67 CURVE",
"623 120 LINE",
"556 70 OFFCURVE",
"483 52 OFFCURVE",
"427 52 CURVE SMOOTH",
"310 52 OFFCURVE",
"238 159 OFFCURVE",
"238 350 CURVE SMOOTH",
"238 540 OFFCURVE",
"325 648 OFFCURVE",
"446 648 CURVE SMOOTH",
"487 648 OFFCURVE",
"525 641 OFFCURVE",
"566 610 CURVE",
"571 557 OFFCURVE",
"581 504 OFFCURVE",
"594 463 CURVE",
"640 463 LINE",
"657 625 LINE",
"601 678 OFFCURVE",
"527 710 OFFCURVE",
"396 710 CURVE SMOOTH",
"158 710 OFFCURVE",
"34 572 OFFCURVE",
"34 350 CURVE SMOOTH",
"34 128 OFFCURVE",
"157 -10 OFFCURVE",
"402 -10 CURVE SMOOTH"
);
},
{
closed = 1;
nodes = (
"531 886 LINE SMOOTH",
"570 909 OFFCURVE",
"592 931 OFFCURVE",
"592 960 CURVE SMOOTH",
"592 982 OFFCURVE",
"575 1011 OFFCURVE",
"531 1011 CURVE SMOOTH",
"490 1011 OFFCURVE",
"460 975 OFFCURVE",
"455 969 CURVE",
"328 830 LINE",
"359 786 LINE"
);
}
);
width = 694;
}
);
leftKerningGroup = C;
note = Cacute;
unicode = 0106;
},
{
glyphname = Ccaron;
lastChange = "2015-10-27 15:50:12 +0000";
layers = (
{
layerId = "3717E746-9C6F-47D9-B2A4-B2AE7EC69823";
name = Bold;
paths = (
{
closed = 1;
nodes = (
"503 -10 OFFCURVE",
"594 18 OFFCURVE",
"651 67 CURVE",
"623 120 LINE",
"556 70 OFFCURVE",
"483 52 OFFCURVE",
"427 52 CURVE SMOOTH",
"310 52 OFFCURVE",
"238 159 OFFCURVE",
"238 350 CURVE SMOOTH",
"238 540 OFFCURVE",
"325 648 OFFCURVE",
"446 648 CURVE SMOOTH",
"487 648 OFFCURVE",
"525 641 OFFCURVE",
"566 610 CURVE",
"571 557 OFFCURVE",
"581 504 OFFCURVE",
"594 463 CURVE",
"640 463 LINE",
"657 625 LINE",
"601 678 OFFCURVE",
"527 710 OFFCURVE",
"396 710 CURVE SMOOTH",
"158 710 OFFCURVE",
"34 572 OFFCURVE",
"34 350 CURVE SMOOTH",
"34 128 OFFCURVE",
"157 -10 OFFCURVE",
"402 -10 CURVE SMOOTH"
);
},
{
closed = 1;
nodes = (
"382 786 OFFCURVE",
"473 786 OFFCURVE",
"473 786 CURVE",
"494 819 OFFCURVE",
"597 913 OFFCURVE",
"644 942 CURVE",
"565 997 LINE",
"521 962 OFFCURVE",
"451 892 OFFCURVE",
"429 855 CURVE",
"429 855 OFFCURVE",
"426 855 OFFCURVE",
"426 855 CURVE",
"404 892 OFFCURVE",
"334 962 OFFCURVE",
"290 997 CURVE",
"211 942 LINE",
"258 913 OFFCURVE",
"361 819 OFFCURVE",
"382 786 CURVE"
);
}
);
width = 694;
}
);
leftKerningGroup = C;
note = Ccaron;
unicode = 010C;
},
{
glyphname = Ccedilla;
lastChange = "2015-10-27 15:50:13 +0000";
layers = (
{
layerId = "3717E746-9C6F-47D9-B2A4-B2AE7EC69823";
name = Bold;
paths = (
{
closed = 1;
nodes = (
"503 -10 OFFCURVE",
"594 18 OFFCURVE",
"651 67 CURVE",
"623 120 LINE",
"556 70 OFFCURVE",
"483 52 OFFCURVE",
"427 52 CURVE SMOOTH",
"310 52 OFFCURVE",
"238 159 OFFCURVE",
"238 350 CURVE SMOOTH",
"238 540 OFFCURVE",
"325 648 OFFCURVE",
"446 648 CURVE SMOOTH",
"487 648 OFFCURVE",
"525 641 OFFCURVE",
"566 610 CURVE",
"571 557 OFFCURVE",
"581 504 OFFCURVE",
"594 463 CURVE",
"640 463 LINE",
"657 625 LINE",
"601 678 OFFCURVE",
"527 710 OFFCURVE",
"396 710 CURVE SMOOTH",
"158 710 OFFCURVE",
"34 572 OFFCURVE",
"34 350 CURVE SMOOTH",
"34 128 OFFCURVE",
"157 -10 OFFCURVE",
"402 -10 CURVE SMOOTH"
);
},
{
closed = 1;
nodes = (
"442 -281 OFFCURVE",
"516 -240 OFFCURVE",
"516 -161 CURVE SMOOTH",
"516 -121 OFFCURVE",
"489 -73 OFFCURVE",
"408 -65 CURVE",
"403 -65 OFFCURVE",
"392 -64 OFFCURVE",
"387 -64 CURVE",
"432 25 LINE",
"352 25 LINE",
"299 -78 LINE",
"327 -115 LINE",
"334 -114 OFFCURVE",
"342 -114 OFFCURVE",
"349 -114 CURVE SMOOTH",
"383 -114 OFFCURVE",
"423 -123 OFFCURVE",
"423 -161 CURVE SMOOTH",
"423 -205 OFFCURVE",
"381 -218 OFFCURVE",
"337 -218 CURVE SMOOTH",
"304 -218 OFFCURVE",
"269 -209 OFFCURVE",
"248 -195 CURVE",
"219 -241 LINE",
"254 -266 OFFCURVE",
"309 -281 OFFCURVE",
"354 -281 CURVE SMOOTH"
);
}
);
width = 694;
}
);
leftKerningGroup = C;
note = Ccedilla;
unicode = 00C7;
},
{
glyphname = Ccircumflex;
lastChange = "2015-10-27 15:50:13 +0000";
layers = (
{
layerId = "3717E746-9C6F-47D9-B2A4-B2AE7EC69823";
name = Bold;
paths = (
{
closed = 1;
nodes = (
"503 -10 OFFCURVE",
"594 18 OFFCURVE",
"651 67 CURVE",
"623 120 LINE",
"556 70 OFFCURVE",
"483 52 OFFCURVE",
"427 52 CURVE SMOOTH",
"310 52 OFFCURVE",
"238 159 OFFCURVE",
"238 350 CURVE SMOOTH",
"238 540 OFFCURVE",
"325 648 OFFCURVE",
"446 648 CURVE SMOOTH",
"487 648 OFFCURVE",
"525 641 OFFCURVE",
"566 610 CURVE",
"571 557 OFFCURVE",
"581 504 OFFCURVE",
"594 463 CURVE",
"640 463 LINE",
"657 625 LINE",
"601 678 OFFCURVE",
"527 710 OFFCURVE",
"396 710 CURVE SMOOTH",
"158 710 OFFCURVE",
"34 572 OFFCURVE",
"34 350 CURVE SMOOTH",
"34 128 OFFCURVE",
"157 -10 OFFCURVE",
"402 -10 CURVE SMOOTH"
);
},
{
closed = 1;
nodes = (
"321 821 OFFCURVE",
"391 891 OFFCURVE",
"413 928 CURVE",
"413 928 OFFCURVE",
"416 928 OFFCURVE",
"416 928 CURVE",
"438 891 OFFCURVE",
"508 821 OFFCURVE",
"552 786 CURVE",
"631 841 LINE",
"584 870 OFFCURVE",
"481 964 OFFCURVE",
"460 997 CURVE",
"460 997 OFFCURVE",
"369 997 OFFCURVE",
"369 997 CURVE",
"348 964 OFFCURVE",
"245 870 OFFCURVE",
"198 841 CURVE",
"277 786 LINE"
);
}
);
width = 694;
}
);
leftKerningGroup = C;
note = Ccircumflex;
unicode = 0108;
},
{
glyphname = Cdotaccent;
lastChange = "2015-10-27 15:50:12 +0000";
layers = (
{
layerId = "3717E746-9C6F-47D9-B2A4-B2AE7EC69823";
name = Bold;
paths = (
{
closed = 1;
nodes = (
"503 -10 OFFCURVE",
"594 18 OFFCURVE",
"651 67 CURVE",
"623 120 LINE",
"556 70 OFFCURVE",
"483 52 OFFCURVE",
"427 52 CURVE SMOOTH",
"310 52 OFFCURVE",
"238 159 OFFCURVE",
"238 350 CURVE SMOOTH",
"238 540 OFFCURVE",
"325 648 OFFCURVE",
"446 648 CURVE SMOOTH",
"487 648 OFFCURVE",
"525 641 OFFCURVE",
"566 610 CURVE",
"571 557 OFFCURVE",
"581 504 OFFCURVE",
"594 463 CURVE",
"640 463 LINE",
"657 625 LINE",
"601 678 OFFCURVE",
"527 710 OFFCURVE",
"396 710 CURVE SMOOTH",
"158 710 OFFCURVE",
"34 572 OFFCURVE",
"34 350 CURVE SMOOTH",
"34 128 OFFCURVE",
"157 -10 OFFCURVE",
"402 -10 CURVE SMOOTH"
);
},
{
closed = 1;
nodes = (
"480 786 OFFCURVE",
"508 818 OFFCURVE",
"508 858 CURVE SMOOTH",
"508 898 OFFCURVE",
"480 931 OFFCURVE",
"435 931 CURVE SMOOTH",
"390 931 OFFCURVE",
"363 898 OFFCURVE",
"363 858 CURVE SMOOTH",
"363 818 OFFCURVE",
"390 786 OFFCURVE",
"435 786 CURVE SMOOTH"
);
}
);
width = 694;
}
);
leftKerningGroup = C;
note = Cdotaccent;
unicode = 010A;
},
{
glyphname = D;
lastChange = "2015-10-27 15:50:13 +0000";
layers = (
{
layerId = "3717E746-9C6F-47D9-B2A4-B2AE7EC69823";
name = Bold;
paths = (
{
closed = 1;
nodes = (
"374 0 LINE SMOOTH",
"616 0 OFFCURVE",
"713 127 OFFCURVE",
"713 350 CURVE SMOOTH",
"713 573 OFFCURVE",
"617 700 OFFCURVE",
"375 700 CURVE SMOOTH",
"24 700 LINE",
"24 678 LINE",
"53 669 OFFCURVE",
"79 660 OFFCURVE",
"102 655 CURVE",
"102 48 LINE",
"91 46 OFFCURVE",
"56 34 OFFCURVE",
"24 24 CURVE",
"24 0 LINE"
);
},
{
closed = 1;
nodes = (
"299 641 LINE",
"374 641 LINE SMOOTH",
"475 641 OFFCURVE",
"509 524 OFFCURVE",
"509 350 CURVE SMOOTH",
"509 176 OFFCURVE",
"476 59 OFFCURVE",
"372 59 CURVE SMOOTH",
"299 59 LINE"
);
}
);
width = 747;
}
);
note = D;
rightKerningGroup = D;
unicode = 0044;
},
{
glyphname = Eth;
lastChange = "2015-11-29 22:41:02 +0000";
layers = (
{
layerId = "3717E746-9C6F-47D9-B2A4-B2AE7EC69823";
name = Bold;
paths = (
{
closed = 1;
nodes = (
"374 0 LINE SMOOTH",
"616 0 OFFCURVE",
"713 127 OFFCURVE",
"713 350 CURVE SMOOTH",
"713 573 OFFCURVE",
"617 700 OFFCURVE",
"375 700 CURVE SMOOTH",
"24 700 LINE",
"24 678 LINE",
"53 669 OFFCURVE",
"79 660 OFFCURVE",
"102 655 CURVE",
"102 48 LINE",
"91 46 OFFCURVE",
"56 34 OFFCURVE",
"24 24 CURVE",
"24 0 LINE"
);
},
{
closed = 1;
nodes = (
"299 641 LINE",
"374 641 LINE SMOOTH",
"475 641 OFFCURVE",
"509 524 OFFCURVE",
"509 350 CURVE SMOOTH",
"509 176 OFFCURVE",
"476 59 OFFCURVE",
"372 59 CURVE SMOOTH",
"299 59 LINE"
);
},
{
closed = 1;
nodes = (
"428 305 LINE",
"428 363 LINE",
"43 363 LINE",
"43 305 LINE"
);
}
);
width = 747;
}
);
note = Eth;
rightKerningGroup = D;
unicode = 00D0;
},
{
glyphname = Dcaron;
lastChange = "2015-10-27 15:50:12 +0000";
layers = (
{
layerId = "3717E746-9C6F-47D9-B2A4-B2AE7EC69823";
name = Bold;
paths = (
{
closed = 1;
nodes = (
"374 0 LINE SMOOTH",
"616 0 OFFCURVE",
"713 127 OFFCURVE",
"713 350 CURVE SMOOTH",
"713 573 OFFCURVE",
"617 700 OFFCURVE",
"375 700 CURVE SMOOTH",
"24 700 LINE",
"24 678 LINE",
"53 669 OFFCURVE",
"79 660 OFFCURVE",
"102 655 CURVE",
"102 48 LINE",
"91 46 OFFCURVE",
"56 34 OFFCURVE",
"24 24 CURVE",
"24 0 LINE"
);
},
{
closed = 1;
nodes = (
"299 641 LINE",
"374 641 LINE SMOOTH",
"475 641 OFFCURVE",
"509 524 OFFCURVE",
"509 350 CURVE SMOOTH",
"509 176 OFFCURVE",
"476 59 OFFCURVE",
"372 59 CURVE SMOOTH",
"299 59 LINE"
);
},
{
closed = 1;
nodes = (
"310 786 OFFCURVE",
"401 786 OFFCURVE",
"401 786 CURVE",
"422 819 OFFCURVE",
"525 913 OFFCURVE",
"572 942 CURVE",
"493 997 LINE",
"449 962 OFFCURVE",
"379 892 OFFCURVE",
"357 855 CURVE",
"357 855 OFFCURVE",
"354 855 OFFCURVE",
"354 855 CURVE",
"332 892 OFFCURVE",
"262 962 OFFCURVE",
"218 997 CURVE",
"139 942 LINE",
"186 913 OFFCURVE",
"289 819 OFFCURVE",
"310 786 CURVE"
);
}
);
width = 747;
}
);
note = Dcaron;
rightKerningGroup = D;
unicode = 010E;
},
{
glyphname = Dcroat;
lastChange = "2015-11-29 22:40:58 +0000";
layers = (
{
layerId = "3717E746-9C6F-47D9-B2A4-B2AE7EC69823";
name = Bold;
paths = (
{
closed = 1;
nodes = (
"374 0 LINE SMOOTH",
"616 0 OFFCURVE",
"713 127 OFFCURVE",
"713 350 CURVE SMOOTH",
"713 573 OFFCURVE",
"617 700 OFFCURVE",
"375 700 CURVE SMOOTH",
"24 700 LINE",
"24 678 LINE",
"53 669 OFFCURVE",
"79 660 OFFCURVE",
"102 655 CURVE",
"102 48 LINE",
"91 46 OFFCURVE",
"56 34 OFFCURVE",
"24 24 CURVE",
"24 0 LINE"
);
},
{
closed = 1;
nodes = (
"299 641 LINE",
"374 641 LINE SMOOTH",
"475 641 OFFCURVE",
"509 524 OFFCURVE",
"509 350 CURVE SMOOTH",
"509 176 OFFCURVE",
"476 59 OFFCURVE",
"372 59 CURVE SMOOTH",
"299 59 LINE"
);
},
{
closed = 1;
nodes = (
"428 305 LINE",
"428 363 LINE",
"43 363 LINE",
"43 305 LINE"
);
}
);
width = 747;
}
);
note = Dcroat;
rightKerningGroup = D;
unicode = 0110;
},
{
glyphname = Ddotbelow;
lastChange = "2015-11-29 22:41:06 +0000";
layers = (
{
layerId = "3717E746-9C6F-47D9-B2A4-B2AE7EC69823";
name = Bold;
paths = (
{
closed = 1;
nodes = (
"374 0 LINE SMOOTH",
"616 0 OFFCURVE",
"713 127 OFFCURVE",
"713 350 CURVE SMOOTH",
"713 573 OFFCURVE",
"617 700 OFFCURVE",
"375 700 CURVE SMOOTH",
"24 700 LINE",
"24 678 LINE",
"53 669 OFFCURVE",
"79 660 OFFCURVE",
"102 655 CURVE",
"102 48 LINE",
"91 46 OFFCURVE",
"56 34 OFFCURVE",
"24 24 CURVE",
"24 0 LINE"
);
},
{
closed = 1;
nodes = (
"299 641 LINE",
"374 641 LINE SMOOTH",
"475 641 OFFCURVE",
"509 524 OFFCURVE",
"509 350 CURVE SMOOTH",
"509 176 OFFCURVE",
"476 59 OFFCURVE",
"372 59 CURVE SMOOTH",
"299 59 LINE"
);
},
{
closed = 1;
nodes = (
"301 -163 OFFCURVE",
"328 -195 OFFCURVE",
"373 -195 CURVE SMOOTH",
"418 -195 OFFCURVE",
"446 -163 OFFCURVE",
"446 -123 CURVE SMOOTH",
"446 -83 OFFCURVE",
"418 -50 OFFCURVE",
"373 -50 CURVE SMOOTH",
"328 -50 OFFCURVE",
"301 -83 OFFCURVE",
"301 -123 CURVE SMOOTH"
);
}
);
width = 747;
}
);
note = Ddotbelow;
rightKerningGroup = D;
unicode = 1E0C;
},
{
glyphname = Dlinebelow;
lastChange = "2015-11-29 22:41:10 +0000";
layers = (
{
layerId = "3717E746-9C6F-47D9-B2A4-B2AE7EC69823";
name = Bold;
paths = (
{
closed = 1;
nodes = (
"374 0 LINE SMOOTH",
"616 0 OFFCURVE",
"713 127 OFFCURVE",
"713 350 CURVE SMOOTH",
"713 573 OFFCURVE",
"617 700 OFFCURVE",
"375 700 CURVE SMOOTH",
"24 700 LINE",
"24 678 LINE",
"53 669 OFFCURVE",
"79 660 OFFCURVE",
"102 655 CURVE",
"102 48 LINE",
"91 46 OFFCURVE",
"56 34 OFFCURVE",
"24 24 CURVE",
"24 0 LINE"
);
},
{
closed = 1;
nodes = (
"299 641 LINE",
"374 641 LINE SMOOTH",
"475 641 OFFCURVE",
"509 524 OFFCURVE",
"509 350 CURVE SMOOTH",
"509 176 OFFCURVE",
"476 59 OFFCURVE",
"372 59 CURVE SMOOTH",
"299 59 LINE"
);
},
{
closed = 1;
nodes = (
"587 -112 LINE",
"587 -55 LINE",
"159 -55 LINE",
"159 -112 LINE"
);
}
);
width = 747;
}
);
note = Dlinebelow;
rightKerningGroup = D;
unicode = 1E0E;
},
{
glyphname = E;
lastChange = "2015-10-27 15:50:12 +0000";
layers = (
{
layerId = "3717E746-9C6F-47D9-B2A4-B2AE7EC69823";
name = Bold;
paths = (
{
closed = 1;
nodes = (
"637 0 LINE",
"658 196 LINE",
"616 196 LINE",
"596 174 OFFCURVE",
"560 99 OFFCURVE",
"557 59 CURVE",
"312 59 LINE",
"312 641 LINE",
"549 641 LINE",
"551 607 OFFCURVE",
"580 527 OFFCURVE",
"596 503 CURVE",
"638 503 LINE",
"638 700 LINE",
"24 700 LINE",
"24 678 LINE",
"55 667 OFFCURVE",
"89 659 OFFCURVE",
"112 655 CURVE",
"112 45 LINE",
"89 41 OFFCURVE",
"55 33 OFFCURVE",
"24 22 CURVE",
"24 0 LINE"
);
},
{
closed = 1;
nodes = (
"514 243 LINE",
"514 479 LINE",
"483 479 LINE",
"471 448 OFFCURVE",
"464 409 OFFCURVE",
"461 391 CURVE",
"238 391 LINE",
"238 332 LINE",
"461 332 LINE",
"463 315 OFFCURVE",
"472 276 OFFCURVE",
"483 243 CURVE"
);
}
);
width = 692;
}
);
note = E;
unicode = 0045;
},
{
glyphname = Eacute;
lastChange = "2015-10-27 15:50:13 +0000";
layers = (
{
layerId = "3717E746-9C6F-47D9-B2A4-B2AE7EC69823";
name = Bold;
paths = (
{
closed = 1;
nodes = (
"637 0 LINE",
"658 196 LINE",
"616 196 LINE",
"596 174 OFFCURVE",
"560 99 OFFCURVE",
"557 59 CURVE",
"312 59 LINE",
"312 641 LINE",
"549 641 LINE",
"551 607 OFFCURVE",
"580 527 OFFCURVE",
"596 503 CURVE",
"638 503 LINE",
"638 700 LINE",
"24 700 LINE",
"24 678 LINE",
"55 667 OFFCURVE",
"89 659 OFFCURVE",
"112 655 CURVE",
"112 45 LINE",
"89 41 OFFCURVE",
"55 33 OFFCURVE",
"24 22 CURVE",
"24 0 LINE"
);
},
{
closed = 1;
nodes = (
"514 243 LINE",
"514 479 LINE",
"483 479 LINE",
"471 448 OFFCURVE",
"464 409 OFFCURVE",
"461 391 CURVE",
"238 391 LINE",
"238 332 LINE",
"461 332 LINE",
"463 315 OFFCURVE",
"472 276 OFFCURVE",
"483 243 CURVE"
);
},
{
closed = 1;
nodes = (
"475 886 LINE SMOOTH",
"514 909 OFFCURVE",
"536 931 OFFCURVE",
"536 960 CURVE SMOOTH",
"536 982 OFFCURVE",
"519 1011 OFFCURVE",
"475 1011 CURVE SMOOTH",
"434 1011 OFFCURVE",
"404 975 OFFCURVE",
"399 969 CURVE",
"272 830 LINE",
"303 786 LINE"
);
}
);
width = 692;
}
);
note = Eacute;
unicode = 00C9;
},
{
glyphname = Ebreve;
lastChange = "2015-10-27 15:50:12 +0000";
layers = (
{
layerId = "3717E746-9C6F-47D9-B2A4-B2AE7EC69823";
name = Bold;
paths = (
{
closed = 1;
nodes = (
"637 0 LINE",
"658 196 LINE",
"616 196 LINE",
"596 174 OFFCURVE",
"560 99 OFFCURVE",
"557 59 CURVE",
"312 59 LINE",
"312 641 LINE",
"549 641 LINE",
"551 607 OFFCURVE",
"580 527 OFFCURVE",
"596 503 CURVE",
"638 503 LINE",
"638 700 LINE",
"24 700 LINE",
"24 678 LINE",
"55 667 OFFCURVE",
"89 659 OFFCURVE",
"112 655 CURVE",
"112 45 LINE",
"89 41 OFFCURVE",
"55 33 OFFCURVE",
"24 22 CURVE",
"24 0 LINE"
);
},
{
closed = 1;
nodes = (
"514 243 LINE",
"514 479 LINE",
"483 479 LINE",
"471 448 OFFCURVE",
"464 409 OFFCURVE",
"461 391 CURVE",
"238 391 LINE",
"238 332 LINE",
"461 332 LINE",
"463 315 OFFCURVE",
"472 276 OFFCURVE",
"483 243 CURVE"
);
},
{
closed = 1;
nodes = (
"506 786 OFFCURVE",
"579 831 OFFCURVE",
"597 927 CURVE",
"491 927 LINE",
"484 856 OFFCURVE",
"440 847 OFFCURVE",
"399 847 CURVE SMOOTH",
"358 847 OFFCURVE",
"314 856 OFFCURVE",
"307 927 CURVE",
"201 927 LINE",
"219 831 OFFCURVE",
"292 786 OFFCURVE",
"399 786 CURVE SMOOTH"
);
}
);
width = 692;
}
);
note = Ebreve;
unicode = 0114;
},
{
glyphname = Ecaron;
lastChange = "2015-10-27 15:50:13 +0000";
layers = (
{
layerId = "3717E746-9C6F-47D9-B2A4-B2AE7EC69823";
name = Bold;
paths = (
{
closed = 1;
nodes = (
"637 0 LINE",
"658 196 LINE",
"616 196 LINE",
"596 174 OFFCURVE",
"560 99 OFFCURVE",
"557 59 CURVE",
"312 59 LINE",
"312 641 LINE",
"549 641 LINE",
"551 607 OFFCURVE",
"580 527 OFFCURVE",
"596 503 CURVE",
"638 503 LINE",
"638 700 LINE",
"24 700 LINE",
"24 678 LINE",
"55 667 OFFCURVE",
"89 659 OFFCURVE",
"112 655 CURVE",
"112 45 LINE",
"89 41 OFFCURVE",
"55 33 OFFCURVE",
"24 22 CURVE",
"24 0 LINE"
);
},
{
closed = 1;
nodes = (
"514 243 LINE",
"514 479 LINE",
"483 479 LINE",
"471 448 OFFCURVE",
"464 409 OFFCURVE",
"461 391 CURVE",
"238 391 LINE",
"238 332 LINE",
"461 332 LINE",
"463 315 OFFCURVE",
"472 276 OFFCURVE",
"483 243 CURVE"
);
},
{
closed = 1;
nodes = (
"349 786 OFFCURVE",
"440 786 OFFCURVE",
"440 786 CURVE",
"461 819 OFFCURVE",
"564 913 OFFCURVE",
"611 942 CURVE",
"532 997 LINE",
"488 962 OFFCURVE",
"418 892 OFFCURVE",
"396 855 CURVE",
"396 855 OFFCURVE",
"393 855 OFFCURVE",
"393 855 CURVE",
"371 892 OFFCURVE",
"301 962 OFFCURVE",
"257 997 CURVE",
"178 942 LINE",
"225 913 OFFCURVE",
"328 819 OFFCURVE",
"349 786 CURVE"
);
}
);
width = 692;
}
);
note = Ecaron;
unicode = 011A;
},
{
glyphname = Ecircumflex;
lastChange = "2015-10-27 15:50:13 +0000";
layers = (
{
layerId = "3717E746-9C6F-47D9-B2A4-B2AE7EC69823";
name = Bold;
paths = (
{
closed = 1;
nodes = (
"637 0 LINE",
"658 196 LINE",
"616 196 LINE",
"596 174 OFFCURVE",
"560 99 OFFCURVE",
"557 59 CURVE",
"312 59 LINE",
"312 641 LINE",
"549 641 LINE",
"551 607 OFFCURVE",
"580 527 OFFCURVE",
"596 503 CURVE",
"638 503 LINE",
"638 700 LINE",
"24 700 LINE",
"24 678 LINE",
"55 667 OFFCURVE",
"89 659 OFFCURVE",
"112 655 CURVE",
"112 45 LINE",
"89 41 OFFCURVE",
"55 33 OFFCURVE",
"24 22 CURVE",
"24 0 LINE"
);
},
{
closed = 1;
nodes = (
"514 243 LINE",
"514 479 LINE",
"483 479 LINE",
"471 448 OFFCURVE",
"464 409 OFFCURVE",
"461 391 CURVE",
"238 391 LINE",
"238 332 LINE",
"461 332 LINE",
"463 315 OFFCURVE",
"472 276 OFFCURVE",
"483 243 CURVE"
);
},
{
closed = 1;
nodes = (
"294 821 OFFCURVE",
"364 891 OFFCURVE",
"386 928 CURVE",
"386 928 OFFCURVE",
"389 928 OFFCURVE",
"389 928 CURVE",
"411 891 OFFCURVE",
"481 821 OFFCURVE",
"525 786 CURVE",
"604 841 LINE",
"557 870 OFFCURVE",
"454 964 OFFCURVE",
"433 997 CURVE",
"433 997 OFFCURVE",
"342 997 OFFCURVE",
"342 997 CURVE",
"321 964 OFFCURVE",
"218 870 OFFCURVE",
"171 841 CURVE",
"250 786 LINE"
);
}
);
width = 692;
}
);
note = Ecircumflex;
unicode = 00CA;
},
{
glyphname = Ecircumflexacute;
lastChange = "2015-10-27 15:50:13 +0000";
layers = (
{
layerId = "3717E746-9C6F-47D9-B2A4-B2AE7EC69823";
name = Bold;
paths = (
{
closed = 1;
nodes = (
"637 0 LINE",
"658 196 LINE",
"616 196 LINE",
"596 174 OFFCURVE",
"560 99 OFFCURVE",
"557 59 CURVE",
"312 59 LINE",
"312 641 LINE",
"549 641 LINE",
"551 607 OFFCURVE",
"580 527 OFFCURVE",
"596 503 CURVE",
"638 503 LINE",
"638 700 LINE",
"24 700 LINE",
"24 678 LINE",
"55 667 OFFCURVE",
"89 659 OFFCURVE",
"112 655 CURVE",
"112 45 LINE",
"89 41 OFFCURVE",
"55 33 OFFCURVE",
"24 22 CURVE",
"24 0 LINE"
);
},
{
closed = 1;
nodes = (
"514 243 LINE",
"514 479 LINE",
"483 479 LINE",
"471 448 OFFCURVE",
"464 409 OFFCURVE",
"461 391 CURVE",
"238 391 LINE",
"238 332 LINE",
"461 332 LINE",
"463 315 OFFCURVE",
"472 276 OFFCURVE",
"483 243 CURVE"
);
},
{
closed = 1;
nodes = (
"265 821 OFFCURVE",
"335 891 OFFCURVE",
"357 928 CURVE",
"357 928 OFFCURVE",
"360 928 OFFCURVE",
"360 928 CURVE",
"382 891 OFFCURVE",
"452 821 OFFCURVE",
"496 786 CURVE",
"575 841 LINE",
"528 870 OFFCURVE",
"425 964 OFFCURVE",
"404 997 CURVE",
"404 997 OFFCURVE",
"313 997 OFFCURVE",
"313 997 CURVE",
"292 964 OFFCURVE",
"189 870 OFFCURVE",
"142 841 CURVE",
"221 786 LINE"
);
},
{
closed = 1;
nodes = (
"634 994 LINE SMOOTH",
"675 1014 OFFCURVE",
"702 1039 OFFCURVE",
"702 1068 CURVE SMOOTH",
"702 1090 OFFCURVE",
"685 1123 OFFCURVE",
"641 1123 CURVE SMOOTH",
"607 1123 OFFCURVE",
"580 1093 OFFCURVE",
"565 1074 CURVE SMOOTH",
"487 975 LINE",
"517 937 LINE"
);
}
);
width = 692;
}
);
note = Ecircumflexacute;
unicode = 1EBE;
},
{
glyphname = Ecircumflexdotbelow;
lastChange = "2015-10-27 15:50:12 +0000";
layers = (
{
layerId = "3717E746-9C6F-47D9-B2A4-B2AE7EC69823";
name = Bold;
paths = (
{
closed = 1;
nodes = (
"637 0 LINE",
"658 196 LINE",
"616 196 LINE",
"596 174 OFFCURVE",
"560 99 OFFCURVE",
"557 59 CURVE",
"312 59 LINE",
"312 641 LINE",
"549 641 LINE",
"551 607 OFFCURVE",
"580 527 OFFCURVE",
"596 503 CURVE",
"638 503 LINE",
"638 700 LINE",
"24 700 LINE",
"24 678 LINE",
"55 667 OFFCURVE",
"89 659 OFFCURVE",
"112 655 CURVE",
"112 45 LINE",
"89 41 OFFCURVE",
"55 33 OFFCURVE",
"24 22 CURVE",
"24 0 LINE"
);
},
{
closed = 1;
nodes = (
"407 -195 OFFCURVE",
"435 -163 OFFCURVE",
"435 -123 CURVE SMOOTH",
"435 -83 OFFCURVE",
"407 -50 OFFCURVE",
"362 -50 CURVE SMOOTH",
"317 -50 OFFCURVE",
"290 -83 OFFCURVE",
"290 -123 CURVE SMOOTH",
"290 -163 OFFCURVE",
"317 -195 OFFCURVE",
"362 -195 CURVE SMOOTH"
);
},
{
closed = 1;
nodes = (
"514 243 LINE",
"514 479 LINE",
"483 479 LINE",
"471 448 OFFCURVE",
"464 409 OFFCURVE",
"461 391 CURVE",
"238 391 LINE",
"238 332 LINE",
"461 332 LINE",
"463 315 OFFCURVE",
"472 276 OFFCURVE",
"483 243 CURVE"
);
},
{
closed = 1;
nodes = (
"265 821 OFFCURVE",
"335 891 OFFCURVE",
"357 928 CURVE",
"357 928 OFFCURVE",
"360 928 OFFCURVE",
"360 928 CURVE",
"382 891 OFFCURVE",
"452 821 OFFCURVE",
"496 786 CURVE",
"575 841 LINE",
"528 870 OFFCURVE",
"425 964 OFFCURVE",
"404 997 CURVE",
"404 997 OFFCURVE",
"313 997 OFFCURVE",
"313 997 CURVE",
"292 964 OFFCURVE",
"189 870 OFFCURVE",
"142 841 CURVE",
"221 786 LINE"
);
}
);
width = 692;
}
);
note = Ecircumflexdotbelow;
unicode = 1EC6;
},
{
glyphname = Ecircumflexgrave;
lastChange = "2015-10-27 15:50:13 +0000";
layers = (
{
layerId = "3717E746-9C6F-47D9-B2A4-B2AE7EC69823";
name = Bold;
paths = (
{
closed = 1;
nodes = (
"637 0 LINE",
"658 196 LINE",
"616 196 LINE",
"596 174 OFFCURVE",
"560 99 OFFCURVE",
"557 59 CURVE",
"312 59 LINE",
"312 641 LINE",
"549 641 LINE",
"551 607 OFFCURVE",
"580 527 OFFCURVE",
"596 503 CURVE",
"638 503 LINE",
"638 700 LINE",
"24 700 LINE",
"24 678 LINE",
"55 667 OFFCURVE",
"89 659 OFFCURVE",
"112 655 CURVE",
"112 45 LINE",
"89 41 OFFCURVE",
"55 33 OFFCURVE",
"24 22 CURVE",
"24 0 LINE"
);
},
{
closed = 1;
nodes = (
"514 243 LINE",
"514 479 LINE",
"483 479 LINE",
"471 448 OFFCURVE",
"464 409 OFFCURVE",
"461 391 CURVE",
"238 391 LINE",
"238 332 LINE",
"461 332 LINE",
"463 315 OFFCURVE",
"472 276 OFFCURVE",
"483 243 CURVE"
);
},
{
closed = 1;
nodes = (
"230 975 LINE",
"152 1074 LINE SMOOTH",
"137 1093 OFFCURVE",
"110 1123 OFFCURVE",
"76 1123 CURVE SMOOTH",
"32 1123 OFFCURVE",
"15 1090 OFFCURVE",
"15 1068 CURVE SMOOTH",
"15 1039 OFFCURVE",
"42 1014 OFFCURVE",
"83 994 CURVE SMOOTH",
"200 937 LINE"
);
},
{
closed = 1;
nodes = (
"265 821 OFFCURVE",
"335 891 OFFCURVE",
"357 928 CURVE",
"357 928 OFFCURVE",
"360 928 OFFCURVE",
"360 928 CURVE",
"382 891 OFFCURVE",
"452 821 OFFCURVE",
"496 786 CURVE",
"575 841 LINE",
"528 870 OFFCURVE",
"425 964 OFFCURVE",
"404 997 CURVE",
"404 997 OFFCURVE",
"313 997 OFFCURVE",
"313 997 CURVE",
"292 964 OFFCURVE",
"189 870 OFFCURVE",
"142 841 CURVE",
"221 786 LINE"
);
}
);
width = 692;
}
);
note = Ecircumflexgrave;
unicode = 1EC0;
},
{
glyphname = Ecircumflexhookabove;
lastChange = "2015-10-27 15:50:13 +0000";
layers = (
{
layerId = "3717E746-9C6F-47D9-B2A4-B2AE7EC69823";
name = Bold;
paths = (
{
closed = 1;
nodes = (
"637 0 LINE",
"658 196 LINE",
"616 196 LINE",
"596 174 OFFCURVE",
"560 99 OFFCURVE",
"557 59 CURVE",
"312 59 LINE",
"312 641 LINE",
"549 641 LINE",
"551 607 OFFCURVE",
"580 527 OFFCURVE",
"596 503 CURVE",
"638 503 LINE",
"638 700 LINE",
"24 700 LINE",
"24 678 LINE",
"55 667 OFFCURVE",
"89 659 OFFCURVE",
"112 655 CURVE",
"112 45 LINE",
"89 41 OFFCURVE",
"55 33 OFFCURVE",
"24 22 CURVE",
"24 0 LINE"
);
},
{
closed = 1;
nodes = (
"514 243 LINE",
"514 479 LINE",
"483 479 LINE",
"471 448 OFFCURVE",
"464 409 OFFCURVE",
"461 391 CURVE",
"238 391 LINE",
"238 332 LINE",
"461 332 LINE",
"463 315 OFFCURVE",
"472 276 OFFCURVE",
"483 243 CURVE"
);
},
{
closed = 1;
nodes = (
"265 821 OFFCURVE",
"335 891 OFFCURVE",
"357 928 CURVE",
"357 928 OFFCURVE",
"360 928 OFFCURVE",
"360 928 CURVE",
"382 891 OFFCURVE",
"452 821 OFFCURVE",
"496 786 CURVE",
"575 841 LINE",
"528 870 OFFCURVE",
"425 964 OFFCURVE",
"404 997 CURVE",
"404 997 OFFCURVE",
"313 997 OFFCURVE",
"313 997 CURVE",
"292 964 OFFCURVE",
"189 870 OFFCURVE",
"142 841 CURVE",
"221 786 LINE"
);
},
{
closed = 1;
nodes = (
"560 964 LINE",
"569 1004 LINE",
"617 1009 OFFCURVE",
"659 1026 OFFCURVE",
"659 1088 CURVE SMOOTH",
"659 1156 OFFCURVE",
"598 1180 OFFCURVE",
"539 1180 CURVE SMOOTH",
"509 1180 OFFCURVE",
"479 1173 OFFCURVE",
"459 1163 CURVE",
"465 1121 LINE",
"483 1132 OFFCURVE",
"505 1136 OFFCURVE",
"521 1136 CURVE SMOOTH",
"559 1136 OFFCURVE",
"578 1113 OFFCURVE",
"578 1089 CURVE SMOOTH",
"578 1051 OFFCURVE",
"547 1042 OFFCURVE",
"529 1042 CURVE SMOOTH",
"488 1042 LINE",
"492 964 LINE"
);
}
);
width = 692;
}
);
note = Ecircumflexhookabove;
unicode = 1EC2;
},
{
glyphname = Ecircumflextilde;
lastChange = "2015-10-27 15:50:12 +0000";
layers = (
{
layerId = "3717E746-9C6F-47D9-B2A4-B2AE7EC69823";
name = Bold;
paths = (
{
closed = 1;
nodes = (
"637 0 LINE",
"658 196 LINE",
"616 196 LINE",
"596 174 OFFCURVE",
"560 99 OFFCURVE",
"557 59 CURVE",
"312 59 LINE",
"312 641 LINE",
"549 641 LINE",
"551 607 OFFCURVE",
"580 527 OFFCURVE",
"596 503 CURVE",
"638 503 LINE",
"638 700 LINE",
"24 700 LINE",
"24 678 LINE",
"55 667 OFFCURVE",
"89 659 OFFCURVE",
"112 655 CURVE",
"112 45 LINE",
"89 41 OFFCURVE",
"55 33 OFFCURVE",
"24 22 CURVE",
"24 0 LINE"
);
},
{
closed = 1;
nodes = (
"514 243 LINE",
"514 479 LINE",
"483 479 LINE",
"471 448 OFFCURVE",
"464 409 OFFCURVE",
"461 391 CURVE",
"238 391 LINE",
"238 332 LINE",
"461 332 LINE",
"463 315 OFFCURVE",
"472 276 OFFCURVE",
"483 243 CURVE"
);
},
{
closed = 1;
nodes = (
"265 821 OFFCURVE",
"335 891 OFFCURVE",
"357 928 CURVE",
"357 928 OFFCURVE",
"360 928 OFFCURVE",
"360 928 CURVE",
"382 891 OFFCURVE",
"452 821 OFFCURVE",
"496 786 CURVE",
"575 841 LINE",
"528 870 OFFCURVE",
"425 964 OFFCURVE",
"404 997 CURVE",
"404 997 OFFCURVE",
"313 997 OFFCURVE",
"313 997 CURVE",
"292 964 OFFCURVE",
"189 870 OFFCURVE",
"142 841 CURVE",
"221 786 LINE"
);
},
{
closed = 1;
nodes = (
"234 1040 LINE",
"239 1069 OFFCURVE",
"263 1088 OFFCURVE",
"297 1088 CURVE SMOOTH",
"348 1088 OFFCURVE",
"383 1040 OFFCURVE",
"445 1040 CURVE SMOOTH",
"531 1040 OFFCURVE",
"569 1090 OFFCURVE",
"576 1163 CURVE",
"512 1163 LINE",
"501 1117 OFFCURVE",
"463 1114 OFFCURVE",
"442 1114 CURVE SMOOTH",
"403 1114 OFFCURVE",
"380 1162 OFFCURVE",
"302 1162 CURVE SMOOTH",
"227 1162 OFFCURVE",
"181 1119 OFFCURVE",
"170 1040 CURVE"
);
}
);
width = 692;
}
);
note = Ecircumflextilde;
unicode = 1EC4;
},
{
glyphname = Edieresis;
lastChange = "2015-10-27 15:50:12 +0000";
layers = (
{
layerId = "3717E746-9C6F-47D9-B2A4-B2AE7EC69823";
name = Bold;
paths = (
{
closed = 1;
nodes = (
"637 0 LINE",
"658 196 LINE",
"616 196 LINE",
"596 174 OFFCURVE",
"560 99 OFFCURVE",
"557 59 CURVE",
"312 59 LINE",
"312 641 LINE",
"549 641 LINE",
"551 607 OFFCURVE",
"580 527 OFFCURVE",
"596 503 CURVE",
"638 503 LINE",
"638 700 LINE",
"24 700 LINE",
"24 678 LINE",
"55 667 OFFCURVE",
"89 659 OFFCURVE",
"112 655 CURVE",
"112 45 LINE",
"89 41 OFFCURVE",
"55 33 OFFCURVE",
"24 22 CURVE",
"24 0 LINE"
);
},
{
closed = 1;
nodes = (
"514 243 LINE",
"514 479 LINE",
"483 479 LINE",
"471 448 OFFCURVE",
"464 409 OFFCURVE",
"461 391 CURVE",
"238 391 LINE",
"238 332 LINE",
"461 332 LINE",
"463 315 OFFCURVE",
"472 276 OFFCURVE",
"483 243 CURVE"
);
},
{
closed = 1;
nodes = (
"322 786 OFFCURVE",
"350 818 OFFCURVE",
"350 858 CURVE SMOOTH",
"350 898 OFFCURVE",
"322 931 OFFCURVE",
"277 931 CURVE SMOOTH",
"232 931 OFFCURVE",
"205 898 OFFCURVE",
"205 858 CURVE SMOOTH",
"205 818 OFFCURVE",
"232 786 OFFCURVE",
"277 786 CURVE SMOOTH"
);
},
{
closed = 1;
nodes = (
"575 786 OFFCURVE",
"603 818 OFFCURVE",
"603 858 CURVE SMOOTH",
"603 898 OFFCURVE",
"575 931 OFFCURVE",
"530 931 CURVE SMOOTH",
"485 931 OFFCURVE",
"458 898 OFFCURVE",
"458 858 CURVE SMOOTH",
"458 818 OFFCURVE",
"485 786 OFFCURVE",
"530 786 CURVE SMOOTH"
);
}
);
width = 692;
}
);
note = Edieresis;
unicode = 00CB;
},
{
glyphname = Edotaccent;
lastChange = "2015-10-27 15:50:12 +0000";
layers = (
{
layerId = "3717E746-9C6F-47D9-B2A4-B2AE7EC69823";
name = Bold;
paths = (
{
closed = 1;
nodes = (
"637 0 LINE",
"658 196 LINE",
"616 196 LINE",
"596 174 OFFCURVE",
"560 99 OFFCURVE",
"557 59 CURVE",
"312 59 LINE",
"312 641 LINE",
"549 641 LINE",
"551 607 OFFCURVE",
"580 527 OFFCURVE",
"596 503 CURVE",
"638 503 LINE",
"638 700 LINE",
"24 700 LINE",
"24 678 LINE",
"55 667 OFFCURVE",
"89 659 OFFCURVE",
"112 655 CURVE",
"112 45 LINE",
"89 41 OFFCURVE",
"55 33 OFFCURVE",
"24 22 CURVE",
"24 0 LINE"
);
},
{
closed = 1;
nodes = (
"514 243 LINE",
"514 479 LINE",
"483 479 LINE",
"471 448 OFFCURVE",
"464 409 OFFCURVE",
"461 391 CURVE",
"238 391 LINE",
"238 332 LINE",
"461 332 LINE",
"463 315 OFFCURVE",
"472 276 OFFCURVE",
"483 243 CURVE"
);
},
{
closed = 1;
nodes = (
"448 786 OFFCURVE",
"476 818 OFFCURVE",
"476 858 CURVE SMOOTH",
"476 898 OFFCURVE",
"448 931 OFFCURVE",
"403 931 CURVE SMOOTH",
"358 931 OFFCURVE",
"331 898 OFFCURVE",
"331 858 CURVE SMOOTH",
"331 818 OFFCURVE",
"358 786 OFFCURVE",
"403 786 CURVE SMOOTH"
);
}
);
width = 692;
}
);
note = Edotaccent;
unicode = 0116;
},
{
glyphname = Edotbelow;
lastChange = "2015-10-27 15:50:13 +0000";
layers = (
{
layerId = "3717E746-9C6F-47D9-B2A4-B2AE7EC69823";
name = Bold;
paths = (
{
closed = 1;
nodes = (
"637 0 LINE",
"658 196 LINE",
"616 196 LINE",
"596 174 OFFCURVE",
"560 99 OFFCURVE",
"557 59 CURVE",
"312 59 LINE",
"312 641 LINE",
"549 641 LINE",
"551 607 OFFCURVE",
"580 527 OFFCURVE",
"596 503 CURVE",
"638 503 LINE",
"638 700 LINE",
"24 700 LINE",
"24 678 LINE",
"55 667 OFFCURVE",
"89 659 OFFCURVE",
"112 655 CURVE",
"112 45 LINE",
"89 41 OFFCURVE",
"55 33 OFFCURVE",
"24 22 CURVE",
"24 0 LINE"
);
},
{
closed = 1;
nodes = (
"390 -195 OFFCURVE",
"418 -163 OFFCURVE",
"418 -123 CURVE SMOOTH",
"418 -83 OFFCURVE",
"390 -50 OFFCURVE",
"345 -50 CURVE SMOOTH",
"300 -50 OFFCURVE",
"273 -83 OFFCURVE",
"273 -123 CURVE SMOOTH",
"273 -163 OFFCURVE",
"300 -195 OFFCURVE",
"345 -195 CURVE SMOOTH"
);
},
{
closed = 1;
nodes = (
"514 243 LINE",
"514 479 LINE",
"483 479 LINE",
"471 448 OFFCURVE",
"464 409 OFFCURVE",
"461 391 CURVE",
"238 391 LINE",
"238 332 LINE",
"461 332 LINE",
"463 315 OFFCURVE",
"472 276 OFFCURVE",
"483 243 CURVE"
);
}
);
width = 692;
}
);
note = Edotbelow;
unicode = 1EB8;
},
{
glyphname = Egrave;
lastChange = "2015-10-27 15:50:13 +0000";
layers = (
{
layerId = "3717E746-9C6F-47D9-B2A4-B2AE7EC69823";
name = Bold;
paths = (
{
closed = 1;
nodes = (
"637 0 LINE",
"658 196 LINE",
"616 196 LINE",
"596 174 OFFCURVE",
"560 99 OFFCURVE",
"557 59 CURVE",
"312 59 LINE",
"312 641 LINE",
"549 641 LINE",
"551 607 OFFCURVE",
"580 527 OFFCURVE",
"596 503 CURVE",
"638 503 LINE",
"638 700 LINE",
"24 700 LINE",
"24 678 LINE",
"55 667 OFFCURVE",
"89 659 OFFCURVE",
"112 655 CURVE",
"112 45 LINE",
"89 41 OFFCURVE",
"55 33 OFFCURVE",
"24 22 CURVE",
"24 0 LINE"
);
},
{
closed = 1;
nodes = (
"514 243 LINE",
"514 479 LINE",
"483 479 LINE",
"471 448 OFFCURVE",
"464 409 OFFCURVE",
"461 391 CURVE",
"238 391 LINE",
"238 332 LINE",
"461 332 LINE",
"463 315 OFFCURVE",
"472 276 OFFCURVE",
"483 243 CURVE"
);
},
{
closed = 1;
nodes = (
"519 830 LINE",
"392 969 LINE",
"387 975 OFFCURVE",
"357 1011 OFFCURVE",
"316 1011 CURVE SMOOTH",
"272 1011 OFFCURVE",
"255 982 OFFCURVE",
"255 960 CURVE SMOOTH",
"255 931 OFFCURVE",
"277 909 OFFCURVE",
"316 886 CURVE SMOOTH",
"488 786 LINE"
);
}
);
width = 692;
}
);
note = Egrave;
unicode = 00C8;
},
{
glyphname = Ehookabove;
lastChange = "2015-10-27 15:50:13 +0000";
layers = (
{
layerId = "3717E746-9C6F-47D9-B2A4-B2AE7EC69823";
name = Bold;
paths = (
{
closed = 1;
nodes = (
"637 0 LINE",
"658 196 LINE",
"616 196 LINE",
"596 174 OFFCURVE",
"560 99 OFFCURVE",
"557 59 CURVE",
"312 59 LINE",
"312 641 LINE",
"549 641 LINE",
"551 607 OFFCURVE",
"580 527 OFFCURVE",
"596 503 CURVE",
"638 503 LINE",
"638 700 LINE",
"24 700 LINE",
"24 678 LINE",
"55 667 OFFCURVE",
"89 659 OFFCURVE",
"112 655 CURVE",
"112 45 LINE",
"89 41 OFFCURVE",
"55 33 OFFCURVE",
"24 22 CURVE",
"24 0 LINE"
);
},
{
closed = 1;
nodes = (
"514 243 LINE",
"514 479 LINE",
"483 479 LINE",
"471 448 OFFCURVE",
"464 409 OFFCURVE",
"461 391 CURVE",
"238 391 LINE",
"238 332 LINE",
"461 332 LINE",
"463 315 OFFCURVE",
"472 276 OFFCURVE",
"483 243 CURVE"
);
},
{
closed = 1;
nodes = (
"420 786 LINE",
"430 859 LINE",
"485 864 OFFCURVE",
"533 883 OFFCURVE",
"533 951 CURVE SMOOTH",
"533 1025 OFFCURVE",
"463 1051 OFFCURVE",
"396 1051 CURVE SMOOTH",
"361 1051 OFFCURVE",
"327 1043 OFFCURVE",
"304 1032 CURVE",
"311 987 LINE",
"332 999 OFFCURVE",
"357 1003 OFFCURVE",
"375 1003 CURVE SMOOTH",
"418 1003 OFFCURVE",
"440 978 OFFCURVE",
"440 952 CURVE SMOOTH",
"440 910 OFFCURVE",
"405 900 OFFCURVE",
"384 900 CURVE SMOOTH",
"337 900 LINE",
"342 786 LINE"
);
}
);
width = 692;
}
);
note = Ehookabove;
unicode = 1EBA;
},
{
glyphname = Emacron;
lastChange = "2015-10-27 15:50:12 +0000";
layers = (
{
layerId = "3717E746-9C6F-47D9-B2A4-B2AE7EC69823";
name = Bold;
paths = (
{
closed = 1;
nodes = (
"637 0 LINE",
"658 196 LINE",
"616 196 LINE",
"596 174 OFFCURVE",
"560 99 OFFCURVE",
"557 59 CURVE",
"312 59 LINE",
"312 641 LINE",
"549 641 LINE",
"551 607 OFFCURVE",
"580 527 OFFCURVE",
"596 503 CURVE",
"638 503 LINE",
"638 700 LINE",
"24 700 LINE",
"24 678 LINE",
"55 667 OFFCURVE",
"89 659 OFFCURVE",
"112 655 CURVE",
"112 45 LINE",
"89 41 OFFCURVE",
"55 33 OFFCURVE",
"24 22 CURVE",
"24 0 LINE"
);
},
{
closed = 1;
nodes = (
"514 243 LINE",
"514 479 LINE",
"483 479 LINE",
"471 448 OFFCURVE",
"464 409 OFFCURVE",
"461 391 CURVE",
"238 391 LINE",
"238 332 LINE",
"461 332 LINE",
"463 315 OFFCURVE",
"472 276 OFFCURVE",
"483 243 CURVE"
);
},
{
closed = 1;
nodes = (
"604 786 LINE",
"604 843 LINE",
"176 843 LINE",
"176 786 LINE"
);
}
);
width = 692;
}
);
note = Emacron;
unicode = 0112;
},
{
glyphname = Eogonek;
lastChange = "2015-10-27 15:50:13 +0000";
layers = (
{
layerId = "3717E746-9C6F-47D9-B2A4-B2AE7EC69823";
name = Bold;
paths = (
{
closed = 1;
nodes = (
"637 0 LINE",
"658 196 LINE",
"616 196 LINE",
"596 174 OFFCURVE",
"560 99 OFFCURVE",
"557 59 CURVE",
"312 59 LINE",
"312 641 LINE",
"549 641 LINE",
"551 607 OFFCURVE",
"580 527 OFFCURVE",
"596 503 CURVE",
"638 503 LINE",
"638 700 LINE",
"24 700 LINE",
"24 678 LINE",
"55 667 OFFCURVE",
"89 659 OFFCURVE",
"112 655 CURVE",
"112 45 LINE",
"89 41 OFFCURVE",
"55 33 OFFCURVE",
"24 22 CURVE",
"24 0 LINE"
);
},
{
closed = 1;
nodes = (
"613 -218 OFFCURVE",
"665 -206 OFFCURVE",
"692 -186 CURVE",
"692 -109 LINE",
"663 -127 OFFCURVE",
"637 -134 OFFCURVE",
"617 -134 CURVE SMOOTH",
"578 -134 OFFCURVE",
"555 -110 OFFCURVE",
"555 -82 CURVE SMOOTH",
"555 -52 OFFCURVE",
"580 -17 OFFCURVE",
"599 0 CURVE",
"511 0 LINE",
"445 -17 OFFCURVE",
"409 -76 OFFCURVE",
"409 -122 CURVE SMOOTH",
"409 -184 OFFCURVE",
"466 -218 OFFCURVE",
"561 -218 CURVE SMOOTH"
);
},
{
closed = 1;
nodes = (
"514 243 LINE",
"514 479 LINE",
"483 479 LINE",
"471 448 OFFCURVE",
"464 409 OFFCURVE",
"461 391 CURVE",
"238 391 LINE",
"238 332 LINE",
"461 332 LINE",
"463 315 OFFCURVE",
"472 276 OFFCURVE",
"483 243 CURVE"
);
}
);
width = 692;
}
);
note = Eogonek;
unicode = 0118;
},
{
glyphname = Etilde;
lastChange = "2015-10-27 15:50:13 +0000";
layers = (
{
layerId = "3717E746-9C6F-47D9-B2A4-B2AE7EC69823";
name = Bold;
paths = (
{
closed = 1;
nodes = (
"637 0 LINE",
"658 196 LINE",
"616 196 LINE",
"596 174 OFFCURVE",
"560 99 OFFCURVE",
"557 59 CURVE",
"312 59 LINE",
"312 641 LINE",
"549 641 LINE",
"551 607 OFFCURVE",
"580 527 OFFCURVE",
"596 503 CURVE",
"638 503 LINE",
"638 700 LINE",
"24 700 LINE",
"24 678 LINE",
"55 667 OFFCURVE",
"89 659 OFFCURVE",
"112 655 CURVE",
"112 45 LINE",
"89 41 OFFCURVE",
"55 33 OFFCURVE",
"24 22 CURVE",
"24 0 LINE"
);
},
{
closed = 1;
nodes = (
"514 243 LINE",
"514 479 LINE",
"483 479 LINE",
"471 448 OFFCURVE",
"464 409 OFFCURVE",
"461 391 CURVE",
"238 391 LINE",
"238 332 LINE",
"461 332 LINE",
"463 315 OFFCURVE",
"472 276 OFFCURVE",
"483 243 CURVE"
);
},
{
closed = 1;
nodes = (
"242 786 LINE",
"247 817 OFFCURVE",
"264 836 OFFCURVE",
"293 836 CURVE SMOOTH",
"327 836 OFFCURVE",
"393 786 OFFCURVE",
"457 786 CURVE SMOOTH",
"547 786 OFFCURVE",
"587 839 OFFCURVE",
"594 915 CURVE",
"501 915 LINE",
"490 867 OFFCURVE",
"468 864 OFFCURVE",
"446 864 CURVE SMOOTH",
"405 864 OFFCURVE",
"368 914 OFFCURVE",
"287 914 CURVE SMOOTH",
"208 914 OFFCURVE",
"161 869 OFFCURVE",
"149 786 CURVE"
);
}
);
width = 692;
}
);
note = Etilde;
unicode = 1EBC;
},
{
glyphname = F;
lastChange = "2015-10-27 15:50:13 +0000";
layers = (
{
layerId = "3717E746-9C6F-47D9-B2A4-B2AE7EC69823";
name = Bold;
paths = (
{
closed = 1;
nodes = (
"400 0 LINE",
"400 22 LINE",
"369 33 OFFCURVE",
"335 41 OFFCURVE",
"312 45 CURVE",
"312 641 LINE",
"529 641 LINE",
"531 607 OFFCURVE",
"560 527 OFFCURVE",
"576 503 CURVE",
"618 503 LINE",
"618 700 LINE",
"24 700 LINE",
"24 678 LINE",
"55 667 OFFCURVE",
"89 659 OFFCURVE",
"112 655 CURVE",
"112 45 LINE",
"89 41 OFFCURVE",
"55 33 OFFCURVE",
"24 22 CURVE",
"24 0 LINE"
);
},
{
closed = 1;
nodes = (
"514 201 LINE",
"514 437 LINE",
"483 437 LINE",
"471 406 OFFCURVE",
"464 367 OFFCURVE",
"461 349 CURVE",
"135 349 LINE",
"135 290 LINE",
"461 290 LINE",
"463 273 OFFCURVE",
"472 234 OFFCURVE",
"483 201 CURVE"
);
}
);
width = 642;
}
);
note = F;
unicode = 0046;
},
{
glyphname = G;
lastChange = "2015-10-27 15:50:13 +0000";
layers = (
{
layerId = "3717E746-9C6F-47D9-B2A4-B2AE7EC69823";
name = Bold;
paths = (
{
closed = 1;
nodes = (
"509 -10 OFFCURVE",
"626 11 OFFCURVE",
"678 48 CURVE",
"678 295 LINE",
"690 299 OFFCURVE",
"731 314 OFFCURVE",
"747 326 CURVE",
"747 343 LINE",
"406 343 LINE",
"406 319 LINE",
"432 311 OFFCURVE",
"459 304 OFFCURVE",
"484 298 CURVE",
"484 55 LINE",
"469 53 OFFCURVE",
"446 52 OFFCURVE",
"433 52 CURVE SMOOTH",
"317 52 OFFCURVE",
"238 159 OFFCURVE",
"238 350 CURVE SMOOTH",
"238 540 OFFCURVE",
"334 648 OFFCURVE",
"459 648 CURVE SMOOTH",
"500 648 OFFCURVE",
"558 641 OFFCURVE",
"599 610 CURVE",
"604 557 OFFCURVE",
"614 507 OFFCURVE",
"627 463 CURVE",
"673 463 LINE",
"690 625 LINE",
"634 678 OFFCURVE",
"540 710 OFFCURVE",
"409 710 CURVE SMOOTH",
"171 710 OFFCURVE",
"34 572 OFFCURVE",
"34 350 CURVE SMOOTH",
"34 128 OFFCURVE",
"163 -10 OFFCURVE",
"408 -10 CURVE SMOOTH"
);
}
);
width = 756;
}
);
leftKerningGroup = G;
note = G;
unicode = 0047;
},
{
glyphname = Gbreve;
lastChange = "2015-10-27 15:50:13 +0000";
layers = (
{
layerId = "3717E746-9C6F-47D9-B2A4-B2AE7EC69823";
name = Bold;
paths = (
{
closed = 1;
nodes = (
"509 -10 OFFCURVE",
"626 11 OFFCURVE",
"678 48 CURVE",
"678 295 LINE",
"690 299 OFFCURVE",
"731 314 OFFCURVE",
"747 326 CURVE",
"747 343 LINE",
"406 343 LINE",
"406 319 LINE",
"432 311 OFFCURVE",
"459 304 OFFCURVE",
"484 298 CURVE",
"484 55 LINE",
"469 53 OFFCURVE",
"446 52 OFFCURVE",
"433 52 CURVE SMOOTH",
"317 52 OFFCURVE",
"238 159 OFFCURVE",
"238 350 CURVE SMOOTH",
"238 540 OFFCURVE",
"334 648 OFFCURVE",
"459 648 CURVE SMOOTH",
"500 648 OFFCURVE",
"558 641 OFFCURVE",
"599 610 CURVE",
"604 557 OFFCURVE",
"614 507 OFFCURVE",
"627 463 CURVE",
"673 463 LINE",
"690 625 LINE",
"634 678 OFFCURVE",
"540 710 OFFCURVE",
"409 710 CURVE SMOOTH",
"171 710 OFFCURVE",
"34 572 OFFCURVE",
"34 350 CURVE SMOOTH",
"34 128 OFFCURVE",
"163 -10 OFFCURVE",
"408 -10 CURVE SMOOTH"
);
},
{
closed = 1;
nodes = (
"521 786 OFFCURVE",
"594 831 OFFCURVE",
"612 927 CURVE",
"506 927 LINE",
"499 856 OFFCURVE",
"455 847 OFFCURVE",
"414 847 CURVE SMOOTH",
"373 847 OFFCURVE",
"329 856 OFFCURVE",
"322 927 CURVE",
"216 927 LINE",
"234 831 OFFCURVE",
"307 786 OFFCURVE",
"414 786 CURVE SMOOTH"
);
}
);
width = 756;
}
);
leftKerningGroup = G;
note = Gbreve;
unicode = 011E;
},
{
glyphname = Gcaron;
lastChange = "2015-10-27 15:50:13 +0000";
layers = (
{
layerId = "3717E746-9C6F-47D9-B2A4-B2AE7EC69823";
name = Bold;
paths = (
{
closed = 1;
nodes = (
"509 -10 OFFCURVE",
"626 11 OFFCURVE",
"678 48 CURVE",
"678 295 LINE",
"690 299 OFFCURVE",
"731 314 OFFCURVE",
"747 326 CURVE",
"747 343 LINE",
"406 343 LINE",
"406 319 LINE",
"432 311 OFFCURVE",
"459 304 OFFCURVE",
"484 298 CURVE",
"484 55 LINE",
"469 53 OFFCURVE",
"446 52 OFFCURVE",
"433 52 CURVE SMOOTH",
"317 52 OFFCURVE",
"238 159 OFFCURVE",
"238 350 CURVE SMOOTH",
"238 540 OFFCURVE",
"334 648 OFFCURVE",
"459 648 CURVE SMOOTH",
"500 648 OFFCURVE",
"558 641 OFFCURVE",
"599 610 CURVE",
"604 557 OFFCURVE",
"614 507 OFFCURVE",
"627 463 CURVE",
"673 463 LINE",
"690 625 LINE",
"634 678 OFFCURVE",
"540 710 OFFCURVE",
"409 710 CURVE SMOOTH",
"171 710 OFFCURVE",
"34 572 OFFCURVE",
"34 350 CURVE SMOOTH",
"34 128 OFFCURVE",
"163 -10 OFFCURVE",
"408 -10 CURVE SMOOTH"
);
},
{
closed = 1;
nodes = (
"332 786 OFFCURVE",
"423 786 OFFCURVE",
"423 786 CURVE",
"444 819 OFFCURVE",
"547 913 OFFCURVE",
"594 942 CURVE",
"515 997 LINE",
"471 962 OFFCURVE",
"401 892 OFFCURVE",
"379 855 CURVE",
"379 855 OFFCURVE",
"376 855 OFFCURVE",
"376 855 CURVE",
"354 892 OFFCURVE",
"284 962 OFFCURVE",
"240 997 CURVE",
"161 942 LINE",
"208 913 OFFCURVE",
"311 819 OFFCURVE",
"332 786 CURVE"
);
}
);
width = 756;
}
);
leftKerningGroup = G;
note = Gcaron;
unicode = 01E6;
},
{
glyphname = Gcircumflex;
lastChange = "2015-10-27 15:50:12 +0000";
layers = (
{
layerId = "3717E746-9C6F-47D9-B2A4-B2AE7EC69823";
name = Bold;
paths = (
{
closed = 1;
nodes = (
"509 -10 OFFCURVE",
"626 11 OFFCURVE",
"678 48 CURVE",
"678 295 LINE",
"690 299 OFFCURVE",
"731 314 OFFCURVE",
"747 326 CURVE",
"747 343 LINE",
"406 343 LINE",
"406 319 LINE",
"432 311 OFFCURVE",
"459 304 OFFCURVE",
"484 298 CURVE",
"484 55 LINE",
"469 53 OFFCURVE",
"446 52 OFFCURVE",
"433 52 CURVE SMOOTH",
"317 52 OFFCURVE",
"238 159 OFFCURVE",
"238 350 CURVE SMOOTH",
"238 540 OFFCURVE",
"334 648 OFFCURVE",
"459 648 CURVE SMOOTH",
"500 648 OFFCURVE",
"558 641 OFFCURVE",
"599 610 CURVE",
"604 557 OFFCURVE",
"614 507 OFFCURVE",
"627 463 CURVE",
"673 463 LINE",
"690 625 LINE",
"634 678 OFFCURVE",
"540 710 OFFCURVE",
"409 710 CURVE SMOOTH",
"171 710 OFFCURVE",
"34 572 OFFCURVE",
"34 350 CURVE SMOOTH",
"34 128 OFFCURVE",
"163 -10 OFFCURVE",
"408 -10 CURVE SMOOTH"
);
},
{
closed = 1;
nodes = (
"333 821 OFFCURVE",
"403 891 OFFCURVE",
"425 928 CURVE",
"425 928 OFFCURVE",
"428 928 OFFCURVE",
"428 928 CURVE",
"450 891 OFFCURVE",
"520 821 OFFCURVE",
"564 786 CURVE",
"643 841 LINE",
"596 870 OFFCURVE",
"493 964 OFFCURVE",
"472 997 CURVE",
"472 997 OFFCURVE",
"381 997 OFFCURVE",
"381 997 CURVE",
"360 964 OFFCURVE",
"257 870 OFFCURVE",
"210 841 CURVE",
"289 786 LINE"
);
}
);
width = 756;
}
);
leftKerningGroup = G;
note = Gcircumflex;
unicode = 011C;
},
{
glyphname = Gcommaaccent;
lastChange = "2015-10-27 15:50:12 +0000";
layers = (
{
layerId = "3717E746-9C6F-47D9-B2A4-B2AE7EC69823";
name = Bold;
paths = (
{
closed = 1;
nodes = (
"509 -10 OFFCURVE",
"626 11 OFFCURVE",
"678 48 CURVE",
"678 295 LINE",
"690 299 OFFCURVE",
"731 314 OFFCURVE",
"747 326 CURVE",
"747 343 LINE",
"406 343 LINE",
"406 319 LINE",
"432 311 OFFCURVE",
"459 304 OFFCURVE",
"484 298 CURVE",
"484 55 LINE",
"469 53 OFFCURVE",
"446 52 OFFCURVE",
"433 52 CURVE SMOOTH",
"317 52 OFFCURVE",
"238 159 OFFCURVE",
"238 350 CURVE SMOOTH",
"238 540 OFFCURVE",
"334 648 OFFCURVE",
"459 648 CURVE SMOOTH",
"500 648 OFFCURVE",
"558 641 OFFCURVE",
"599 610 CURVE",
"604 557 OFFCURVE",
"614 507 OFFCURVE",
"627 463 CURVE",
"673 463 LINE",
"690 625 LINE",
"634 678 OFFCURVE",
"540 710 OFFCURVE",
"409 710 CURVE SMOOTH",
"171 710 OFFCURVE",
"34 572 OFFCURVE",
"34 350 CURVE SMOOTH",
"34 128 OFFCURVE",
"163 -10 OFFCURVE",
"408 -10 CURVE SMOOTH"
);
},
{
closed = 1;
nodes = (
"466 -356 OFFCURVE",
"518 -264 OFFCURVE",
"518 -174 CURVE SMOOTH",
"518 -130 OFFCURVE",
"488 -89 OFFCURVE",
"426 -89 CURVE SMOOTH",
"380 -89 OFFCURVE",
"340 -119 OFFCURVE",
"340 -168 CURVE SMOOTH",
"340 -209 OFFCURVE",
"377 -246 OFFCURVE",
"420 -251 CURVE",
"411 -297 OFFCURVE",
"367 -344 OFFCURVE",
"342 -368 CURVE",
"401 -412 LINE"
);
}
);
width = 756;
}
);
leftKerningGroup = G;
note = Gcommaaccent;
unicode = 0122;
},
{
glyphname = Gdotaccent;
lastChange = "2015-10-27 15:50:13 +0000";
layers = (
{
layerId = "3717E746-9C6F-47D9-B2A4-B2AE7EC69823";
name = Bold;
paths = (
{
closed = 1;
nodes = (
"509 -10 OFFCURVE",
"626 11 OFFCURVE",
"678 48 CURVE",
"678 295 LINE",
"690 299 OFFCURVE",
"731 314 OFFCURVE",
"747 326 CURVE",
"747 343 LINE",
"406 343 LINE",
"406 319 LINE",
"432 311 OFFCURVE",
"459 304 OFFCURVE",
"484 298 CURVE",
"484 55 LINE",
"469 53 OFFCURVE",
"446 52 OFFCURVE",
"433 52 CURVE SMOOTH",
"317 52 OFFCURVE",
"238 159 OFFCURVE",
"238 350 CURVE SMOOTH",
"238 540 OFFCURVE",
"334 648 OFFCURVE",
"459 648 CURVE SMOOTH",
"500 648 OFFCURVE",
"558 641 OFFCURVE",
"599 610 CURVE",
"604 557 OFFCURVE",
"614 507 OFFCURVE",
"627 463 CURVE",
"673 463 LINE",
"690 625 LINE",
"634 678 OFFCURVE",
"540 710 OFFCURVE",
"409 710 CURVE SMOOTH",
"171 710 OFFCURVE",
"34 572 OFFCURVE",
"34 350 CURVE SMOOTH",
"34 128 OFFCURVE",
"163 -10 OFFCURVE",
"408 -10 CURVE SMOOTH"
);
},
{
closed = 1;
nodes = (
"479 786 OFFCURVE",
"507 818 OFFCURVE",
"507 858 CURVE SMOOTH",
"507 898 OFFCURVE",
"479 931 OFFCURVE",
"434 931 CURVE SMOOTH",
"389 931 OFFCURVE",
"362 898 OFFCURVE",
"362 858 CURVE SMOOTH",
"362 818 OFFCURVE",
"389 786 OFFCURVE",
"434 786 CURVE SMOOTH"
);
}
);
width = 756;
}
);
leftKerningGroup = G;
note = Gdotaccent;
unicode = 0120;
},
{
glyphname = Gmacron;
lastChange = "2015-10-27 15:50:13 +0000";
layers = (
{
layerId = "3717E746-9C6F-47D9-B2A4-B2AE7EC69823";
name = Bold;
paths = (
{
closed = 1;
nodes = (
"509 -10 OFFCURVE",
"626 11 OFFCURVE",
"678 48 CURVE",
"678 295 LINE",
"690 299 OFFCURVE",
"731 314 OFFCURVE",
"747 326 CURVE",
"747 343 LINE",
"406 343 LINE",
"406 319 LINE",
"432 311 OFFCURVE",
"459 304 OFFCURVE",
"484 298 CURVE",
"484 55 LINE",
"469 53 OFFCURVE",
"446 52 OFFCURVE",
"433 52 CURVE SMOOTH",
"317 52 OFFCURVE",
"238 159 OFFCURVE",
"238 350 CURVE SMOOTH",
"238 540 OFFCURVE",
"334 648 OFFCURVE",
"459 648 CURVE SMOOTH",
"500 648 OFFCURVE",
"558 641 OFFCURVE",
"599 610 CURVE",
"604 557 OFFCURVE",
"614 507 OFFCURVE",
"627 463 CURVE",
"673 463 LINE",
"690 625 LINE",
"634 678 OFFCURVE",
"540 710 OFFCURVE",
"409 710 CURVE SMOOTH",
"171 710 OFFCURVE",
"34 572 OFFCURVE",
"34 350 CURVE SMOOTH",
"34 128 OFFCURVE",
"163 -10 OFFCURVE",
"408 -10 CURVE SMOOTH"
);
},
{
closed = 1;
nodes = (
"592 786 LINE",
"592 843 LINE",
"164 843 LINE",
"164 786 LINE"
);
}
);
width = 756;
}
);
leftKerningGroup = G;
note = Gmacron;
unicode = 1E20;
},
{
glyphname = H;
lastChange = "2015-10-27 15:50:13 +0000";
layers = (
{
layerId = "3717E746-9C6F-47D9-B2A4-B2AE7EC69823";
name = Bold;
paths = (
{
closed = 1;
nodes = (
"827 0 LINE",
"827 22 LINE",
"795 33 OFFCURVE",
"772 40 OFFCURVE",
"748 45 CURVE",
"748 652 LINE",
"759 654 OFFCURVE",
"794 666 OFFCURVE",
"827 676 CURVE",
"827 700 LINE",
"472 700 LINE",
"472 678 LINE",
"501 669 OFFCURVE",
"526 661 OFFCURVE",
"548 656 CURVE",
"548 47 LINE",
"543 45 OFFCURVE",
"540 46 OFFCURVE",
"472 19 CURVE",
"472 0 LINE"
);
},
{
closed = 1;
nodes = (
"378 0 LINE",
"378 22 LINE",
"349 31 OFFCURVE",
"324 39 OFFCURVE",
"302 44 CURVE",
"302 653 LINE",
"307 655 OFFCURVE",
"310 654 OFFCURVE",
"378 681 CURVE",
"378 700 LINE",
"24 700 LINE",
"24 678 LINE",
"55 667 OFFCURVE",
"78 660 OFFCURVE",
"102 655 CURVE",
"102 48 LINE",
"91 46 OFFCURVE",
"56 34 OFFCURVE",
"24 24 CURVE",
"24 0 LINE"
);
},
{
closed = 1;
nodes = (
"645 326 LINE",
"645 385 LINE",
"207 385 LINE",
"207 326 LINE"
);
}
);
width = 851;
}
);
note = H;
unicode = 0048;
},
{
glyphname = Hbar;
lastChange = "2015-10-27 15:50:13 +0000";
layers = (
{
layerId = "3717E746-9C6F-47D9-B2A4-B2AE7EC69823";
name = Bold;
paths = (
{
closed = 1;
nodes = (
"827 0 LINE",
"827 22 LINE",
"795 33 OFFCURVE",
"772 40 OFFCURVE",
"748 45 CURVE",
"748 652 LINE",
"759 654 OFFCURVE",
"794 666 OFFCURVE",
"827 676 CURVE",
"827 700 LINE",
"472 700 LINE",
"472 678 LINE",
"501 669 OFFCURVE",
"526 661 OFFCURVE",
"548 656 CURVE",
"548 47 LINE",
"543 45 OFFCURVE",
"540 46 OFFCURVE",
"472 19 CURVE",
"472 0 LINE"
);
},
{
closed = 1;
nodes = (
"378 0 LINE",
"378 22 LINE",
"349 31 OFFCURVE",
"324 39 OFFCURVE",
"302 44 CURVE",
"302 653 LINE",
"307 655 OFFCURVE",
"310 654 OFFCURVE",
"378 681 CURVE",
"378 700 LINE",
"24 700 LINE",
"24 678 LINE",
"55 667 OFFCURVE",
"78 660 OFFCURVE",
"102 655 CURVE",
"102 48 LINE",
"91 46 OFFCURVE",
"56 34 OFFCURVE",
"24 24 CURVE",
"24 0 LINE"
);
},
{
closed = 1;
nodes = (
"645 326 LINE",
"645 385 LINE",
"207 385 LINE",
"207 326 LINE"
);
},
{
closed = 1;
nodes = (
"808 487 LINE",
"808 546 LINE",
"42 546 LINE",
"42 487 LINE"
);
}
);
width = 851;
}
);
note = Hbar;
unicode = 0126;
},
{
glyphname = Hbrevebelow;
lastChange = "2015-10-27 15:50:12 +0000";
layers = (
{
layerId = "3717E746-9C6F-47D9-B2A4-B2AE7EC69823";
name = Bold;
paths = (
{
closed = 1;
nodes = (
"827 0 LINE",
"827 22 LINE",
"795 33 OFFCURVE",
"772 40 OFFCURVE",
"748 45 CURVE",
"748 652 LINE",
"759 654 OFFCURVE",
"794 666 OFFCURVE",
"827 676 CURVE",
"827 700 LINE",
"472 700 LINE",
"472 678 LINE",
"501 669 OFFCURVE",
"526 661 OFFCURVE",
"548 656 CURVE",
"548 47 LINE",
"543 45 OFFCURVE",
"540 46 OFFCURVE",
"472 19 CURVE",
"472 0 LINE"
);
},
{
closed = 1;
nodes = (
"532 -191 OFFCURVE",
"605 -146 OFFCURVE",
"623 -50 CURVE",
"517 -50 LINE",
"510 -121 OFFCURVE",
"466 -130 OFFCURVE",
"425 -130 CURVE SMOOTH",
"384 -130 OFFCURVE",
"340 -121 OFFCURVE",
"333 -50 CURVE",
"227 -50 LINE",
"245 -146 OFFCURVE",
"318 -191 OFFCURVE",
"425 -191 CURVE SMOOTH"
);
},
{
closed = 1;
nodes = (
"378 0 LINE",
"378 22 LINE",
"349 31 OFFCURVE",
"324 39 OFFCURVE",
"302 44 CURVE",
"302 653 LINE",
"307 655 OFFCURVE",
"310 654 OFFCURVE",
"378 681 CURVE",
"378 700 LINE",
"24 700 LINE",
"24 678 LINE",
"55 667 OFFCURVE",
"78 660 OFFCURVE",
"102 655 CURVE",
"102 48 LINE",
"91 46 OFFCURVE",
"56 34 OFFCURVE",
"24 24 CURVE",
"24 0 LINE"
);
},
{
closed = 1;
nodes = (
"645 326 LINE",
"645 385 LINE",
"207 385 LINE",
"207 326 LINE"
);
}
);
width = 851;
}
);
note = Hbrevebelow;
unicode = 1E2A;
},
{
glyphname = Hcircumflex;
lastChange = "2015-10-27 15:50:13 +0000";
layers = (
{
layerId = "3717E746-9C6F-47D9-B2A4-B2AE7EC69823";
name = Bold;
paths = (
{
closed = 1;
nodes = (
"827 0 LINE",
"827 22 LINE",
"795 33 OFFCURVE",
"772 40 OFFCURVE",
"748 45 CURVE",
"748 652 LINE",
"759 654 OFFCURVE",
"794 666 OFFCURVE",
"827 676 CURVE",
"827 700 LINE",
"472 700 LINE",
"472 678 LINE",
"501 669 OFFCURVE",
"526 661 OFFCURVE",
"548 656 CURVE",
"548 47 LINE",
"543 45 OFFCURVE",
"540 46 OFFCURVE",
"472 19 CURVE",
"472 0 LINE"
);
},
{
closed = 1;
nodes = (
"378 0 LINE",
"378 22 LINE",
"349 31 OFFCURVE",
"324 39 OFFCURVE",
"302 44 CURVE",
"302 653 LINE",
"307 655 OFFCURVE",
"310 654 OFFCURVE",
"378 681 CURVE",
"378 700 LINE",
"24 700 LINE",
"24 678 LINE",
"55 667 OFFCURVE",
"78 660 OFFCURVE",
"102 655 CURVE",
"102 48 LINE",
"91 46 OFFCURVE",
"56 34 OFFCURVE",
"24 24 CURVE",
"24 0 LINE"
);
},
{
closed = 1;
nodes = (
"645 326 LINE",
"645 385 LINE",
"207 385 LINE",
"207 326 LINE"
);
},
{
closed = 1;
nodes = (
"332 821 OFFCURVE",
"402 891 OFFCURVE",
"424 928 CURVE",
"424 928 OFFCURVE",
"427 928 OFFCURVE",
"427 928 CURVE",
"449 891 OFFCURVE",
"519 821 OFFCURVE",
"563 786 CURVE",
"642 841 LINE",
"595 870 OFFCURVE",
"492 964 OFFCURVE",
"471 997 CURVE",
"471 997 OFFCURVE",
"380 997 OFFCURVE",
"380 997 CURVE",
"359 964 OFFCURVE",
"256 870 OFFCURVE",
"209 841 CURVE",
"288 786 LINE"
);
}
);
width = 851;
}
);
note = Hcircumflex;
unicode = 0124;
},
{
glyphname = Hdotbelow;
lastChange = "2015-10-27 15:50:13 +0000";
layers = (
{
layerId = "3717E746-9C6F-47D9-B2A4-B2AE7EC69823";
name = Bold;
paths = (
{
closed = 1;
nodes = (
"827 0 LINE",
"827 22 LINE",
"795 33 OFFCURVE",
"772 40 OFFCURVE",
"748 45 CURVE",
"748 652 LINE",
"759 654 OFFCURVE",
"794 666 OFFCURVE",
"827 676 CURVE",
"827 700 LINE",
"472 700 LINE",
"472 678 LINE",
"501 669 OFFCURVE",
"526 661 OFFCURVE",
"548 656 CURVE",
"548 47 LINE",
"543 45 OFFCURVE",
"540 46 OFFCURVE",
"472 19 CURVE",
"472 0 LINE"
);
},
{
closed = 1;
nodes = (
"470 -195 OFFCURVE",
"498 -163 OFFCURVE",
"498 -123 CURVE SMOOTH",
"498 -83 OFFCURVE",
"470 -50 OFFCURVE",
"425 -50 CURVE SMOOTH",
"380 -50 OFFCURVE",
"353 -83 OFFCURVE",
"353 -123 CURVE SMOOTH",
"353 -163 OFFCURVE",
"380 -195 OFFCURVE",
"425 -195 CURVE SMOOTH"
);
},
{
closed = 1;
nodes = (
"378 0 LINE",
"378 22 LINE",
"349 31 OFFCURVE",
"324 39 OFFCURVE",
"302 44 CURVE",
"302 653 LINE",
"307 655 OFFCURVE",
"310 654 OFFCURVE",
"378 681 CURVE",
"378 700 LINE",
"24 700 LINE",
"24 678 LINE",
"55 667 OFFCURVE",
"78 660 OFFCURVE",
"102 655 CURVE",
"102 48 LINE",
"91 46 OFFCURVE",
"56 34 OFFCURVE",
"24 24 CURVE",
"24 0 LINE"
);
},
{
closed = 1;
nodes = (
"645 326 LINE",
"645 385 LINE",
"207 385 LINE",
"207 326 LINE"
);
}
);
width = 851;
}
);
note = Hdotbelow;
unicode = 1E24;
},
{
glyphname = I;
lastChange = "2015-10-27 15:50:13 +0000";
layers = (
{
layerId = "3717E746-9C6F-47D9-B2A4-B2AE7EC69823";
name = Bold;
paths = (
{
closed = 1;
nodes = (
"383 0 LINE",
"383 23 LINE",
"355 31 OFFCURVE",
"325 41 OFFCURVE",
"303 45 CURVE",
"303 653 LINE",
"383 675 LINE",
"383 700 LINE",
"24 700 LINE",
"24 677 LINE",
"51 669 OFFCURVE",
"82 659 OFFCURVE",
"103 655 CURVE",
"103 47 LINE",
"24 25 LINE",
"24 0 LINE"
);
}
);
width = 407;
}
);
note = I;
unicode = 0049;
},
{
glyphname = IJ;
lastChange = "2015-10-27 15:50:12 +0000";
layers = (
{
layerId = "3717E746-9C6F-47D9-B2A4-B2AE7EC69823";
name = Bold;
paths = (
{
closed = 1;
nodes = (
"730 -10 OFFCURVE",
"849 39 OFFCURVE",
"849 176 CURVE SMOOTH",
"849 652 LINE",
"859 654 OFFCURVE",
"894 666 OFFCURVE",
"926 676 CURVE",
"926 700 LINE",
"571 700 LINE",
"571 676 LINE",
"598 667 OFFCURVE",
"620 659 OFFCURVE",
"649 653 CURVE",
"649 165 LINE SMOOTH",
"649 89 OFFCURVE",
"604 62 OFFCURVE",
"556 62 CURVE SMOOTH",
"512 62 OFFCURVE",
"466 82 OFFCURVE",
"441 102 CURVE",
"412 54 LINE",
"460 12 OFFCURVE",
"541 -10 OFFCURVE",
"614 -10 CURVE SMOOTH"
);
},
{
closed = 1;
nodes = (
"383 0 LINE",
"383 23 LINE",
"355 31 OFFCURVE",
"325 41 OFFCURVE",
"303 45 CURVE",
"303 653 LINE",
"383 675 LINE",
"383 700 LINE",
"24 700 LINE",
"24 677 LINE",
"51 669 OFFCURVE",
"82 659 OFFCURVE",
"103 655 CURVE",
"103 47 LINE",
"24 25 LINE",
"24 0 LINE"
);
}
);
width = 950;
}
);
note = IJ;
rightKerningGroup = J;
unicode = 0132;
},
{
glyphname = Iacute;
lastChange = "2015-10-27 15:50:12 +0000";
layers = (
{
layerId = "3717E746-9C6F-47D9-B2A4-B2AE7EC69823";
name = Bold;
paths = (
{
closed = 1;
nodes = (
"383 0 LINE",
"383 23 LINE",
"355 31 OFFCURVE",
"325 41 OFFCURVE",
"303 45 CURVE",
"303 653 LINE",
"383 675 LINE",
"383 700 LINE",
"24 700 LINE",
"24 677 LINE",
"51 669 OFFCURVE",
"82 659 OFFCURVE",
"103 655 CURVE",
"103 47 LINE",
"24 25 LINE",
"24 0 LINE"
);
},
{
closed = 1;
nodes = (
"273 886 LINE SMOOTH",
"312 909 OFFCURVE",
"334 931 OFFCURVE",
"334 960 CURVE SMOOTH",
"334 982 OFFCURVE",
"317 1011 OFFCURVE",
"273 1011 CURVE SMOOTH",
"232 1011 OFFCURVE",
"202 975 OFFCURVE",
"197 969 CURVE",
"70 830 LINE",
"101 786 LINE"
);
}
);
width = 407;
}
);
note = Iacute;
unicode = 00CD;
},
{
glyphname = Ibreve;
lastChange = "2015-10-27 15:50:12 +0000";
layers = (
{
layerId = "3717E746-9C6F-47D9-B2A4-B2AE7EC69823";
name = Bold;
paths = (
{
closed = 1;
nodes = (
"383 0 LINE",
"383 23 LINE",
"355 31 OFFCURVE",
"325 41 OFFCURVE",
"303 45 CURVE",
"303 653 LINE",
"383 675 LINE",
"383 700 LINE",
"24 700 LINE",
"24 677 LINE",
"51 669 OFFCURVE",
"82 659 OFFCURVE",
"103 655 CURVE",
"103 47 LINE",
"24 25 LINE",
"24 0 LINE"
);
},
{
closed = 1;
nodes = (
"310 786 OFFCURVE",
"383 831 OFFCURVE",
"401 927 CURVE",
"295 927 LINE",
"288 856 OFFCURVE",
"244 847 OFFCURVE",
"203 847 CURVE SMOOTH",
"162 847 OFFCURVE",
"118 856 OFFCURVE",
"111 927 CURVE",
"5 927 LINE",
"23 831 OFFCURVE",
"96 786 OFFCURVE",
"203 786 CURVE SMOOTH"
);
}
);
width = 407;
}
);
note = Ibreve;
unicode = 012C;
},
{
glyphname = Icaron;
lastChange = "2015-10-27 15:50:12 +0000";
layers = (
{
layerId = "3717E746-9C6F-47D9-B2A4-B2AE7EC69823";
name = Bold;
paths = (
{
closed = 1;
nodes = (
"383 0 LINE",
"383 23 LINE",
"355 31 OFFCURVE",
"325 41 OFFCURVE",
"303 45 CURVE",
"303 653 LINE",
"383 675 LINE",
"383 700 LINE",
"24 700 LINE",
"24 677 LINE",
"51 669 OFFCURVE",
"82 659 OFFCURVE",
"103 655 CURVE",
"103 47 LINE",
"24 25 LINE",
"24 0 LINE"
);
},
{
closed = 1;
nodes = (
"158 786 OFFCURVE",
"249 786 OFFCURVE",
"249 786 CURVE",
"270 819 OFFCURVE",
"373 913 OFFCURVE",
"420 942 CURVE",
"341 997 LINE",
"297 962 OFFCURVE",
"227 892 OFFCURVE",
"205 855 CURVE",
"205 855 OFFCURVE",
"202 855 OFFCURVE",
"202 855 CURVE",
"180 892 OFFCURVE",
"110 962 OFFCURVE",
"66 997 CURVE",
"-13 942 LINE",
"34 913 OFFCURVE",
"137 819 OFFCURVE",
"158 786 CURVE"
);
}
);
width = 407;
}
);
note = Icaron;
unicode = 01CF;
},
{
glyphname = Icircumflex;
lastChange = "2015-10-27 15:50:12 +0000";
layers = (
{
layerId = "3717E746-9C6F-47D9-B2A4-B2AE7EC69823";
name = Bold;
paths = (
{
closed = 1;
nodes = (
"383 0 LINE",
"383 23 LINE",
"355 31 OFFCURVE",
"325 41 OFFCURVE",
"303 45 CURVE",
"303 653 LINE",
"383 675 LINE",
"383 700 LINE",
"24 700 LINE",
"24 677 LINE",
"51 669 OFFCURVE",
"82 659 OFFCURVE",
"103 655 CURVE",
"103 47 LINE",
"24 25 LINE",
"24 0 LINE"
);
},
{
closed = 1;
nodes = (
"110 821 OFFCURVE",
"180 891 OFFCURVE",
"202 928 CURVE",
"202 928 OFFCURVE",
"205 928 OFFCURVE",
"205 928 CURVE",
"227 891 OFFCURVE",
"297 821 OFFCURVE",
"341 786 CURVE",
"420 841 LINE",
"373 870 OFFCURVE",
"270 964 OFFCURVE",
"249 997 CURVE",
"249 997 OFFCURVE",
"158 997 OFFCURVE",
"158 997 CURVE",
"137 964 OFFCURVE",
"34 870 OFFCURVE",
"-13 841 CURVE",
"66 786 LINE"
);
}
);
width = 407;
}
);
note = Icircumflex;
unicode = 00CE;
},
{
glyphname = Idieresis;
lastChange = "2015-10-27 15:50:13 +0000";
layers = (
{
layerId = "3717E746-9C6F-47D9-B2A4-B2AE7EC69823";
name = Bold;
paths = (
{
closed = 1;
nodes = (
"383 0 LINE",
"383 23 LINE",
"355 31 OFFCURVE",
"325 41 OFFCURVE",
"303 45 CURVE",
"303 653 LINE",
"383 675 LINE",
"383 700 LINE",
"24 700 LINE",
"24 677 LINE",
"51 669 OFFCURVE",
"82 659 OFFCURVE",
"103 655 CURVE",
"103 47 LINE",
"24 25 LINE",
"24 0 LINE"
);
},
{
closed = 1;
nodes = (
"121 786 OFFCURVE",
"149 818 OFFCURVE",
"149 858 CURVE SMOOTH",
"149 898 OFFCURVE",
"121 931 OFFCURVE",
"76 931 CURVE SMOOTH",
"31 931 OFFCURVE",
"4 898 OFFCURVE",
"4 858 CURVE SMOOTH",
"4 818 OFFCURVE",
"31 786 OFFCURVE",
"76 786 CURVE SMOOTH"
);
},
{
closed = 1;
nodes = (
"374 786 OFFCURVE",
"402 818 OFFCURVE",
"402 858 CURVE SMOOTH",
"402 898 OFFCURVE",
"374 931 OFFCURVE",
"329 931 CURVE SMOOTH",
"284 931 OFFCURVE",
"257 898 OFFCURVE",
"257 858 CURVE SMOOTH",
"257 818 OFFCURVE",
"284 786 OFFCURVE",
"329 786 CURVE SMOOTH"
);
}
);
width = 407;
}
);
note = Idieresis;
unicode = 00CF;
},
{
glyphname = Idotaccent;
lastChange = "2015-10-27 15:50:12 +0000";
layers = (
{
layerId = "3717E746-9C6F-47D9-B2A4-B2AE7EC69823";
name = Bold;
paths = (
{
closed = 1;
nodes = (
"383 0 LINE",
"383 23 LINE",
"355 31 OFFCURVE",
"325 41 OFFCURVE",
"303 45 CURVE",
"303 653 LINE",
"383 675 LINE",
"383 700 LINE",
"24 700 LINE",
"24 677 LINE",
"51 669 OFFCURVE",
"82 659 OFFCURVE",
"103 655 CURVE",
"103 47 LINE",
"24 25 LINE",
"24 0 LINE"
);
},
{
closed = 1;
nodes = (
"246 786 OFFCURVE",
"274 818 OFFCURVE",
"274 858 CURVE SMOOTH",
"274 898 OFFCURVE",
"246 931 OFFCURVE",
"201 931 CURVE SMOOTH",
"156 931 OFFCURVE",
"129 898 OFFCURVE",
"129 858 CURVE SMOOTH",
"129 818 OFFCURVE",
"156 786 OFFCURVE",
"201 786 CURVE SMOOTH"
);
}
);
width = 407;
}
);
note = Idotaccent;
unicode = 0130;
},
{
glyphname = Idotbelow;
lastChange = "2015-10-27 15:50:12 +0000";
layers = (
{
layerId = "3717E746-9C6F-47D9-B2A4-B2AE7EC69823";
name = Bold;
paths = (
{
closed = 1;
nodes = (
"383 0 LINE",
"383 23 LINE",
"355 31 OFFCURVE",
"325 41 OFFCURVE",
"303 45 CURVE",
"303 653 LINE",
"383 675 LINE",
"383 700 LINE",
"24 700 LINE",
"24 677 LINE",
"51 669 OFFCURVE",
"82 659 OFFCURVE",
"103 655 CURVE",
"103 47 LINE",
"24 25 LINE",
"24 0 LINE"
);
},
{
closed = 1;
nodes = (
"248 -195 OFFCURVE",
"276 -163 OFFCURVE",
"276 -123 CURVE SMOOTH",
"276 -83 OFFCURVE",
"248 -50 OFFCURVE",
"203 -50 CURVE SMOOTH",
"158 -50 OFFCURVE",
"131 -83 OFFCURVE",
"131 -123 CURVE SMOOTH",
"131 -163 OFFCURVE",
"158 -195 OFFCURVE",
"203 -195 CURVE SMOOTH"
);
}
);
width = 407;
}
);
note = Idotbelow;
unicode = 1ECA;
},
{
glyphname = Igrave;
lastChange = "2015-10-27 15:50:13 +0000";
layers = (
{
layerId = "3717E746-9C6F-47D9-B2A4-B2AE7EC69823";
name = Bold;
paths = (
{
closed = 1;
nodes = (
"383 0 LINE",
"383 23 LINE",
"355 31 OFFCURVE",
"325 41 OFFCURVE",
"303 45 CURVE",
"303 653 LINE",
"383 675 LINE",
"383 700 LINE",
"24 700 LINE",
"24 677 LINE",
"51 669 OFFCURVE",
"82 659 OFFCURVE",
"103 655 CURVE",
"103 47 LINE",
"24 25 LINE",
"24 0 LINE"
);
},
{
closed = 1;
nodes = (
"334 830 LINE",
"207 969 LINE",
"202 975 OFFCURVE",
"172 1011 OFFCURVE",
"131 1011 CURVE SMOOTH",
"87 1011 OFFCURVE",
"70 982 OFFCURVE",
"70 960 CURVE SMOOTH",
"70 931 OFFCURVE",
"92 909 OFFCURVE",
"131 886 CURVE SMOOTH",
"303 786 LINE"
);
}
);
width = 407;
}
);
note = Igrave;
unicode = 00CC;
},
{
glyphname = Ihookabove;
lastChange = "2015-10-27 15:50:12 +0000";
layers = (
{
layerId = "3717E746-9C6F-47D9-B2A4-B2AE7EC69823";
name = Bold;
paths = (
{
closed = 1;
nodes = (
"383 0 LINE",
"383 23 LINE",
"355 31 OFFCURVE",
"325 41 OFFCURVE",
"303 45 CURVE",
"303 653 LINE",
"383 675 LINE",
"383 700 LINE",
"24 700 LINE",
"24 677 LINE",
"51 669 OFFCURVE",
"82 659 OFFCURVE",
"103 655 CURVE",
"103 47 LINE",
"24 25 LINE",
"24 0 LINE"
);
},
{
closed = 1;
nodes = (
"249 786 LINE",
"259 859 LINE",
"314 864 OFFCURVE",
"362 883 OFFCURVE",
"362 951 CURVE SMOOTH",
"362 1025 OFFCURVE",
"292 1051 OFFCURVE",
"225 1051 CURVE SMOOTH",
"190 1051 OFFCURVE",
"156 1043 OFFCURVE",
"133 1032 CURVE",
"140 987 LINE",
"161 999 OFFCURVE",
"186 1003 OFFCURVE",
"204 1003 CURVE SMOOTH",
"247 1003 OFFCURVE",
"269 978 OFFCURVE",
"269 952 CURVE SMOOTH",
"269 910 OFFCURVE",
"234 900 OFFCURVE",
"213 900 CURVE SMOOTH",
"166 900 LINE",
"171 786 LINE"
);
}
);
width = 407;
}
);
note = Ihookabove;
unicode = 1EC8;
},
{
glyphname = Imacron;
lastChange = "2015-11-29 22:41:25 +0000";
layers = (
{
layerId = "3717E746-9C6F-47D9-B2A4-B2AE7EC69823";
name = Bold;
paths = (
{
closed = 1;
nodes = (
"383 0 LINE",
"383 23 LINE",
"355 31 OFFCURVE",
"325 41 OFFCURVE",
"303 45 CURVE",
"303 653 LINE",
"383 675 LINE",
"383 700 LINE",
"24 700 LINE",
"24 677 LINE",
"51 669 OFFCURVE",
"82 659 OFFCURVE",
"103 655 CURVE",
"103 47 LINE",
"24 25 LINE",
"24 0 LINE"
);
},
{
closed = 1;
nodes = (
"451 785 LINE",
"451 843 LINE",
"-23 843 LINE",
"-23 785 LINE"
);
}
);
width = 407;
}
);
note = Imacron;
unicode = 012A;
},
{
glyphname = Iogonek;
lastChange = "2015-10-27 15:50:13 +0000";
layers = (
{
layerId = "3717E746-9C6F-47D9-B2A4-B2AE7EC69823";
name = Bold;
paths = (
{
closed = 1;
nodes = (
"383 0 LINE",
"383 23 LINE",
"355 31 OFFCURVE",
"325 41 OFFCURVE",
"303 45 CURVE",
"303 653 LINE",
"383 675 LINE",
"383 700 LINE",
"24 700 LINE",
"24 677 LINE",
"51 669 OFFCURVE",
"82 659 OFFCURVE",
"103 655 CURVE",
"103 47 LINE",
"24 25 LINE",
"24 0 LINE"
);
},
{
closed = 1;
nodes = (
"386 -218 OFFCURVE",
"438 -206 OFFCURVE",
"465 -186 CURVE",
"465 -109 LINE",
"436 -127 OFFCURVE",
"410 -134 OFFCURVE",
"390 -134 CURVE SMOOTH",
"351 -134 OFFCURVE",
"328 -110 OFFCURVE",
"328 -82 CURVE SMOOTH",
"328 -52 OFFCURVE",
"353 -17 OFFCURVE",
"372 0 CURVE",
"284 0 LINE",
"218 -17 OFFCURVE",
"182 -76 OFFCURVE",
"182 -122 CURVE SMOOTH",
"182 -184 OFFCURVE",
"239 -218 OFFCURVE",
"334 -218 CURVE SMOOTH"
);
}
);
width = 407;
}
);
note = Iogonek;
unicode = 012E;
},
{
glyphname = Itilde;
lastChange = "2015-10-27 15:50:13 +0000";
layers = (
{
layerId = "3717E746-9C6F-47D9-B2A4-B2AE7EC69823";
name = Bold;
paths = (
{
closed = 1;
nodes = (
"383 0 LINE",
"383 23 LINE",
"355 31 OFFCURVE",
"325 41 OFFCURVE",
"303 45 CURVE",
"303 653 LINE",
"383 675 LINE",
"383 700 LINE",
"24 700 LINE",
"24 677 LINE",
"51 669 OFFCURVE",
"82 659 OFFCURVE",
"103 655 CURVE",
"103 47 LINE",
"24 25 LINE",
"24 0 LINE"
);
},
{
closed = 1;
nodes = (
"74 786 LINE",
"79 817 OFFCURVE",
"96 836 OFFCURVE",
"125 836 CURVE SMOOTH",
"159 836 OFFCURVE",
"225 786 OFFCURVE",
"289 786 CURVE SMOOTH",
"379 786 OFFCURVE",
"419 839 OFFCURVE",
"426 915 CURVE",
"333 915 LINE",
"322 867 OFFCURVE",
"300 864 OFFCURVE",
"278 864 CURVE SMOOTH",
"237 864 OFFCURVE",
"200 914 OFFCURVE",
"119 914 CURVE SMOOTH",
"40 914 OFFCURVE",
"-7 869 OFFCURVE",
"-19 786 CURVE"
);
}
);
width = 407;
}
);
note = Itilde;
unicode = 0128;
},
{
glyphname = J;
lastChange = "2015-10-27 15:50:13 +0000";
layers = (
{
layerId = "3717E746-9C6F-47D9-B2A4-B2AE7EC69823";
name = Bold;
paths = (
{
closed = 1;
nodes = (
"334 -10 OFFCURVE",
"453 39 OFFCURVE",
"453 176 CURVE SMOOTH",
"453 652 LINE",
"463 654 OFFCURVE",
"498 666 OFFCURVE",
"530 676 CURVE",
"530 700 LINE",
"175 700 LINE",
"175 676 LINE",
"202 667 OFFCURVE",
"224 659 OFFCURVE",
"253 653 CURVE",
"253 165 LINE SMOOTH",
"253 89 OFFCURVE",
"208 62 OFFCURVE",
"160 62 CURVE SMOOTH",
"116 62 OFFCURVE",
"70 82 OFFCURVE",
"45 102 CURVE",
"16 54 LINE",
"64 12 OFFCURVE",
"145 -10 OFFCURVE",
"218 -10 CURVE SMOOTH"
);
}
);
width = 554;
}
);
leftKerningGroup = J;
note = J;
rightKerningGroup = J;
unicode = 004A;
},
{
glyphname = Jcircumflex;
lastChange = "2015-10-27 15:50:13 +0000";
layers = (
{
layerId = "3717E746-9C6F-47D9-B2A4-B2AE7EC69823";
name = Bold;
paths = (
{
closed = 1;
nodes = (
"334 -10 OFFCURVE",
"453 39 OFFCURVE",
"453 176 CURVE SMOOTH",
"453 652 LINE",
"463 654 OFFCURVE",
"498 666 OFFCURVE",
"530 676 CURVE",
"530 700 LINE",
"175 700 LINE",
"175 676 LINE",
"202 667 OFFCURVE",
"224 659 OFFCURVE",
"253 653 CURVE",
"253 165 LINE SMOOTH",
"253 89 OFFCURVE",
"208 62 OFFCURVE",
"160 62 CURVE SMOOTH",
"116 62 OFFCURVE",
"70 82 OFFCURVE",
"45 102 CURVE",
"16 54 LINE",
"64 12 OFFCURVE",
"145 -10 OFFCURVE",
"218 -10 CURVE SMOOTH"
);
},
{
closed = 1;
nodes = (
"259 821 OFFCURVE",
"329 891 OFFCURVE",
"351 928 CURVE",
"351 928 OFFCURVE",
"354 928 OFFCURVE",
"354 928 CURVE",
"376 891 OFFCURVE",
"446 821 OFFCURVE",
"490 786 CURVE",
"569 841 LINE",
"522 870 OFFCURVE",
"419 964 OFFCURVE",
"398 997 CURVE",
"398 997 OFFCURVE",
"307 997 OFFCURVE",
"307 997 CURVE",
"286 964 OFFCURVE",
"183 870 OFFCURVE",
"136 841 CURVE",
"215 786 LINE"
);
}
);
width = 554;
}
);
leftKerningGroup = J;
note = Jcircumflex;
rightKerningGroup = J;
unicode = 0134;
},
{
glyphname = K;
lastChange = "2015-10-27 15:50:12 +0000";
layers = (
{
layerId = "3717E746-9C6F-47D9-B2A4-B2AE7EC69823";
name = Bold;
paths = (
{
closed = 1;
nodes = (
"693 641 LINE SMOOTH",
"712 661 OFFCURVE",
"750 661 OFFCURVE",
"776 669 CURVE",
"776 700 LINE",
"523 700 LINE",
"523 669 LINE",
"606 654 LINE",
"236 274 LINE",
"236 171 LINE"
);
},
{
closed = 1;
nodes = (
"382 0 LINE",
"382 23 LINE",
"355 31 OFFCURVE",
"325 41 OFFCURVE",
"303 45 CURVE",
"303 653 LINE",
"382 675 LINE",
"382 700 LINE",
"24 700 LINE",
"24 678 LINE",
"53 668 OFFCURVE",
"81 660 OFFCURVE",
"103 655 CURVE",
"103 47 LINE",
"103 47 OFFCURVE",
"53 33 OFFCURVE",
"24 25 CURVE",
"24 0 LINE"
);
},
{
closed = 1;
nodes = (
"848 0 LINE",
"848 23 LINE",
"811 34 OFFCURVE",
"782 41 OFFCURVE",
"758 46 CURVE",
"467 448 LINE",
"351 329 LINE",
"584 0 LINE"
);
}
);
width = 851;
}
);
note = K;
rightKerningGroup = K;
unicode = 004B;
},
{
glyphname = Kcommaaccent;
lastChange = "2015-10-27 15:50:12 +0000";
layers = (
{
layerId = "3717E746-9C6F-47D9-B2A4-B2AE7EC69823";
name = Bold;
paths = (
{
closed = 1;
nodes = (
"693 641 LINE SMOOTH",
"712 661 OFFCURVE",
"750 661 OFFCURVE",
"776 669 CURVE",
"776 700 LINE",
"523 700 LINE",
"523 669 LINE",
"606 654 LINE",
"236 274 LINE",
"236 171 LINE"
);
},
{
closed = 1;
nodes = (
"474 -356 OFFCURVE",
"526 -264 OFFCURVE",
"526 -174 CURVE SMOOTH",
"526 -130 OFFCURVE",
"496 -89 OFFCURVE",
"434 -89 CURVE SMOOTH",
"388 -89 OFFCURVE",
"348 -119 OFFCURVE",
"348 -168 CURVE SMOOTH",
"348 -209 OFFCURVE",
"385 -246 OFFCURVE",
"428 -251 CURVE",
"419 -297 OFFCURVE",
"375 -344 OFFCURVE",
"350 -368 CURVE",
"409 -412 LINE"
);
},
{
closed = 1;
nodes = (
"382 0 LINE",
"382 23 LINE",
"355 31 OFFCURVE",
"325 41 OFFCURVE",
"303 45 CURVE",
"303 653 LINE",
"382 675 LINE",
"382 700 LINE",
"24 700 LINE",
"24 678 LINE",
"53 668 OFFCURVE",
"81 660 OFFCURVE",
"103 655 CURVE",
"103 47 LINE",
"103 47 OFFCURVE",
"53 33 OFFCURVE",
"24 25 CURVE",
"24 0 LINE"
);
},
{
closed = 1;
nodes = (
"848 0 LINE",
"848 23 LINE",
"811 34 OFFCURVE",
"782 41 OFFCURVE",
"758 46 CURVE",
"467 448 LINE",
"351 329 LINE",
"584 0 LINE"
);
}
);
width = 851;
}
);
note = Kcommaaccent;
rightKerningGroup = K;
unicode = 0136;
},
{
glyphname = L;
lastChange = "2015-10-27 15:50:12 +0000";
layers = (
{
layerId = "3717E746-9C6F-47D9-B2A4-B2AE7EC69823";
name = Bold;
paths = (
{
closed = 1;
nodes = (
"637 0 LINE",
"658 196 LINE",
"616 196 LINE",
"596 174 OFFCURVE",
"560 99 OFFCURVE",
"557 59 CURVE",
"312 59 LINE",
"312 653 LINE",
"391 675 LINE",
"391 700 LINE",
"33 700 LINE",
"33 678 LINE",
"62 668 OFFCURVE",
"89 660 OFFCURVE",
"112 655 CURVE",
"112 655 OFFCURVE",
"112 45 OFFCURVE",
"112 45 CURVE",
"89 41 OFFCURVE",
"55 33 OFFCURVE",
"24 22 CURVE",
"24 0 LINE"
);
}
);
width = 692;
}
);
note = L;
rightKerningGroup = L;
unicode = 004C;
},
{
glyphname = Lacute;
lastChange = "2015-10-27 15:50:12 +0000";
layers = (
{
layerId = "3717E746-9C6F-47D9-B2A4-B2AE7EC69823";
name = Bold;
paths = (
{
closed = 1;
nodes = (
"637 0 LINE",
"658 196 LINE",
"616 196 LINE",
"596 174 OFFCURVE",
"560 99 OFFCURVE",
"557 59 CURVE",
"312 59 LINE",
"312 653 LINE",
"391 675 LINE",
"391 700 LINE",
"33 700 LINE",
"33 678 LINE",
"62 668 OFFCURVE",
"89 660 OFFCURVE",
"112 655 CURVE",
"112 655 OFFCURVE",
"112 45 OFFCURVE",
"112 45 CURVE",
"89 41 OFFCURVE",
"55 33 OFFCURVE",
"24 22 CURVE",
"24 0 LINE"
);
},
{
closed = 1;
nodes = (
"297 886 LINE SMOOTH",
"336 909 OFFCURVE",
"358 931 OFFCURVE",
"358 960 CURVE SMOOTH",
"358 982 OFFCURVE",
"341 1011 OFFCURVE",
"297 1011 CURVE SMOOTH",
"256 1011 OFFCURVE",
"226 975 OFFCURVE",
"221 969 CURVE",
"94 830 LINE",
"125 786 LINE"
);
}
);
width = 692;
}
);
note = Lacute;
rightKerningGroup = L;
unicode = 0139;
},
{
glyphname = Lcaron;
lastChange = "2015-10-27 15:50:12 +0000";
layers = (
{
layerId = "3717E746-9C6F-47D9-B2A4-B2AE7EC69823";
name = Bold;
paths = (
{
closed = 1;
nodes = (
"637 0 LINE",
"658 196 LINE",
"616 196 LINE",
"596 174 OFFCURVE",
"560 99 OFFCURVE",
"557 59 CURVE",
"312 59 LINE",
"312 653 LINE",
"391 675 LINE",
"391 700 LINE",
"33 700 LINE",
"33 678 LINE",
"62 668 OFFCURVE",
"89 660 OFFCURVE",
"112 655 CURVE",
"112 655 OFFCURVE",
"112 45 OFFCURVE",
"112 45 CURVE",
"89 41 OFFCURVE",
"55 33 OFFCURVE",
"24 22 CURVE",
"24 0 LINE"
);
},
{
closed = 1;
nodes = (
"600 429 OFFCURVE",
"658 522 OFFCURVE",
"658 612 CURVE SMOOTH",
"658 656 OFFCURVE",
"633 710 OFFCURVE",
"560 710 CURVE SMOOTH",
"498 710 OFFCURVE",
"469 664 OFFCURVE",
"469 615 CURVE SMOOTH",
"469 574 OFFCURVE",
"500 534 OFFCURVE",
"554 534 CURVE",
"545 488 OFFCURVE",
"501 441 OFFCURVE",
"476 417 CURVE",
"535 373 LINE"
);
}
);
width = 692;
}
);
note = Lcaron;
rightKerningGroup = L;
unicode = 013D;
},
{
glyphname = Lcommaaccent;
lastChange = "2015-10-27 15:50:13 +0000";
layers = (
{
layerId = "3717E746-9C6F-47D9-B2A4-B2AE7EC69823";
name = Bold;
paths = (
{
closed = 1;
nodes = (
"637 0 LINE",
"658 196 LINE",
"616 196 LINE",
"596 174 OFFCURVE",
"560 99 OFFCURVE",
"557 59 CURVE",
"312 59 LINE",
"312 653 LINE",
"391 675 LINE",
"391 700 LINE",
"33 700 LINE",
"33 678 LINE",
"62 668 OFFCURVE",
"89 660 OFFCURVE",
"112 655 CURVE",
"112 655 OFFCURVE",
"112 45 OFFCURVE",
"112 45 CURVE",
"89 41 OFFCURVE",
"55 33 OFFCURVE",
"24 22 CURVE",
"24 0 LINE"
);
},
{
closed = 1;
nodes = (
"394 -356 OFFCURVE",
"446 -264 OFFCURVE",
"446 -174 CURVE SMOOTH",
"446 -130 OFFCURVE",
"416 -89 OFFCURVE",
"354 -89 CURVE SMOOTH",
"308 -89 OFFCURVE",
"268 -119 OFFCURVE",
"268 -168 CURVE SMOOTH",
"268 -209 OFFCURVE",
"305 -246 OFFCURVE",
"348 -251 CURVE",
"339 -297 OFFCURVE",
"295 -344 OFFCURVE",
"270 -368 CURVE",
"329 -412 LINE"
);
}
);
width = 692;
}
);
note = Lcommaaccent;
rightKerningGroup = L;
unicode = 013B;
},
{
glyphname = Ldot;
lastChange = "2015-10-27 15:50:13 +0000";
layers = (
{
layerId = "3717E746-9C6F-47D9-B2A4-B2AE7EC69823";
name = Bold;
paths = (
{
closed = 1;
nodes = (
"637 0 LINE",
"658 196 LINE",
"616 196 LINE",
"596 174 OFFCURVE",
"560 99 OFFCURVE",
"557 59 CURVE",
"312 59 LINE",
"312 653 LINE",
"391 675 LINE",
"391 700 LINE",
"33 700 LINE",
"33 678 LINE",
"62 668 OFFCURVE",
"89 660 OFFCURVE",
"112 655 CURVE",
"112 655 OFFCURVE",
"112 45 OFFCURVE",
"112 45 CURVE",
"89 41 OFFCURVE",
"55 33 OFFCURVE",
"24 22 CURVE",
"24 0 LINE"
);
},
{
closed = 1;
nodes = (
"552 325 OFFCURVE",
"580 357 OFFCURVE",
"580 397 CURVE SMOOTH",
"580 437 OFFCURVE",
"552 470 OFFCURVE",
"507 470 CURVE SMOOTH",
"462 470 OFFCURVE",
"435 437 OFFCURVE",
"435 397 CURVE SMOOTH",
"435 357 OFFCURVE",
"462 325 OFFCURVE",
"507 325 CURVE SMOOTH"
);
}
);
width = 692;
}
);
note = Ldot;
rightKerningGroup = L;
unicode = 013F;
},
{
glyphname = Ldotbelow;
lastChange = "2015-10-27 15:50:13 +0000";
layers = (
{
layerId = "3717E746-9C6F-47D9-B2A4-B2AE7EC69823";
name = Bold;
paths = (
{
closed = 1;
nodes = (
"637 0 LINE",
"658 196 LINE",
"616 196 LINE",
"596 174 OFFCURVE",
"560 99 OFFCURVE",
"557 59 CURVE",
"312 59 LINE",
"312 653 LINE",
"391 675 LINE",
"391 700 LINE",
"33 700 LINE",
"33 678 LINE",
"62 668 OFFCURVE",
"89 660 OFFCURVE",
"112 655 CURVE",
"112 655 OFFCURVE",
"112 45 OFFCURVE",
"112 45 CURVE",
"89 41 OFFCURVE",
"55 33 OFFCURVE",
"24 22 CURVE",
"24 0 LINE"
);
},
{
closed = 1;
nodes = (
"390 -195 OFFCURVE",
"418 -163 OFFCURVE",
"418 -123 CURVE SMOOTH",
"418 -83 OFFCURVE",
"390 -50 OFFCURVE",
"345 -50 CURVE SMOOTH",
"300 -50 OFFCURVE",
"273 -83 OFFCURVE",
"273 -123 CURVE SMOOTH",
"273 -163 OFFCURVE",
"300 -195 OFFCURVE",
"345 -195 CURVE SMOOTH"
);
}
);
width = 692;
}
);
note = Ldotbelow;
rightKerningGroup = L;
unicode = 1E36;
},
{
glyphname = Ldotbelowmacron;
lastChange = "2015-11-29 22:41:41 +0000";
layers = (
{
layerId = "3717E746-9C6F-47D9-B2A4-B2AE7EC69823";
name = Bold;
paths = (
{
closed = 1;
nodes = (
"637 0 LINE",
"658 196 LINE",
"616 196 LINE",
"596 174 OFFCURVE",
"560 99 OFFCURVE",
"557 59 CURVE",
"312 59 LINE",
"312 653 LINE",
"391 675 LINE",
"391 700 LINE",
"33 700 LINE",
"33 678 LINE",
"62 668 OFFCURVE",
"89 660 OFFCURVE",
"112 655 CURVE",
"112 655 OFFCURVE",
"112 45 OFFCURVE",
"112 45 CURVE",
"89 41 OFFCURVE",
"55 33 OFFCURVE",
"24 22 CURVE",
"24 0 LINE"
);
},
{
closed = 1;
nodes = (
"390 -195 OFFCURVE",
"418 -163 OFFCURVE",
"418 -123 CURVE SMOOTH",
"418 -83 OFFCURVE",
"390 -50 OFFCURVE",
"345 -50 CURVE SMOOTH",
"300 -50 OFFCURVE",
"273 -83 OFFCURVE",
"273 -123 CURVE SMOOTH",
"273 -163 OFFCURVE",
"300 -195 OFFCURVE",
"345 -195 CURVE SMOOTH"
);
},
{
closed = 1;
nodes = (
"423 785 LINE",
"423 842 LINE",
"-5 842 LINE",
"-5 785 LINE"
);
}
);
width = 692;
}
);
note = Ldotbelowmacron;
rightKerningGroup = L;
unicode = 1E38;
},
{
glyphname = Llinebelow;
lastChange = "2015-10-27 15:50:12 +0000";
layers = (
{
layerId = "3717E746-9C6F-47D9-B2A4-B2AE7EC69823";
name = Bold;
paths = (
{
closed = 1;
nodes = (
"637 0 LINE",
"658 196 LINE",
"616 196 LINE",
"596 174 OFFCURVE",
"560 99 OFFCURVE",
"557 59 CURVE",
"312 59 LINE",
"312 653 LINE",
"391 675 LINE",
"391 700 LINE",
"33 700 LINE",
"33 678 LINE",
"62 668 OFFCURVE",
"89 660 OFFCURVE",
"112 655 CURVE",
"112 655 OFFCURVE",
"112 45 OFFCURVE",
"112 45 CURVE",
"89 41 OFFCURVE",
"55 33 OFFCURVE",
"24 22 CURVE",
"24 0 LINE"
);
},
{
closed = 1;
nodes = (
"553 -112 LINE",
"553 -55 LINE",
"125 -55 LINE",
"125 -112 LINE"
);
}
);
width = 692;
}
);
note = Llinebelow;
rightKerningGroup = L;
unicode = 1E3A;
},
{
glyphname = Lslash;
lastChange = "2015-10-27 15:50:12 +0000";
layers = (
{
layerId = "3717E746-9C6F-47D9-B2A4-B2AE7EC69823";
name = Bold;
paths = (
{
closed = 1;
nodes = (
"637 0 LINE",
"658 196 LINE",
"616 196 LINE",
"596 174 OFFCURVE",
"560 99 OFFCURVE",
"557 59 CURVE",
"312 59 LINE",
"312 653 LINE",
"391 675 LINE",
"391 700 LINE",
"33 700 LINE",
"33 678 LINE",
"62 668 OFFCURVE",
"89 660 OFFCURVE",
"112 655 CURVE",
"112 655 OFFCURVE",
"112 45 OFFCURVE",
"112 45 CURVE",
"89 41 OFFCURVE",
"55 33 OFFCURVE",
"24 22 CURVE",
"24 0 LINE"
);
},
{
closed = 1;
nodes = (
"502 374 LINE",
"502 455 LINE",
"41 291 LINE",
"41 210 LINE"
);
}
);
width = 692;
}
);
note = Lslash;
rightKerningGroup = L;
unicode = 0141;
},
{
glyphname = M;
lastChange = "2015-10-27 15:50:13 +0000";
layers = (
{
layerId = "3717E746-9C6F-47D9-B2A4-B2AE7EC69823";
name = Bold;
paths = (
{
closed = 1;
nodes = (
"255 0 LINE",
"255 22 LINE",
"225 31 OFFCURVE",
"201 38 OFFCURVE",
"177 44 CURVE",
"177 565 LINE",
"377 75 LINE",
"493 75 LINE",
"698 549 LINE",
"698 44 LINE",
"674 38 OFFCURVE",
"650 31 OFFCURVE",
"620 22 CURVE",
"620 0 LINE",
"976 0 LINE",
"976 22 LINE",
"946 31 OFFCURVE",
"922 38 OFFCURVE",
"898 44 CURVE",
"898 652 LINE",
"976 678 LINE",
"976 700 LINE",
"694 700 LINE",
"488 219 LINE",
"305 700 LINE",
"24 700 LINE",
"24 678 LINE",
"53 668 OFFCURVE",
"81 660 OFFCURVE",
"103 655 CURVE",
"103 44 LINE",
"79 38 OFFCURVE",
"55 31 OFFCURVE",
"25 22 CURVE",
"25 0 LINE"
);
}
);
width = 1000;
}
);
note = M;
unicode = 004D;
},
{
glyphname = Mdotbelow;
lastChange = "2015-10-27 15:50:13 +0000";
layers = (
{
layerId = "3717E746-9C6F-47D9-B2A4-B2AE7EC69823";
name = Bold;
paths = (
{
closed = 1;
nodes = (
"255 0 LINE",
"255 22 LINE",
"225 31 OFFCURVE",
"201 38 OFFCURVE",
"177 44 CURVE",
"177 565 LINE",
"377 75 LINE",
"493 75 LINE",
"698 549 LINE",
"698 44 LINE",
"674 38 OFFCURVE",
"650 31 OFFCURVE",
"620 22 CURVE",
"620 0 LINE",
"976 0 LINE",
"976 22 LINE",
"946 31 OFFCURVE",
"922 38 OFFCURVE",
"898 44 CURVE",
"898 652 LINE",
"976 678 LINE",
"976 700 LINE",
"694 700 LINE",
"488 219 LINE",
"305 700 LINE",
"24 700 LINE",
"24 678 LINE",
"53 668 OFFCURVE",
"81 660 OFFCURVE",
"103 655 CURVE",
"103 44 LINE",
"79 38 OFFCURVE",
"55 31 OFFCURVE",
"25 22 CURVE",
"25 0 LINE"
);
},
{
closed = 1;
nodes = (
"544 -195 OFFCURVE",
"572 -163 OFFCURVE",
"572 -123 CURVE SMOOTH",
"572 -83 OFFCURVE",
"544 -50 OFFCURVE",
"499 -50 CURVE SMOOTH",
"454 -50 OFFCURVE",
"427 -83 OFFCURVE",
"427 -123 CURVE SMOOTH",
"427 -163 OFFCURVE",
"454 -195 OFFCURVE",
"499 -195 CURVE SMOOTH"
);
}
);
width = 1000;
}
);
note = Mdotbelow;
unicode = 1E42;
},
{
glyphname = N;
lastChange = "2015-10-27 15:50:13 +0000";
layers = (
{
layerId = "3717E746-9C6F-47D9-B2A4-B2AE7EC69823";
name = Bold;
paths = (
{
closed = 1;
nodes = (
"255 0 LINE",
"255 22 LINE",
"225 31 OFFCURVE",
"201 38 OFFCURVE",
"177 44 CURVE",
"177 602 LINE",
"593 0 LINE",
"690 0 LINE",
"690 656 LINE",
"714 662 OFFCURVE",
"738 669 OFFCURVE",
"768 678 CURVE",
"768 700 LINE",
"538 700 LINE",
"538 678 LINE",
"568 669 OFFCURVE",
"592 662 OFFCURVE",
"616 656 CURVE",
"616 237 LINE",
"297 700 LINE",
"24 700 LINE",
"24 678 LINE",
"53 668 OFFCURVE",
"80 660 OFFCURVE",
"103 655 CURVE",
"103 44 LINE",
"79 38 OFFCURVE",
"55 31 OFFCURVE",
"25 22 CURVE",
"25 0 LINE"
);
}
);
width = 792;
}
);
note = N;
unicode = 004E;
},
{
glyphname = Nacute;
lastChange = "2015-10-27 15:50:13 +0000";
layers = (
{
layerId = "3717E746-9C6F-47D9-B2A4-B2AE7EC69823";
name = Bold;
paths = (
{
closed = 1;
nodes = (
"255 0 LINE",
"255 22 LINE",
"225 31 OFFCURVE",
"201 38 OFFCURVE",
"177 44 CURVE",
"177 602 LINE",
"593 0 LINE",
"690 0 LINE",
"690 656 LINE",
"714 662 OFFCURVE",
"738 669 OFFCURVE",
"768 678 CURVE",
"768 700 LINE",
"538 700 LINE",
"538 678 LINE",
"568 669 OFFCURVE",
"592 662 OFFCURVE",
"616 656 CURVE",
"616 237 LINE",
"297 700 LINE",
"24 700 LINE",
"24 678 LINE",
"53 668 OFFCURVE",
"80 660 OFFCURVE",
"103 655 CURVE",
"103 44 LINE",
"79 38 OFFCURVE",
"55 31 OFFCURVE",
"25 22 CURVE",
"25 0 LINE"
);
},
{
closed = 1;
nodes = (
"513 886 LINE SMOOTH",
"552 909 OFFCURVE",
"574 931 OFFCURVE",
"574 960 CURVE SMOOTH",
"574 982 OFFCURVE",
"557 1011 OFFCURVE",
"513 1011 CURVE SMOOTH",
"472 1011 OFFCURVE",
"442 975 OFFCURVE",
"437 969 CURVE",
"310 830 LINE",
"341 786 LINE"
);
}
);
width = 792;
}
);
note = Nacute;
unicode = 0143;
},
{
glyphname = Ncaron;
lastChange = "2015-10-27 15:50:13 +0000";
layers = (
{
layerId = "3717E746-9C6F-47D9-B2A4-B2AE7EC69823";
name = Bold;
paths = (
{
closed = 1;
nodes = (
"255 0 LINE",
"255 22 LINE",
"225 31 OFFCURVE",
"201 38 OFFCURVE",
"177 44 CURVE",
"177 602 LINE",
"593 0 LINE",
"690 0 LINE",
"690 656 LINE",
"714 662 OFFCURVE",
"738 669 OFFCURVE",
"768 678 CURVE",
"768 700 LINE",
"538 700 LINE",
"538 678 LINE",
"568 669 OFFCURVE",
"592 662 OFFCURVE",
"616 656 CURVE",
"616 237 LINE",
"297 700 LINE",
"24 700 LINE",
"24 678 LINE",
"53 668 OFFCURVE",
"80 660 OFFCURVE",
"103 655 CURVE",
"103 44 LINE",
"79 38 OFFCURVE",
"55 31 OFFCURVE",
"25 22 CURVE",
"25 0 LINE"
);
},
{
closed = 1;
nodes = (
"350 786 OFFCURVE",
"441 786 OFFCURVE",
"441 786 CURVE",
"462 819 OFFCURVE",
"565 913 OFFCURVE",
"612 942 CURVE",
"533 997 LINE",
"489 962 OFFCURVE",
"419 892 OFFCURVE",
"397 855 CURVE",
"397 855 OFFCURVE",
"394 855 OFFCURVE",
"394 855 CURVE",
"372 892 OFFCURVE",
"302 962 OFFCURVE",
"258 997 CURVE",
"179 942 LINE",
"226 913 OFFCURVE",
"329 819 OFFCURVE",
"350 786 CURVE"
);
}
);
width = 792;
}
);
note = Ncaron;
unicode = 0147;
},
{
glyphname = Ncommaaccent;
lastChange = "2015-10-27 15:50:13 +0000";
layers = (
{
layerId = "3717E746-9C6F-47D9-B2A4-B2AE7EC69823";
name = Bold;
paths = (
{
closed = 1;
nodes = (
"255 0 LINE",
"255 22 LINE",
"225 31 OFFCURVE",
"201 38 OFFCURVE",
"177 44 CURVE",
"177 602 LINE",
"593 0 LINE",
"690 0 LINE",
"690 656 LINE",
"714 662 OFFCURVE",
"738 669 OFFCURVE",
"768 678 CURVE",
"768 700 LINE",
"538 700 LINE",
"538 678 LINE",
"568 669 OFFCURVE",
"592 662 OFFCURVE",
"616 656 CURVE",
"616 237 LINE",
"297 700 LINE",
"24 700 LINE",
"24 678 LINE",
"53 668 OFFCURVE",
"80 660 OFFCURVE",
"103 655 CURVE",
"103 44 LINE",
"79 38 OFFCURVE",
"55 31 OFFCURVE",
"25 22 CURVE",
"25 0 LINE"
);
},
{
closed = 1;
nodes = (
"446 -356 OFFCURVE",
"498 -264 OFFCURVE",
"498 -174 CURVE SMOOTH",
"498 -130 OFFCURVE",
"468 -89 OFFCURVE",
"406 -89 CURVE SMOOTH",
"360 -89 OFFCURVE",
"320 -119 OFFCURVE",
"320 -168 CURVE SMOOTH",
"320 -209 OFFCURVE",
"357 -246 OFFCURVE",
"400 -251 CURVE",
"391 -297 OFFCURVE",
"347 -344 OFFCURVE",
"322 -368 CURVE",
"381 -412 LINE"
);
}
);
width = 792;
}
);
note = Ncommaaccent;
unicode = 0145;
},
{
glyphname = Ndotaccent;
lastChange = "2015-10-27 15:50:13 +0000";
layers = (
{
layerId = "3717E746-9C6F-47D9-B2A4-B2AE7EC69823";
name = Bold;
paths = (
{
closed = 1;
nodes = (
"255 0 LINE",
"255 22 LINE",
"225 31 OFFCURVE",
"201 38 OFFCURVE",
"177 44 CURVE",
"177 602 LINE",
"593 0 LINE",
"690 0 LINE",
"690 656 LINE",
"714 662 OFFCURVE",
"738 669 OFFCURVE",
"768 678 CURVE",
"768 700 LINE",
"538 700 LINE",
"538 678 LINE",
"568 669 OFFCURVE",
"592 662 OFFCURVE",
"616 656 CURVE",
"616 237 LINE",
"297 700 LINE",
"24 700 LINE",
"24 678 LINE",
"53 668 OFFCURVE",
"80 660 OFFCURVE",
"103 655 CURVE",
"103 44 LINE",
"79 38 OFFCURVE",
"55 31 OFFCURVE",
"25 22 CURVE",
"25 0 LINE"
);
},
{
closed = 1;
nodes = (
"440 786 OFFCURVE",
"468 818 OFFCURVE",
"468 858 CURVE SMOOTH",
"468 898 OFFCURVE",
"440 931 OFFCURVE",
"395 931 CURVE SMOOTH",
"350 931 OFFCURVE",
"323 898 OFFCURVE",
"323 858 CURVE SMOOTH",
"323 818 OFFCURVE",
"350 786 OFFCURVE",
"395 786 CURVE SMOOTH"
);
}
);
width = 792;
}
);
note = Ndotaccent;
unicode = 1E44;
},
{
glyphname = Ndotbelow;
lastChange = "2015-10-27 15:50:12 +0000";
layers = (
{
layerId = "3717E746-9C6F-47D9-B2A4-B2AE7EC69823";
name = Bold;
paths = (
{
closed = 1;
nodes = (
"255 0 LINE",
"255 22 LINE",
"225 31 OFFCURVE",
"201 38 OFFCURVE",
"177 44 CURVE",
"177 602 LINE",
"593 0 LINE",
"690 0 LINE",
"690 656 LINE",
"714 662 OFFCURVE",
"738 669 OFFCURVE",
"768 678 CURVE",
"768 700 LINE",
"538 700 LINE",
"538 678 LINE",
"568 669 OFFCURVE",
"592 662 OFFCURVE",
"616 656 CURVE",
"616 237 LINE",
"297 700 LINE",
"24 700 LINE",
"24 678 LINE",
"53 668 OFFCURVE",
"80 660 OFFCURVE",
"103 655 CURVE",
"103 44 LINE",
"79 38 OFFCURVE",
"55 31 OFFCURVE",
"25 22 CURVE",
"25 0 LINE"
);
},
{
closed = 1;
nodes = (
"440 -195 OFFCURVE",
"468 -163 OFFCURVE",
"468 -123 CURVE SMOOTH",
"468 -83 OFFCURVE",
"440 -50 OFFCURVE",
"395 -50 CURVE SMOOTH",
"350 -50 OFFCURVE",
"323 -83 OFFCURVE",
"323 -123 CURVE SMOOTH",
"323 -163 OFFCURVE",
"350 -195 OFFCURVE",
"395 -195 CURVE SMOOTH"
);
}
);
width = 792;
}
);
note = uni1E46;
unicode = 1E46;
},
{
glyphname = Eng;
lastChange = "2015-10-27 15:50:13 +0000";
layers = (
{
layerId = "3717E746-9C6F-47D9-B2A4-B2AE7EC69823";
name = Bold;
paths = (
{
closed = 1;
nodes = (
"618 -250 OFFCURVE",
"690 -211 OFFCURVE",
"690 -100 CURVE SMOOTH",
"690 656 LINE",
"714 662 OFFCURVE",
"738 669 OFFCURVE",
"768 678 CURVE",
"768 700 LINE",
"538 700 LINE",
"538 678 LINE",
"568 669 OFFCURVE",
"592 662 OFFCURVE",
"616 656 CURVE",
"616 237 LINE",
"297 700 LINE",
"24 700 LINE",
"24 678 LINE",
"53 668 OFFCURVE",
"80 660 OFFCURVE",
"103 655 CURVE",
"103 44 LINE",
"79 38 OFFCURVE",
"55 31 OFFCURVE",
"25 22 CURVE",
"25 0 LINE",
"255 0 LINE",
"255 22 LINE",
"225 31 OFFCURVE",
"201 38 OFFCURVE",
"177 44 CURVE",
"177 602 LINE",
"617 0 LINE",
"617 -105 LINE SMOOTH",
"617 -167 OFFCURVE",
"558 -189 OFFCURVE",
"501 -189 CURVE SMOOTH",
"470 -189 OFFCURVE",
"439 -184 OFFCURVE",
"418 -177 CURVE",
"408 -227 LINE",
"448 -241 OFFCURVE",
"492 -250 OFFCURVE",
"532 -250 CURVE SMOOTH"
);
}
);
width = 792;
}
);
note = Eng;
unicode = 014A;
},
{
glyphname = Nlinebelow;
lastChange = "2015-10-27 15:50:13 +0000";
layers = (
{
layerId = "3717E746-9C6F-47D9-B2A4-B2AE7EC69823";
name = Bold;
paths = (
{
closed = 1;
nodes = (
"255 0 LINE",
"255 22 LINE",
"225 31 OFFCURVE",
"201 38 OFFCURVE",
"177 44 CURVE",
"177 602 LINE",
"593 0 LINE",
"690 0 LINE",
"690 656 LINE",
"714 662 OFFCURVE",
"738 669 OFFCURVE",
"768 678 CURVE",
"768 700 LINE",
"538 700 LINE",
"538 678 LINE",
"568 669 OFFCURVE",
"592 662 OFFCURVE",
"616 656 CURVE",
"616 237 LINE",
"297 700 LINE",
"24 700 LINE",
"24 678 LINE",
"53 668 OFFCURVE",
"80 660 OFFCURVE",
"103 655 CURVE",
"103 44 LINE",
"79 38 OFFCURVE",
"55 31 OFFCURVE",
"25 22 CURVE",
"25 0 LINE"
);
},
{
closed = 1;
nodes = (
"610 -112 LINE",
"610 -55 LINE",
"182 -55 LINE",
"182 -112 LINE"
);
}
);
width = 792;
}
);
note = Nlinebelow;
unicode = 1E48;
},
{
glyphname = Ntilde;
lastChange = "2015-10-27 15:50:13 +0000";
layers = (
{
layerId = "3717E746-9C6F-47D9-B2A4-B2AE7EC69823";
name = Bold;
paths = (
{
closed = 1;
nodes = (
"255 0 LINE",
"255 22 LINE",
"225 31 OFFCURVE",
"201 38 OFFCURVE",
"177 44 CURVE",
"177 602 LINE",
"593 0 LINE",
"690 0 LINE",
"690 656 LINE",
"714 662 OFFCURVE",
"738 669 OFFCURVE",
"768 678 CURVE",
"768 700 LINE",
"538 700 LINE",
"538 678 LINE",
"568 669 OFFCURVE",
"592 662 OFFCURVE",
"616 656 CURVE",
"616 237 LINE",
"297 700 LINE",
"24 700 LINE",
"24 678 LINE",
"53 668 OFFCURVE",
"80 660 OFFCURVE",
"103 655 CURVE",
"103 44 LINE",
"79 38 OFFCURVE",
"55 31 OFFCURVE",
"25 22 CURVE",
"25 0 LINE"
);
},
{
closed = 1;
nodes = (
"278 786 LINE",
"283 817 OFFCURVE",
"300 836 OFFCURVE",
"329 836 CURVE SMOOTH",
"363 836 OFFCURVE",
"429 786 OFFCURVE",
"493 786 CURVE SMOOTH",
"583 786 OFFCURVE",
"623 839 OFFCURVE",
"630 915 CURVE",
"537 915 LINE",
"526 867 OFFCURVE",
"504 864 OFFCURVE",
"482 864 CURVE SMOOTH",
"441 864 OFFCURVE",
"404 914 OFFCURVE",
"323 914 CURVE SMOOTH",
"244 914 OFFCURVE",
"197 869 OFFCURVE",
"185 786 CURVE"
);
}
);
width = 792;
}
);
note = Ntilde;
unicode = 00D1;
},
{
glyphname = O;
lastChange = "2015-10-27 15:50:13 +0000";
layers = (
{
layerId = "3717E746-9C6F-47D9-B2A4-B2AE7EC69823";
name = Bold;
paths = (
{
closed = 1;
nodes = (
"638 -10 OFFCURVE",
"769 128 OFFCURVE",
"769 350 CURVE SMOOTH",
"769 572 OFFCURVE",
"638 710 OFFCURVE",
"401 710 CURVE SMOOTH",
"161 710 OFFCURVE",
"32 572 OFFCURVE",
"32 350 CURVE SMOOTH",
"32 128 OFFCURVE",
"161 -10 OFFCURVE",
"401 -10 CURVE SMOOTH"
);
},
{
closed = 1;
nodes = (
"286 52 OFFCURVE",
"236 177 OFFCURVE",
"236 350 CURVE SMOOTH",
"236 523 OFFCURVE",
"286 648 OFFCURVE",
"401 648 CURVE SMOOTH",
"514 648 OFFCURVE",
"565 523 OFFCURVE",
"565 350 CURVE SMOOTH",
"565 177 OFFCURVE",
"514 52 OFFCURVE",
"401 52 CURVE SMOOTH"
);
}
);
width = 801;
}
);
leftKerningGroup = O;
note = O;
rightKerningGroup = O;
unicode = 004F;
},
{
glyphname = Oacute;
lastChange = "2015-10-27 15:50:13 +0000";
layers = (
{
layerId = "3717E746-9C6F-47D9-B2A4-B2AE7EC69823";
name = Bold;
paths = (
{
closed = 1;
nodes = (
"638 -10 OFFCURVE",
"769 128 OFFCURVE",
"769 350 CURVE SMOOTH",
"769 572 OFFCURVE",
"638 710 OFFCURVE",
"401 710 CURVE SMOOTH",
"161 710 OFFCURVE",
"32 572 OFFCURVE",
"32 350 CURVE SMOOTH",
"32 128 OFFCURVE",
"161 -10 OFFCURVE",
"401 -10 CURVE SMOOTH"
);
},
{
closed = 1;
nodes = (
"286 52 OFFCURVE",
"236 177 OFFCURVE",
"236 350 CURVE SMOOTH",
"236 523 OFFCURVE",
"286 648 OFFCURVE",
"401 648 CURVE SMOOTH",
"514 648 OFFCURVE",
"565 523 OFFCURVE",
"565 350 CURVE SMOOTH",
"565 177 OFFCURVE",
"514 52 OFFCURVE",
"401 52 CURVE SMOOTH"
);
},
{
closed = 1;
nodes = (
"481 886 LINE SMOOTH",
"520 909 OFFCURVE",
"542 931 OFFCURVE",
"542 960 CURVE SMOOTH",
"542 982 OFFCURVE",
"525 1011 OFFCURVE",
"481 1011 CURVE SMOOTH",
"440 1011 OFFCURVE",
"410 975 OFFCURVE",
"405 969 CURVE",
"278 830 LINE",
"309 786 LINE"
);
}
);
width = 801;
}
);
leftKerningGroup = O;
note = Oacute;
rightKerningGroup = O;
unicode = 00D3;
},
{
glyphname = Obreve;
lastChange = "2015-10-27 15:50:12 +0000";
layers = (
{
layerId = "3717E746-9C6F-47D9-B2A4-B2AE7EC69823";
name = Bold;
paths = (
{
closed = 1;
nodes = (
"638 -10 OFFCURVE",
"769 128 OFFCURVE",
"769 350 CURVE SMOOTH",
"769 572 OFFCURVE",
"638 710 OFFCURVE",
"401 710 CURVE SMOOTH",
"161 710 OFFCURVE",
"32 572 OFFCURVE",
"32 350 CURVE SMOOTH",
"32 128 OFFCURVE",
"161 -10 OFFCURVE",
"401 -10 CURVE SMOOTH"
);
},
{
closed = 1;
nodes = (
"286 52 OFFCURVE",
"236 177 OFFCURVE",
"236 350 CURVE SMOOTH",
"236 523 OFFCURVE",
"286 648 OFFCURVE",
"401 648 CURVE SMOOTH",
"514 648 OFFCURVE",
"565 523 OFFCURVE",
"565 350 CURVE SMOOTH",
"565 177 OFFCURVE",
"514 52 OFFCURVE",
"401 52 CURVE SMOOTH"
);
},
{
closed = 1;
nodes = (
"507 786 OFFCURVE",
"580 831 OFFCURVE",
"598 927 CURVE",
"492 927 LINE",
"485 856 OFFCURVE",
"441 847 OFFCURVE",
"400 847 CURVE SMOOTH",
"359 847 OFFCURVE",
"315 856 OFFCURVE",
"308 927 CURVE",
"202 927 LINE",
"220 831 OFFCURVE",
"293 786 OFFCURVE",
"400 786 CURVE SMOOTH"
);
}
);
width = 801;
}
);
leftKerningGroup = O;
note = Obreve;
rightKerningGroup = O;
unicode = 014E;
},
{
glyphname = Ocaron;
lastChange = "2015-10-27 15:50:13 +0000";
layers = (
{
layerId = "3717E746-9C6F-47D9-B2A4-B2AE7EC69823";
name = Bold;
paths = (
{
closed = 1;
nodes = (
"638 -10 OFFCURVE",
"769 128 OFFCURVE",
"769 350 CURVE SMOOTH",
"769 572 OFFCURVE",
"638 710 OFFCURVE",
"401 710 CURVE SMOOTH",
"161 710 OFFCURVE",
"32 572 OFFCURVE",
"32 350 CURVE SMOOTH",
"32 128 OFFCURVE",
"161 -10 OFFCURVE",
"401 -10 CURVE SMOOTH"
);
},
{
closed = 1;
nodes = (
"286 52 OFFCURVE",
"236 177 OFFCURVE",
"236 350 CURVE SMOOTH",
"236 523 OFFCURVE",
"286 648 OFFCURVE",
"401 648 CURVE SMOOTH",
"514 648 OFFCURVE",
"565 523 OFFCURVE",
"565 350 CURVE SMOOTH",
"565 177 OFFCURVE",
"514 52 OFFCURVE",
"401 52 CURVE SMOOTH"
);
},
{
closed = 1;
nodes = (
"355 786 OFFCURVE",
"446 786 OFFCURVE",
"446 786 CURVE",
"467 819 OFFCURVE",
"570 913 OFFCURVE",
"617 942 CURVE",
"538 997 LINE",
"494 962 OFFCURVE",
"424 892 OFFCURVE",
"402 855 CURVE",
"402 855 OFFCURVE",
"399 855 OFFCURVE",
"399 855 CURVE",
"377 892 OFFCURVE",
"307 962 OFFCURVE",
"263 997 CURVE",
"184 942 LINE",
"231 913 OFFCURVE",
"334 819 OFFCURVE",
"355 786 CURVE"
);
}
);
width = 801;
}
);
leftKerningGroup = O;
note = Ocaron;
rightKerningGroup = O;
unicode = 01D1;
},
{
glyphname = Ocircumflex;
lastChange = "2015-10-27 15:50:13 +0000";
layers = (
{
layerId = "3717E746-9C6F-47D9-B2A4-B2AE7EC69823";
name = Bold;
paths = (
{
closed = 1;
nodes = (
"638 -10 OFFCURVE",
"769 128 OFFCURVE",
"769 350 CURVE SMOOTH",
"769 572 OFFCURVE",
"638 710 OFFCURVE",
"401 710 CURVE SMOOTH",
"161 710 OFFCURVE",
"32 572 OFFCURVE",
"32 350 CURVE SMOOTH",
"32 128 OFFCURVE",
"161 -10 OFFCURVE",
"401 -10 CURVE SMOOTH"
);
},
{
closed = 1;
nodes = (
"286 52 OFFCURVE",
"236 177 OFFCURVE",
"236 350 CURVE SMOOTH",
"236 523 OFFCURVE",
"286 648 OFFCURVE",
"401 648 CURVE SMOOTH",
"514 648 OFFCURVE",
"565 523 OFFCURVE",
"565 350 CURVE SMOOTH",
"565 177 OFFCURVE",
"514 52 OFFCURVE",
"401 52 CURVE SMOOTH"
);
},
{
closed = 1;
nodes = (
"307 821 OFFCURVE",
"377 891 OFFCURVE",
"399 928 CURVE",
"399 928 OFFCURVE",
"402 928 OFFCURVE",
"402 928 CURVE",
"424 891 OFFCURVE",
"494 821 OFFCURVE",
"538 786 CURVE",
"617 841 LINE",
"570 870 OFFCURVE",
"467 964 OFFCURVE",
"446 997 CURVE",
"446 997 OFFCURVE",
"355 997 OFFCURVE",
"355 997 CURVE",
"334 964 OFFCURVE",
"231 870 OFFCURVE",
"184 841 CURVE",
"263 786 LINE"
);
}
);
width = 801;
}
);
leftKerningGroup = O;
note = Ocircumflex;
rightKerningGroup = O;
unicode = 00D4;
},
{
glyphname = Ocircumflexacute;
lastChange = "2015-10-27 15:50:13 +0000";
layers = (
{
layerId = "3717E746-9C6F-47D9-B2A4-B2AE7EC69823";
name = Bold;
paths = (
{
closed = 1;
nodes = (
"638 -10 OFFCURVE",
"769 128 OFFCURVE",
"769 350 CURVE SMOOTH",
"769 572 OFFCURVE",
"638 710 OFFCURVE",
"401 710 CURVE SMOOTH",
"161 710 OFFCURVE",
"32 572 OFFCURVE",
"32 350 CURVE SMOOTH",
"32 128 OFFCURVE",
"161 -10 OFFCURVE",
"401 -10 CURVE SMOOTH"
);
},
{
closed = 1;
nodes = (
"286 52 OFFCURVE",
"236 177 OFFCURVE",
"236 350 CURVE SMOOTH",
"236 523 OFFCURVE",
"286 648 OFFCURVE",
"401 648 CURVE SMOOTH",
"514 648 OFFCURVE",
"565 523 OFFCURVE",
"565 350 CURVE SMOOTH",
"565 177 OFFCURVE",
"514 52 OFFCURVE",
"401 52 CURVE SMOOTH"
);
},
{
closed = 1;
nodes = (
"306 821 OFFCURVE",
"376 891 OFFCURVE",
"398 928 CURVE",
"398 928 OFFCURVE",
"401 928 OFFCURVE",
"401 928 CURVE",
"423 891 OFFCURVE",
"493 821 OFFCURVE",
"537 786 CURVE",
"616 841 LINE",
"569 870 OFFCURVE",
"466 964 OFFCURVE",
"445 997 CURVE",
"445 997 OFFCURVE",
"354 997 OFFCURVE",
"354 997 CURVE",
"333 964 OFFCURVE",
"230 870 OFFCURVE",
"183 841 CURVE",
"262 786 LINE"
);
},
{
closed = 1;
nodes = (
"675 994 LINE SMOOTH",
"716 1014 OFFCURVE",
"743 1039 OFFCURVE",
"743 1068 CURVE SMOOTH",
"743 1090 OFFCURVE",
"726 1123 OFFCURVE",
"682 1123 CURVE SMOOTH",
"648 1123 OFFCURVE",
"621 1093 OFFCURVE",
"606 1074 CURVE SMOOTH",
"528 975 LINE",
"558 937 LINE"
);
}
);
width = 801;
}
);
leftKerningGroup = O;
note = Ocircumflexacute;
rightKerningGroup = O;
unicode = 1ED0;
},
{
glyphname = Ocircumflexdotbelow;
lastChange = "2015-11-29 22:41:49 +0000";
layers = (
{
layerId = "3717E746-9C6F-47D9-B2A4-B2AE7EC69823";
name = Bold;
paths = (
{
closed = 1;
nodes = (
"638 -10 OFFCURVE",
"769 128 OFFCURVE",
"769 350 CURVE SMOOTH",
"769 572 OFFCURVE",
"638 710 OFFCURVE",
"401 710 CURVE SMOOTH",
"161 710 OFFCURVE",
"32 572 OFFCURVE",
"32 350 CURVE SMOOTH",
"32 128 OFFCURVE",
"161 -10 OFFCURVE",
"401 -10 CURVE SMOOTH"
);
},
{
closed = 1;
nodes = (
"286 52 OFFCURVE",
"236 177 OFFCURVE",
"236 350 CURVE SMOOTH",
"236 523 OFFCURVE",
"286 648 OFFCURVE",
"401 648 CURVE SMOOTH",
"514 648 OFFCURVE",
"565 523 OFFCURVE",
"565 350 CURVE SMOOTH",
"565 177 OFFCURVE",
"514 52 OFFCURVE",
"401 52 CURVE SMOOTH"
);
},
{
closed = 1;
nodes = (
"306 821 OFFCURVE",
"376 891 OFFCURVE",
"398 928 CURVE",
"398 928 OFFCURVE",
"401 928 OFFCURVE",
"401 928 CURVE",
"423 891 OFFCURVE",
"493 821 OFFCURVE",
"537 786 CURVE",
"616 841 LINE",
"569 870 OFFCURVE",
"466 964 OFFCURVE",
"445 997 CURVE",
"445 997 OFFCURVE",
"354 997 OFFCURVE",
"354 997 CURVE",
"333 964 OFFCURVE",
"230 870 OFFCURVE",
"183 841 CURVE",
"262 786 LINE"
);
},
{
closed = 1;
nodes = (
"445 -195 OFFCURVE",
"473 -163 OFFCURVE",
"473 -123 CURVE SMOOTH",
"473 -83 OFFCURVE",
"445 -50 OFFCURVE",
"400 -50 CURVE SMOOTH",
"355 -50 OFFCURVE",
"328 -83 OFFCURVE",
"328 -123 CURVE SMOOTH",
"328 -163 OFFCURVE",
"355 -195 OFFCURVE",
"400 -195 CURVE SMOOTH"
);
}
);
width = 801;
}
);
leftKerningGroup = O;
note = Ocircumflexdotbelow;
rightKerningGroup = O;
unicode = 1ED8;
},
{
glyphname = Ocircumflexgrave;
lastChange = "2015-10-27 15:50:13 +0000";
layers = (
{
layerId = "3717E746-9C6F-47D9-B2A4-B2AE7EC69823";
name = Bold;
paths = (
{
closed = 1;
nodes = (
"638 -10 OFFCURVE",
"769 128 OFFCURVE",
"769 350 CURVE SMOOTH",
"769 572 OFFCURVE",
"638 710 OFFCURVE",
"401 710 CURVE SMOOTH",
"161 710 OFFCURVE",
"32 572 OFFCURVE",
"32 350 CURVE SMOOTH",
"32 128 OFFCURVE",
"161 -10 OFFCURVE",
"401 -10 CURVE SMOOTH"
);
},
{
closed = 1;
nodes = (
"286 52 OFFCURVE",
"236 177 OFFCURVE",
"236 350 CURVE SMOOTH",
"236 523 OFFCURVE",
"286 648 OFFCURVE",
"401 648 CURVE SMOOTH",
"514 648 OFFCURVE",
"565 523 OFFCURVE",
"565 350 CURVE SMOOTH",
"565 177 OFFCURVE",
"514 52 OFFCURVE",
"401 52 CURVE SMOOTH"
);
},
{
closed = 1;
nodes = (
"271 975 LINE",
"193 1074 LINE SMOOTH",
"178 1093 OFFCURVE",
"151 1123 OFFCURVE",
"117 1123 CURVE SMOOTH",
"73 1123 OFFCURVE",
"56 1090 OFFCURVE",
"56 1068 CURVE SMOOTH",
"56 1039 OFFCURVE",
"83 1014 OFFCURVE",
"124 994 CURVE SMOOTH",
"241 937 LINE"
);
},
{
closed = 1;
nodes = (
"306 821 OFFCURVE",
"376 891 OFFCURVE",
"398 928 CURVE",
"398 928 OFFCURVE",
"401 928 OFFCURVE",
"401 928 CURVE",
"423 891 OFFCURVE",
"493 821 OFFCURVE",
"537 786 CURVE",
"616 841 LINE",
"569 870 OFFCURVE",
"466 964 OFFCURVE",
"445 997 CURVE",
"445 997 OFFCURVE",
"354 997 OFFCURVE",
"354 997 CURVE",
"333 964 OFFCURVE",
"230 870 OFFCURVE",
"183 841 CURVE",
"262 786 LINE"
);
}
);
width = 801;
}
);
leftKerningGroup = O;
note = Ocircumflexgrave;
rightKerningGroup = O;
unicode = 1ED2;
},
{
glyphname = Ocircumflexhookabove;
lastChange = "2015-10-27 15:50:12 +0000";
layers = (
{
layerId = "3717E746-9C6F-47D9-B2A4-B2AE7EC69823";
name = Bold;
paths = (
{
closed = 1;
nodes = (
"638 -10 OFFCURVE",
"769 128 OFFCURVE",
"769 350 CURVE SMOOTH",
"769 572 OFFCURVE",
"638 710 OFFCURVE",
"401 710 CURVE SMOOTH",
"161 710 OFFCURVE",
"32 572 OFFCURVE",
"32 350 CURVE SMOOTH",
"32 128 OFFCURVE",
"161 -10 OFFCURVE",
"401 -10 CURVE SMOOTH"
);
},
{
closed = 1;
nodes = (
"286 52 OFFCURVE",
"236 177 OFFCURVE",
"236 350 CURVE SMOOTH",
"236 523 OFFCURVE",
"286 648 OFFCURVE",
"401 648 CURVE SMOOTH",
"514 648 OFFCURVE",
"565 523 OFFCURVE",
"565 350 CURVE SMOOTH",
"565 177 OFFCURVE",
"514 52 OFFCURVE",
"401 52 CURVE SMOOTH"
);
},
{
closed = 1;
nodes = (
"306 821 OFFCURVE",
"376 891 OFFCURVE",
"398 928 CURVE",
"398 928 OFFCURVE",
"401 928 OFFCURVE",
"401 928 CURVE",
"423 891 OFFCURVE",
"493 821 OFFCURVE",
"537 786 CURVE",
"616 841 LINE",
"569 870 OFFCURVE",
"466 964 OFFCURVE",
"445 997 CURVE",
"445 997 OFFCURVE",
"354 997 OFFCURVE",
"354 997 CURVE",
"333 964 OFFCURVE",
"230 870 OFFCURVE",
"183 841 CURVE",
"262 786 LINE"
);
},
{
closed = 1;
nodes = (
"601 964 LINE",
"610 1004 LINE",
"658 1009 OFFCURVE",
"700 1026 OFFCURVE",
"700 1088 CURVE SMOOTH",
"700 1156 OFFCURVE",
"639 1180 OFFCURVE",
"580 1180 CURVE SMOOTH",
"550 1180 OFFCURVE",
"520 1173 OFFCURVE",
"500 1163 CURVE",
"506 1121 LINE",
"524 1132 OFFCURVE",
"546 1136 OFFCURVE",
"562 1136 CURVE SMOOTH",
"600 1136 OFFCURVE",
"619 1113 OFFCURVE",
"619 1089 CURVE SMOOTH",
"619 1051 OFFCURVE",
"588 1042 OFFCURVE",
"570 1042 CURVE SMOOTH",
"529 1042 LINE",
"533 964 LINE"
);
}
);
width = 801;
}
);
leftKerningGroup = O;
note = Ocircumflexhookabove;
rightKerningGroup = O;
unicode = 1ED4;
},
{
glyphname = Ocircumflextilde;
lastChange = "2015-10-27 15:50:13 +0000";
layers = (
{
layerId = "3717E746-9C6F-47D9-B2A4-B2AE7EC69823";
name = Bold;
paths = (
{
closed = 1;
nodes = (
"638 -10 OFFCURVE",
"769 128 OFFCURVE",
"769 350 CURVE SMOOTH",
"769 572 OFFCURVE",
"638 710 OFFCURVE",
"401 710 CURVE SMOOTH",
"161 710 OFFCURVE",
"32 572 OFFCURVE",
"32 350 CURVE SMOOTH",
"32 128 OFFCURVE",
"161 -10 OFFCURVE",
"401 -10 CURVE SMOOTH"
);
},
{
closed = 1;
nodes = (
"286 52 OFFCURVE",
"236 177 OFFCURVE",
"236 350 CURVE SMOOTH",
"236 523 OFFCURVE",
"286 648 OFFCURVE",
"401 648 CURVE SMOOTH",
"514 648 OFFCURVE",
"565 523 OFFCURVE",
"565 350 CURVE SMOOTH",
"565 177 OFFCURVE",
"514 52 OFFCURVE",
"401 52 CURVE SMOOTH"
);
},
{
closed = 1;
nodes = (
"306 821 OFFCURVE",
"376 891 OFFCURVE",
"398 928 CURVE",
"398 928 OFFCURVE",
"401 928 OFFCURVE",
"401 928 CURVE",
"423 891 OFFCURVE",
"493 821 OFFCURVE",
"537 786 CURVE",
"616 841 LINE",
"569 870 OFFCURVE",
"466 964 OFFCURVE",
"445 997 CURVE",
"445 997 OFFCURVE",
"354 997 OFFCURVE",
"354 997 CURVE",
"333 964 OFFCURVE",
"230 870 OFFCURVE",
"183 841 CURVE",
"262 786 LINE"
);
},
{
closed = 1;
nodes = (
"275 1040 LINE",
"280 1069 OFFCURVE",
"304 1088 OFFCURVE",
"338 1088 CURVE SMOOTH",
"389 1088 OFFCURVE",
"424 1040 OFFCURVE",
"486 1040 CURVE SMOOTH",
"572 1040 OFFCURVE",
"610 1090 OFFCURVE",
"617 1163 CURVE",
"553 1163 LINE",
"542 1117 OFFCURVE",
"504 1114 OFFCURVE",
"483 1114 CURVE SMOOTH",
"444 1114 OFFCURVE",
"421 1162 OFFCURVE",
"343 1162 CURVE SMOOTH",
"268 1162 OFFCURVE",
"222 1119 OFFCURVE",
"211 1040 CURVE"
);
}
);
width = 801;
}
);
leftKerningGroup = O;
note = Ocircumflextilde;
rightKerningGroup = O;
unicode = 1ED6;
},
{
glyphname = Odieresis;
lastChange = "2015-10-27 15:50:13 +0000";
layers = (
{
layerId = "3717E746-9C6F-47D9-B2A4-B2AE7EC69823";
name = Bold;
paths = (
{
closed = 1;
nodes = (
"638 -10 OFFCURVE",
"769 128 OFFCURVE",
"769 350 CURVE SMOOTH",
"769 572 OFFCURVE",
"638 710 OFFCURVE",
"401 710 CURVE SMOOTH",
"161 710 OFFCURVE",
"32 572 OFFCURVE",
"32 350 CURVE SMOOTH",
"32 128 OFFCURVE",
"161 -10 OFFCURVE",
"401 -10 CURVE SMOOTH"
);
},
{
closed = 1;
nodes = (
"286 52 OFFCURVE",
"236 177 OFFCURVE",
"236 350 CURVE SMOOTH",
"236 523 OFFCURVE",
"286 648 OFFCURVE",
"401 648 CURVE SMOOTH",
"514 648 OFFCURVE",
"565 523 OFFCURVE",
"565 350 CURVE SMOOTH",
"565 177 OFFCURVE",
"514 52 OFFCURVE",
"401 52 CURVE SMOOTH"
);
},
{
closed = 1;
nodes = (
"318 786 OFFCURVE",
"346 818 OFFCURVE",
"346 858 CURVE SMOOTH",
"346 898 OFFCURVE",
"318 931 OFFCURVE",
"273 931 CURVE SMOOTH",
"228 931 OFFCURVE",
"201 898 OFFCURVE",
"201 858 CURVE SMOOTH",
"201 818 OFFCURVE",
"228 786 OFFCURVE",
"273 786 CURVE SMOOTH"
);
},
{
closed = 1;
nodes = (
"571 786 OFFCURVE",
"599 818 OFFCURVE",
"599 858 CURVE SMOOTH",
"599 898 OFFCURVE",
"571 931 OFFCURVE",
"526 931 CURVE SMOOTH",
"481 931 OFFCURVE",
"454 898 OFFCURVE",
"454 858 CURVE SMOOTH",
"454 818 OFFCURVE",
"481 786 OFFCURVE",
"526 786 CURVE SMOOTH"
);
}
);
width = 801;
}
);
leftKerningGroup = O;
note = Odieresis;
rightKerningGroup = O;
unicode = 00D6;
},
{
glyphname = Odotbelow;
lastChange = "2015-11-29 22:41:55 +0000";
layers = (
{
layerId = "3717E746-9C6F-47D9-B2A4-B2AE7EC69823";
name = Bold;
paths = (
{
closed = 1;
nodes = (
"32 128 OFFCURVE",
"161 -10 OFFCURVE",
"401 -10 CURVE SMOOTH",
"638 -10 OFFCURVE",
"769 128 OFFCURVE",
"769 350 CURVE SMOOTH",
"769 572 OFFCURVE",
"638 710 OFFCURVE",
"401 710 CURVE SMOOTH",
"161 710 OFFCURVE",
"32 572 OFFCURVE",
"32 350 CURVE SMOOTH"
);
},
{
closed = 1;
nodes = (
"236 523 OFFCURVE",
"286 648 OFFCURVE",
"401 648 CURVE SMOOTH",
"514 648 OFFCURVE",
"565 523 OFFCURVE",
"565 350 CURVE SMOOTH",
"565 177 OFFCURVE",
"514 52 OFFCURVE",
"401 52 CURVE SMOOTH",
"286 52 OFFCURVE",
"236 177 OFFCURVE",
"236 350 CURVE SMOOTH"
);
},
{
closed = 1;
nodes = (
"328 -163 OFFCURVE",
"355 -195 OFFCURVE",
"400 -195 CURVE SMOOTH",
"445 -195 OFFCURVE",
"473 -163 OFFCURVE",
"473 -123 CURVE SMOOTH",
"473 -83 OFFCURVE",
"445 -50 OFFCURVE",
"400 -50 CURVE SMOOTH",
"355 -50 OFFCURVE",
"328 -83 OFFCURVE",
"328 -123 CURVE SMOOTH"
);
}
);
width = 801;
}
);
leftKerningGroup = O;
note = Odotbelow;
rightKerningGroup = O;
unicode = 1ECC;
},
{
glyphname = Ograve;
lastChange = "2015-10-27 15:50:12 +0000";
layers = (
{
layerId = "3717E746-9C6F-47D9-B2A4-B2AE7EC69823";
name = Bold;
paths = (
{
closed = 1;
nodes = (
"638 -10 OFFCURVE",
"769 128 OFFCURVE",
"769 350 CURVE SMOOTH",
"769 572 OFFCURVE",
"638 710 OFFCURVE",
"401 710 CURVE SMOOTH",
"161 710 OFFCURVE",
"32 572 OFFCURVE",
"32 350 CURVE SMOOTH",
"32 128 OFFCURVE",
"161 -10 OFFCURVE",
"401 -10 CURVE SMOOTH"
);
},
{
closed = 1;
nodes = (
"286 52 OFFCURVE",
"236 177 OFFCURVE",
"236 350 CURVE SMOOTH",
"236 523 OFFCURVE",
"286 648 OFFCURVE",
"401 648 CURVE SMOOTH",
"514 648 OFFCURVE",
"565 523 OFFCURVE",
"565 350 CURVE SMOOTH",
"565 177 OFFCURVE",
"514 52 OFFCURVE",
"401 52 CURVE SMOOTH"
);
},
{
closed = 1;
nodes = (
"522 830 LINE",
"395 969 LINE",
"390 975 OFFCURVE",
"360 1011 OFFCURVE",
"319 1011 CURVE SMOOTH",
"275 1011 OFFCURVE",
"258 982 OFFCURVE",
"258 960 CURVE SMOOTH",
"258 931 OFFCURVE",
"280 909 OFFCURVE",
"319 886 CURVE SMOOTH",
"491 786 LINE"
);
}
);
width = 801;
}
);
leftKerningGroup = O;
note = Ograve;
rightKerningGroup = O;
unicode = 00D2;
},
{
glyphname = Ohookabove;
lastChange = "2015-10-27 15:50:13 +0000";
layers = (
{
layerId = "3717E746-9C6F-47D9-B2A4-B2AE7EC69823";
name = Bold;
paths = (
{
closed = 1;
nodes = (
"638 -10 OFFCURVE",
"769 128 OFFCURVE",
"769 350 CURVE SMOOTH",
"769 572 OFFCURVE",
"638 710 OFFCURVE",
"401 710 CURVE SMOOTH",
"161 710 OFFCURVE",
"32 572 OFFCURVE",
"32 350 CURVE SMOOTH",
"32 128 OFFCURVE",
"161 -10 OFFCURVE",
"401 -10 CURVE SMOOTH"
);
},
{
closed = 1;
nodes = (
"286 52 OFFCURVE",
"236 177 OFFCURVE",
"236 350 CURVE SMOOTH",
"236 523 OFFCURVE",
"286 648 OFFCURVE",
"401 648 CURVE SMOOTH",
"514 648 OFFCURVE",
"565 523 OFFCURVE",
"565 350 CURVE SMOOTH",
"565 177 OFFCURVE",
"514 52 OFFCURVE",
"401 52 CURVE SMOOTH"
);
},
{
closed = 1;
nodes = (
"446 786 LINE",
"456 859 LINE",
"511 864 OFFCURVE",
"559 883 OFFCURVE",
"559 951 CURVE SMOOTH",
"559 1025 OFFCURVE",
"489 1051 OFFCURVE",
"422 1051 CURVE SMOOTH",
"387 1051 OFFCURVE",
"353 1043 OFFCURVE",
"330 1032 CURVE",
"337 987 LINE",
"358 999 OFFCURVE",
"383 1003 OFFCURVE",
"401 1003 CURVE SMOOTH",
"444 1003 OFFCURVE",
"466 978 OFFCURVE",
"466 952 CURVE SMOOTH",
"466 910 OFFCURVE",
"431 900 OFFCURVE",
"410 900 CURVE SMOOTH",
"363 900 LINE",
"368 786 LINE"
);
}
);
width = 801;
}
);
leftKerningGroup = O;
note = Ohookabove;
rightKerningGroup = O;
unicode = 1ECE;
},
{
glyphname = Ohorn;
lastChange = "2015-10-27 15:50:13 +0000";
layers = (
{
layerId = "3717E746-9C6F-47D9-B2A4-B2AE7EC69823";
name = Bold;
paths = (
{
closed = 1;
nodes = (
"638 -10 OFFCURVE",
"769 128 OFFCURVE",
"769 350 CURVE SMOOTH",
"769 572 OFFCURVE",
"638 710 OFFCURVE",
"401 710 CURVE SMOOTH",
"161 710 OFFCURVE",
"32 572 OFFCURVE",
"32 350 CURVE SMOOTH",
"32 128 OFFCURVE",
"161 -10 OFFCURVE",
"401 -10 CURVE SMOOTH"
);
},
{
closed = 1;
nodes = (
"286 52 OFFCURVE",
"236 177 OFFCURVE",
"236 350 CURVE SMOOTH",
"236 523 OFFCURVE",
"286 648 OFFCURVE",
"401 648 CURVE SMOOTH",
"514 648 OFFCURVE",
"565 523 OFFCURVE",
"565 350 CURVE SMOOTH",
"565 177 OFFCURVE",
"514 52 OFFCURVE",
"401 52 CURVE SMOOTH"
);
},
{
closed = 1;
nodes = (
"853 524 OFFCURVE",
"899 595 OFFCURVE",
"899 653 CURVE SMOOTH",
"899 682 OFFCURVE",
"895 745 OFFCURVE",
"808 745 CURVE SMOOTH",
"736 745 OFFCURVE",
"722 699 OFFCURVE",
"722 669 CURVE SMOOTH",
"722 624 OFFCURVE",
"750 596 OFFCURVE",
"793 596 CURVE SMOOTH",
"798 596 OFFCURVE",
"802 596 OFFCURVE",
"807 597 CURVE",
"792 547 OFFCURVE",
"716 496 OFFCURVE",
"695 483 CURVE",
"730 441 LINE"
);
}
);
width = 862;
}
);
leftKerningGroup = O;
note = Ohorn;
rightKerningGroup = O;
unicode = 01A0;
},
{
glyphname = Ohornacute;
lastChange = "2015-10-27 15:50:13 +0000";
layers = (
{
layerId = "3717E746-9C6F-47D9-B2A4-B2AE7EC69823";
name = Bold;
paths = (
{
closed = 1;
nodes = (
"638 -10 OFFCURVE",
"769 128 OFFCURVE",
"769 350 CURVE SMOOTH",
"769 572 OFFCURVE",
"638 710 OFFCURVE",
"401 710 CURVE SMOOTH",
"161 710 OFFCURVE",
"32 572 OFFCURVE",
"32 350 CURVE SMOOTH",
"32 128 OFFCURVE",
"161 -10 OFFCURVE",
"401 -10 CURVE SMOOTH"
);
},
{
closed = 1;
nodes = (
"286 52 OFFCURVE",
"236 177 OFFCURVE",
"236 350 CURVE SMOOTH",
"236 523 OFFCURVE",
"286 648 OFFCURVE",
"401 648 CURVE SMOOTH",
"514 648 OFFCURVE",
"565 523 OFFCURVE",
"565 350 CURVE SMOOTH",
"565 177 OFFCURVE",
"514 52 OFFCURVE",
"401 52 CURVE SMOOTH"
);
},
{
closed = 1;
nodes = (
"482 885 LINE SMOOTH",
"521 908 OFFCURVE",
"543 930 OFFCURVE",
"543 959 CURVE SMOOTH",
"543 981 OFFCURVE",
"526 1010 OFFCURVE",
"482 1010 CURVE SMOOTH",
"441 1010 OFFCURVE",
"411 974 OFFCURVE",
"406 968 CURVE",
"279 829 LINE",
"310 785 LINE"
);
},
{
closed = 1;
nodes = (
"853 524 OFFCURVE",
"899 595 OFFCURVE",
"899 653 CURVE SMOOTH",
"899 682 OFFCURVE",
"895 745 OFFCURVE",
"808 745 CURVE SMOOTH",
"736 745 OFFCURVE",
"722 699 OFFCURVE",
"722 669 CURVE SMOOTH",
"722 624 OFFCURVE",
"750 596 OFFCURVE",
"793 596 CURVE SMOOTH",
"798 596 OFFCURVE",
"802 596 OFFCURVE",
"807 597 CURVE",
"792 547 OFFCURVE",
"716 496 OFFCURVE",
"695 483 CURVE",
"730 441 LINE"
);
}
);
width = 862;
}
);
leftKerningGroup = O;
note = Ohornacute;
rightKerningGroup = O;
unicode = 1EDA;
},
{
glyphname = Ohorndotbelow;
lastChange = "2015-11-29 22:42:00 +0000";
layers = (
{
layerId = "3717E746-9C6F-47D9-B2A4-B2AE7EC69823";
name = Bold;
paths = (
{
closed = 1;
nodes = (
"638 -10 OFFCURVE",
"769 128 OFFCURVE",
"769 350 CURVE SMOOTH",
"769 572 OFFCURVE",
"638 710 OFFCURVE",
"401 710 CURVE SMOOTH",
"161 710 OFFCURVE",
"32 572 OFFCURVE",
"32 350 CURVE SMOOTH",
"32 128 OFFCURVE",
"161 -10 OFFCURVE",
"401 -10 CURVE SMOOTH"
);
},
{
closed = 1;
nodes = (
"286 52 OFFCURVE",
"236 177 OFFCURVE",
"236 350 CURVE SMOOTH",
"236 523 OFFCURVE",
"286 648 OFFCURVE",
"401 648 CURVE SMOOTH",
"514 648 OFFCURVE",
"565 523 OFFCURVE",
"565 350 CURVE SMOOTH",
"565 177 OFFCURVE",
"514 52 OFFCURVE",
"401 52 CURVE SMOOTH"
);
},
{
closed = 1;
nodes = (
"853 524 OFFCURVE",
"899 595 OFFCURVE",
"899 653 CURVE SMOOTH",
"899 682 OFFCURVE",
"895 745 OFFCURVE",
"808 745 CURVE SMOOTH",
"736 745 OFFCURVE",
"722 699 OFFCURVE",
"722 669 CURVE SMOOTH",
"722 624 OFFCURVE",
"750 596 OFFCURVE",
"793 596 CURVE SMOOTH",
"798 596 OFFCURVE",
"802 596 OFFCURVE",
"807 597 CURVE",
"792 547 OFFCURVE",
"716 496 OFFCURVE",
"695 483 CURVE",
"730 441 LINE"
);
},
{
closed = 1;
nodes = (
"445 -195 OFFCURVE",
"473 -163 OFFCURVE",
"473 -123 CURVE SMOOTH",
"473 -83 OFFCURVE",
"445 -50 OFFCURVE",
"400 -50 CURVE SMOOTH",
"355 -50 OFFCURVE",
"328 -83 OFFCURVE",
"328 -123 CURVE SMOOTH",
"328 -163 OFFCURVE",
"355 -195 OFFCURVE",
"400 -195 CURVE SMOOTH"
);
}
);
width = 862;
}
);
leftKerningGroup = O;
note = Ohorndotbelow;
rightKerningGroup = O;
unicode = 1EE2;
},
{
glyphname = Ohorngrave;
lastChange = "2015-10-27 15:50:13 +0000";
layers = (
{
layerId = "3717E746-9C6F-47D9-B2A4-B2AE7EC69823";
name = Bold;
paths = (
{
closed = 1;
nodes = (
"638 -10 OFFCURVE",
"769 128 OFFCURVE",
"769 350 CURVE SMOOTH",
"769 572 OFFCURVE",
"638 710 OFFCURVE",
"401 710 CURVE SMOOTH",
"161 710 OFFCURVE",
"32 572 OFFCURVE",
"32 350 CURVE SMOOTH",
"32 128 OFFCURVE",
"161 -10 OFFCURVE",
"401 -10 CURVE SMOOTH"
);
},
{
closed = 1;
nodes = (
"286 52 OFFCURVE",
"236 177 OFFCURVE",
"236 350 CURVE SMOOTH",
"236 523 OFFCURVE",
"286 648 OFFCURVE",
"401 648 CURVE SMOOTH",
"514 648 OFFCURVE",
"565 523 OFFCURVE",
"565 350 CURVE SMOOTH",
"565 177 OFFCURVE",
"514 52 OFFCURVE",
"401 52 CURVE SMOOTH"
);
},
{
closed = 1;
nodes = (
"522 829 LINE",
"395 968 LINE",
"390 974 OFFCURVE",
"360 1010 OFFCURVE",
"319 1010 CURVE SMOOTH",
"275 1010 OFFCURVE",
"258 981 OFFCURVE",
"258 959 CURVE SMOOTH",
"258 930 OFFCURVE",
"280 908 OFFCURVE",
"319 885 CURVE SMOOTH",
"491 785 LINE"
);
},
{
closed = 1;
nodes = (
"853 524 OFFCURVE",
"899 595 OFFCURVE",
"899 653 CURVE SMOOTH",
"899 682 OFFCURVE",
"895 745 OFFCURVE",
"808 745 CURVE SMOOTH",
"736 745 OFFCURVE",
"722 699 OFFCURVE",
"722 669 CURVE SMOOTH",
"722 624 OFFCURVE",
"750 596 OFFCURVE",
"793 596 CURVE SMOOTH",
"798 596 OFFCURVE",
"802 596 OFFCURVE",
"807 597 CURVE",
"792 547 OFFCURVE",
"716 496 OFFCURVE",
"695 483 CURVE",
"730 441 LINE"
);
}
);
width = 862;
}
);
leftKerningGroup = O;
note = Ohorngrave;
rightKerningGroup = O;
unicode = 1EDC;
},
{
glyphname = Ohornhookabove;
lastChange = "2015-10-27 15:50:13 +0000";
layers = (
{
layerId = "3717E746-9C6F-47D9-B2A4-B2AE7EC69823";
name = Bold;
paths = (
{
closed = 1;
nodes = (
"638 -10 OFFCURVE",
"769 128 OFFCURVE",
"769 350 CURVE SMOOTH",
"769 572 OFFCURVE",
"638 710 OFFCURVE",
"401 710 CURVE SMOOTH",
"161 710 OFFCURVE",
"32 572 OFFCURVE",
"32 350 CURVE SMOOTH",
"32 128 OFFCURVE",
"161 -10 OFFCURVE",
"401 -10 CURVE SMOOTH"
);
},
{
closed = 1;
nodes = (
"286 52 OFFCURVE",
"236 177 OFFCURVE",
"236 350 CURVE SMOOTH",
"236 523 OFFCURVE",
"286 648 OFFCURVE",
"401 648 CURVE SMOOTH",
"514 648 OFFCURVE",
"565 523 OFFCURVE",
"565 350 CURVE SMOOTH",
"565 177 OFFCURVE",
"514 52 OFFCURVE",
"401 52 CURVE SMOOTH"
);
},
{
closed = 1;
nodes = (
"436 781 LINE",
"446 854 LINE",
"501 859 OFFCURVE",
"549 878 OFFCURVE",
"549 946 CURVE SMOOTH",
"549 1020 OFFCURVE",
"479 1046 OFFCURVE",
"412 1046 CURVE SMOOTH",
"377 1046 OFFCURVE",
"343 1038 OFFCURVE",
"320 1027 CURVE",
"327 982 LINE",
"348 994 OFFCURVE",
"373 998 OFFCURVE",
"391 998 CURVE SMOOTH",
"434 998 OFFCURVE",
"456 973 OFFCURVE",
"456 947 CURVE SMOOTH",
"456 905 OFFCURVE",
"421 895 OFFCURVE",
"400 895 CURVE SMOOTH",
"353 895 LINE",
"358 781 LINE"
);
},
{
closed = 1;
nodes = (
"853 524 OFFCURVE",
"899 595 OFFCURVE",
"899 653 CURVE SMOOTH",
"899 682 OFFCURVE",
"895 745 OFFCURVE",
"808 745 CURVE SMOOTH",
"736 745 OFFCURVE",
"722 699 OFFCURVE",
"722 669 CURVE SMOOTH",
"722 624 OFFCURVE",
"750 596 OFFCURVE",
"793 596 CURVE SMOOTH",
"798 596 OFFCURVE",
"802 596 OFFCURVE",
"807 597 CURVE",
"792 547 OFFCURVE",
"716 496 OFFCURVE",
"695 483 CURVE",
"730 441 LINE"
);
}
);
width = 862;
}
);
leftKerningGroup = O;
note = Ohornhookabove;
rightKerningGroup = O;
unicode = 1EDE;
},
{
glyphname = Ohorntilde;
lastChange = "2015-10-27 15:50:13 +0000";
layers = (
{
layerId = "3717E746-9C6F-47D9-B2A4-B2AE7EC69823";
name = Bold;
paths = (
{
closed = 1;
nodes = (
"638 -10 OFFCURVE",
"769 128 OFFCURVE",
"769 350 CURVE SMOOTH",
"769 572 OFFCURVE",
"638 710 OFFCURVE",
"401 710 CURVE SMOOTH",
"161 710 OFFCURVE",
"32 572 OFFCURVE",
"32 350 CURVE SMOOTH",
"32 128 OFFCURVE",
"161 -10 OFFCURVE",
"401 -10 CURVE SMOOTH"
);
},
{
closed = 1;
nodes = (
"286 52 OFFCURVE",
"236 177 OFFCURVE",
"236 350 CURVE SMOOTH",
"236 523 OFFCURVE",
"286 648 OFFCURVE",
"401 648 CURVE SMOOTH",
"514 648 OFFCURVE",
"565 523 OFFCURVE",
"565 350 CURVE SMOOTH",
"565 177 OFFCURVE",
"514 52 OFFCURVE",
"401 52 CURVE SMOOTH"
);
},
{
closed = 1;
nodes = (
"272 786 LINE",
"277 817 OFFCURVE",
"294 836 OFFCURVE",
"323 836 CURVE SMOOTH",
"357 836 OFFCURVE",
"423 786 OFFCURVE",
"487 786 CURVE SMOOTH",
"577 786 OFFCURVE",
"617 839 OFFCURVE",
"624 915 CURVE",
"531 915 LINE",
"520 867 OFFCURVE",
"498 864 OFFCURVE",
"476 864 CURVE SMOOTH",
"435 864 OFFCURVE",
"398 914 OFFCURVE",
"317 914 CURVE SMOOTH",
"238 914 OFFCURVE",
"191 869 OFFCURVE",
"179 786 CURVE"
);
},
{
closed = 1;
nodes = (
"853 524 OFFCURVE",
"899 595 OFFCURVE",
"899 653 CURVE SMOOTH",
"899 682 OFFCURVE",
"895 745 OFFCURVE",
"808 745 CURVE SMOOTH",
"736 745 OFFCURVE",
"722 699 OFFCURVE",
"722 669 CURVE SMOOTH",
"722 624 OFFCURVE",
"750 596 OFFCURVE",
"793 596 CURVE SMOOTH",
"798 596 OFFCURVE",
"802 596 OFFCURVE",
"807 597 CURVE",
"792 547 OFFCURVE",
"716 496 OFFCURVE",
"695 483 CURVE",
"730 441 LINE"
);
}
);
width = 862;
}
);
leftKerningGroup = O;
note = Ohorntilde;
rightKerningGroup = O;
unicode = 1EE0;
},
{
glyphname = Ohungarumlaut;
lastChange = "2015-10-27 15:50:12 +0000";
layers = (
{
layerId = "3717E746-9C6F-47D9-B2A4-B2AE7EC69823";
name = Bold;
paths = (
{
closed = 1;
nodes = (
"638 -10 OFFCURVE",
"769 128 OFFCURVE",
"769 350 CURVE SMOOTH",
"769 572 OFFCURVE",
"638 710 OFFCURVE",
"401 710 CURVE SMOOTH",
"161 710 OFFCURVE",
"32 572 OFFCURVE",
"32 350 CURVE SMOOTH",
"32 128 OFFCURVE",
"161 -10 OFFCURVE",
"401 -10 CURVE SMOOTH"
);
},
{
closed = 1;
nodes = (
"286 52 OFFCURVE",
"236 177 OFFCURVE",
"236 350 CURVE SMOOTH",
"236 523 OFFCURVE",
"286 648 OFFCURVE",
"401 648 CURVE SMOOTH",
"514 648 OFFCURVE",
"565 523 OFFCURVE",
"565 350 CURVE SMOOTH",
"565 177 OFFCURVE",
"514 52 OFFCURVE",
"401 52 CURVE SMOOTH"
);
},
{
closed = 1;
nodes = (
"401 884 LINE SMOOTH",
"440 907 OFFCURVE",
"462 929 OFFCURVE",
"462 958 CURVE SMOOTH",
"462 980 OFFCURVE",
"445 1009 OFFCURVE",
"401 1009 CURVE SMOOTH",
"360 1009 OFFCURVE",
"330 973 OFFCURVE",
"325 967 CURVE",
"198 828 LINE",
"229 784 LINE"
);
},
{
closed = 1;
nodes = (
"635 884 LINE SMOOTH",
"674 907 OFFCURVE",
"696 929 OFFCURVE",
"696 958 CURVE SMOOTH",
"696 980 OFFCURVE",
"679 1009 OFFCURVE",
"635 1009 CURVE SMOOTH",
"594 1009 OFFCURVE",
"564 973 OFFCURVE",
"559 967 CURVE",
"432 828 LINE",
"463 784 LINE"
);
}
);
width = 801;
}
);
leftKerningGroup = O;
note = Ohungarumlaut;
rightKerningGroup = O;
unicode = 0150;
},
{
glyphname = Omacron;
lastChange = "2015-10-27 15:50:12 +0000";
layers = (
{
layerId = "3717E746-9C6F-47D9-B2A4-B2AE7EC69823";
name = Bold;
paths = (
{
closed = 1;
nodes = (
"638 -10 OFFCURVE",
"769 128 OFFCURVE",
"769 350 CURVE SMOOTH",
"769 572 OFFCURVE",
"638 710 OFFCURVE",
"401 710 CURVE SMOOTH",
"161 710 OFFCURVE",
"32 572 OFFCURVE",
"32 350 CURVE SMOOTH",
"32 128 OFFCURVE",
"161 -10 OFFCURVE",
"401 -10 CURVE SMOOTH"
);
},
{
closed = 1;
nodes = (
"286 52 OFFCURVE",
"236 177 OFFCURVE",
"236 350 CURVE SMOOTH",
"236 523 OFFCURVE",
"286 648 OFFCURVE",
"401 648 CURVE SMOOTH",
"514 648 OFFCURVE",
"565 523 OFFCURVE",
"565 350 CURVE SMOOTH",
"565 177 OFFCURVE",
"514 52 OFFCURVE",
"401 52 CURVE SMOOTH"
);
},
{
closed = 1;
nodes = (
"614 786 LINE",
"614 843 LINE",
"186 843 LINE",
"186 786 LINE"
);
}
);
width = 801;
}
);
leftKerningGroup = O;
note = Omacron;
rightKerningGroup = O;
unicode = 014C;
},
{
glyphname = Oslash;
lastChange = "2015-11-29 22:42:19 +0000";
layers = (
{
layerId = "3717E746-9C6F-47D9-B2A4-B2AE7EC69823";
name = Bold;
paths = (
{
closed = 1;
nodes = (
"638 -10 OFFCURVE",
"769 128 OFFCURVE",
"769 350 CURVE SMOOTH",
"769 572 OFFCURVE",
"638 710 OFFCURVE",
"401 710 CURVE SMOOTH",
"161 710 OFFCURVE",
"32 572 OFFCURVE",
"32 350 CURVE SMOOTH",
"32 128 OFFCURVE",
"161 -10 OFFCURVE",
"401 -10 CURVE SMOOTH"
);
},
{
closed = 1;
nodes = (
"286 52 OFFCURVE",
"236 177 OFFCURVE",
"236 350 CURVE SMOOTH",
"236 523 OFFCURVE",
"286 648 OFFCURVE",
"401 648 CURVE SMOOTH",
"514 648 OFFCURVE",
"565 523 OFFCURVE",
"565 350 CURVE SMOOTH",
"565 177 OFFCURVE",
"514 52 OFFCURVE",
"401 52 CURVE SMOOTH"
);
},
{
closed = 1;
nodes = (
"736 688 LINE",
"685 728 LINE",
"44 0 LINE",
"91 -39 LINE"
);
}
);
width = 801;
}
);
leftKerningGroup = O;
note = Oslash;
rightKerningGroup = O;
unicode = 00D8;
},
{
glyphname = Oslashacute;
lastChange = "2015-11-29 22:42:05 +0000";
layers = (
{
layerId = "3717E746-9C6F-47D9-B2A4-B2AE7EC69823";
name = Bold;
paths = (
{
closed = 1;
nodes = (
"638 -10 OFFCURVE",
"769 128 OFFCURVE",
"769 350 CURVE SMOOTH",
"769 572 OFFCURVE",
"638 710 OFFCURVE",
"401 710 CURVE SMOOTH",
"161 710 OFFCURVE",
"32 572 OFFCURVE",
"32 350 CURVE SMOOTH",
"32 128 OFFCURVE",
"161 -10 OFFCURVE",
"401 -10 CURVE SMOOTH"
);
},
{
closed = 1;
nodes = (
"286 52 OFFCURVE",
"236 177 OFFCURVE",
"236 350 CURVE SMOOTH",
"236 523 OFFCURVE",
"286 648 OFFCURVE",
"401 648 CURVE SMOOTH",
"514 648 OFFCURVE",
"565 523 OFFCURVE",
"565 350 CURVE SMOOTH",
"565 177 OFFCURVE",
"514 52 OFFCURVE",
"401 52 CURVE SMOOTH"
);
},
{
closed = 1;
nodes = (
"481 886 LINE SMOOTH",
"520 909 OFFCURVE",
"542 931 OFFCURVE",
"542 960 CURVE SMOOTH",
"542 982 OFFCURVE",
"525 1011 OFFCURVE",
"481 1011 CURVE SMOOTH",
"440 1011 OFFCURVE",
"410 975 OFFCURVE",
"405 969 CURVE",
"278 830 LINE",
"309 786 LINE"
);
},
{
closed = 1;
nodes = (
"736 688 LINE",
"685 728 LINE",
"44 0 LINE",
"91 -39 LINE"
);
}
);
width = 801;
}
);
leftKerningGroup = O;
note = Oslashacute;
rightKerningGroup = O;
unicode = 01FE;
},
{
glyphname = Otilde;
lastChange = "2015-10-27 15:50:13 +0000";
layers = (
{
layerId = "3717E746-9C6F-47D9-B2A4-B2AE7EC69823";
name = Bold;
paths = (
{
closed = 1;
nodes = (
"638 -10 OFFCURVE",
"769 128 OFFCURVE",
"769 350 CURVE SMOOTH",
"769 572 OFFCURVE",
"638 710 OFFCURVE",
"401 710 CURVE SMOOTH",
"161 710 OFFCURVE",
"32 572 OFFCURVE",
"32 350 CURVE SMOOTH",
"32 128 OFFCURVE",
"161 -10 OFFCURVE",
"401 -10 CURVE SMOOTH"
);
},
{
closed = 1;
nodes = (
"286 52 OFFCURVE",
"236 177 OFFCURVE",
"236 350 CURVE SMOOTH",
"236 523 OFFCURVE",
"286 648 OFFCURVE",
"401 648 CURVE SMOOTH",
"514 648 OFFCURVE",
"565 523 OFFCURVE",
"565 350 CURVE SMOOTH",
"565 177 OFFCURVE",
"514 52 OFFCURVE",
"401 52 CURVE SMOOTH"
);
},
{
closed = 1;
nodes = (
"271 786 LINE",
"276 817 OFFCURVE",
"293 836 OFFCURVE",
"322 836 CURVE SMOOTH",
"356 836 OFFCURVE",
"422 786 OFFCURVE",
"486 786 CURVE SMOOTH",
"576 786 OFFCURVE",
"616 839 OFFCURVE",
"623 915 CURVE",
"530 915 LINE",
"519 867 OFFCURVE",
"497 864 OFFCURVE",
"475 864 CURVE SMOOTH",
"434 864 OFFCURVE",
"397 914 OFFCURVE",
"316 914 CURVE SMOOTH",
"237 914 OFFCURVE",
"190 869 OFFCURVE",
"178 786 CURVE"
);
}
);
width = 801;
}
);
leftKerningGroup = O;
note = Otilde;
rightKerningGroup = O;
unicode = 00D5;
},
{
glyphname = OE;
lastChange = "2015-10-27 15:50:12 +0000";
layers = (
{
layerId = "3717E746-9C6F-47D9-B2A4-B2AE7EC69823";
name = Bold;
paths = (
{
closed = 1;
nodes = (
"444 -10 OFFCURVE",
"494 8 OFFCURVE",
"540 59 CURVE",
"540 0 LINE",
"1065 0 LINE",
"1086 196 LINE",
"1044 196 LINE",
"1024 174 OFFCURVE",
"988 99 OFFCURVE",
"985 59 CURVE",
"740 59 LINE",
"740 330 LINE",
"889 330 LINE",
"891 313 OFFCURVE",
"900 274 OFFCURVE",
"911 241 CURVE",
"942 241 LINE",
"942 477 LINE",
"911 477 LINE",
"899 446 OFFCURVE",
"892 407 OFFCURVE",
"889 389 CURVE",
"740 389 LINE",
"740 641 LINE",
"977 641 LINE",
"979 607 OFFCURVE",
"1008 527 OFFCURVE",
"1024 503 CURVE",
"1066 503 LINE",
"1066 700 LINE",
"540 700 LINE",
"540 637 LINE",
"504 682 OFFCURVE",
"444 710 OFFCURVE",
"364 710 CURVE SMOOTH",
"124 710 OFFCURVE",
"32 520 OFFCURVE",
"32 350 CURVE SMOOTH",
"32 180 OFFCURVE",
"124 -10 OFFCURVE",
"364 -10 CURVE SMOOTH"
);
},
{
closed = 1;
nodes = (
"286 52 OFFCURVE",
"236 177 OFFCURVE",
"236 350 CURVE SMOOTH",
"236 523 OFFCURVE",
"286 648 OFFCURVE",
"401 648 CURVE SMOOTH",
"466 648 OFFCURVE",
"520 600 OFFCURVE",
"540 547 CURVE",
"540 152 LINE",
"513 93 OFFCURVE",
"466 52 OFFCURVE",
"401 52 CURVE SMOOTH"
);
}
);
width = 1120;
}
);
note = OE;
unicode = 0152;
},
{
glyphname = P;
lastChange = "2015-10-27 15:50:13 +0000";
layers = (
{
layerId = "3717E746-9C6F-47D9-B2A4-B2AE7EC69823";
name = Bold;
paths = (
{
closed = 1;
nodes = (
"384 0 LINE",
"384 23 LINE",
"356 31 OFFCURVE",
"326 41 OFFCURVE",
"304 45 CURVE",
"304 268 LINE",
"425 268 LINE SMOOTH",
"586 268 OFFCURVE",
"665 376 OFFCURVE",
"665 496 CURVE SMOOTH",
"665 605 OFFCURVE",
"610 700 OFFCURVE",
"422 700 CURVE SMOOTH",
"26 700 LINE",
"26 677 LINE",
"56 667 OFFCURVE",
"81 660 OFFCURVE",
"104 655 CURVE",
"104 47 LINE",
"104 47 OFFCURVE",
"53 33 OFFCURVE",
"24 25 CURVE",
"24 0 LINE"
);
},
{
closed = 1;
nodes = (
"304 641 LINE",
"369 641 LINE SMOOTH",
"437 641 OFFCURVE",
"467 589 OFFCURVE",
"467 498 CURVE SMOOTH",
"467 409 OFFCURVE",
"442 326 OFFCURVE",
"369 326 CURVE SMOOTH",
"304 326 LINE"
);
}
);
width = 679;
}
);
note = P;
unicode = 0050;
},
{
glyphname = Thorn;
lastChange = "2015-11-29 22:42:30 +0000";
layers = (
{
layerId = "3717E746-9C6F-47D9-B2A4-B2AE7EC69823";
name = Bold;
paths = (
{
closed = 1;
nodes = (
"384 0 LINE",
"384 23 LINE",
"356 31 OFFCURVE",
"326 41 OFFCURVE",
"304 45 CURVE",
"304 154 LINE",
"425 154 LINE SMOOTH",
"586 154 OFFCURVE",
"665 262 OFFCURVE",
"665 382 CURVE SMOOTH",
"665 491 OFFCURVE",
"610 586 OFFCURVE",
"422 586 CURVE SMOOTH",
"304 586 LINE",
"304 700 LINE",
"26 700 LINE",
"26 677 LINE",
"56 667 OFFCURVE",
"81 660 OFFCURVE",
"104 655 CURVE",
"104 47 LINE",
"104 47 OFFCURVE",
"53 33 OFFCURVE",
"24 25 CURVE",
"24 0 LINE"
);
},
{
closed = 1;
nodes = (
"304 527 LINE",
"369 527 LINE SMOOTH",
"437 527 OFFCURVE",
"467 475 OFFCURVE",
"467 384 CURVE SMOOTH",
"467 295 OFFCURVE",
"442 212 OFFCURVE",
"369 212 CURVE SMOOTH",
"304 212 LINE"
);
}
);
width = 679;
}
);
note = Thorn;
unicode = 00DE;
},
{
glyphname = Q;
lastChange = "2015-11-29 22:43:44 +0000";
layers = (
{
layerId = "3717E746-9C6F-47D9-B2A4-B2AE7EC69823";
name = Bold;
paths = (
{
closed = 1;
nodes = (
"638 -10 OFFCURVE",
"769 128 OFFCURVE",
"769 350 CURVE SMOOTH",
"769 572 OFFCURVE",
"638 710 OFFCURVE",
"401 710 CURVE SMOOTH",
"161 710 OFFCURVE",
"32 572 OFFCURVE",
"32 350 CURVE SMOOTH",
"32 128 OFFCURVE",
"161 -10 OFFCURVE",
"401 -10 CURVE SMOOTH"
);
},
{
closed = 1;
nodes = (
"286 52 OFFCURVE",
"236 177 OFFCURVE",
"236 350 CURVE SMOOTH",
"236 523 OFFCURVE",
"286 648 OFFCURVE",
"401 648 CURVE SMOOTH",
"514 648 OFFCURVE",
"565 523 OFFCURVE",
"565 350 CURVE SMOOTH",
"565 177 OFFCURVE",
"514 52 OFFCURVE",
"401 52 CURVE SMOOTH"
);
},
{
closed = 1;
nodes = (
"659 -107 LINE",
"558 -99 OFFCURVE",
"496 -47 OFFCURVE",
"487 29 CURVE",
"309 29 LINE",
"323 -71 OFFCURVE",
"440 -141 OFFCURVE",
"659 -159 CURVE"
);
}
);
width = 801;
}
);
leftKerningGroup = O;
note = Q;
rightKerningGroup = O;
unicode = 0051;
},
{
glyphname = R;
lastChange = "2015-11-29 22:44:09 +0000";
layers = (
{
layerId = "3717E746-9C6F-47D9-B2A4-B2AE7EC69823";
name = Bold;
paths = (
{
closed = 1;
nodes = (
"384 0 LINE",
"384 23 LINE",
"356 31 OFFCURVE",
"326 41 OFFCURVE",
"304 45 CURVE",
"304 298 LINE",
"441 298 LINE SMOOTH",
"578 298 OFFCURVE",
"675 378 OFFCURVE",
"675 506 CURVE SMOOTH",
"675 615 OFFCURVE",
"628 700 OFFCURVE",
"440 700 CURVE SMOOTH",
"26 700 LINE",
"26 677 LINE",
"56 667 OFFCURVE",
"81 660 OFFCURVE",
"104 655 CURVE",
"104 47 LINE",
"104 47 OFFCURVE",
"53 33 OFFCURVE",
"24 25 CURVE",
"24 0 LINE"
);
},
{
closed = 1;
nodes = (
"304 641 LINE",
"369 641 LINE SMOOTH",
"444 641 OFFCURVE",
"477 599 OFFCURVE",
"477 508 CURVE SMOOTH",
"477 419 OFFCURVE",
"449 356 OFFCURVE",
"369 356 CURVE SMOOTH",
"304 356 LINE"
);
},
{
closed = 1;
nodes = (
"743 0 LINE",
"743 22 LINE",
"714 33 OFFCURVE",
"688 40 OFFCURVE",
"664 46 CURVE",
"519 318 LINE",
"348 318 LINE",
"503 0 LINE"
);
}
);
width = 757;
}
);
note = R;
rightKerningGroup = R;
unicode = 0052;
},
{
glyphname = Racute;
lastChange = "2015-11-29 22:44:13 +0000";
layers = (
{
layerId = "3717E746-9C6F-47D9-B2A4-B2AE7EC69823";
name = Bold;
paths = (
{
closed = 1;
nodes = (
"384 0 LINE",
"384 23 LINE",
"356 31 OFFCURVE",
"326 41 OFFCURVE",
"304 45 CURVE",
"304 298 LINE",
"441 298 LINE SMOOTH",
"578 298 OFFCURVE",
"675 378 OFFCURVE",
"675 506 CURVE SMOOTH",
"675 615 OFFCURVE",
"628 700 OFFCURVE",
"440 700 CURVE SMOOTH",
"26 700 LINE",
"26 677 LINE",
"56 667 OFFCURVE",
"81 660 OFFCURVE",
"104 655 CURVE",
"104 47 LINE",
"104 47 OFFCURVE",
"53 33 OFFCURVE",
"24 25 CURVE",
"24 0 LINE"
);
},
{
closed = 1;
nodes = (
"304 641 LINE",
"369 641 LINE SMOOTH",
"444 641 OFFCURVE",
"477 599 OFFCURVE",
"477 508 CURVE SMOOTH",
"477 419 OFFCURVE",
"449 356 OFFCURVE",
"369 356 CURVE SMOOTH",
"304 356 LINE"
);
},
{
closed = 1;
nodes = (
"743 0 LINE",
"743 22 LINE",
"714 33 OFFCURVE",
"688 40 OFFCURVE",
"664 46 CURVE",
"519 318 LINE",
"348 318 LINE",
"503 0 LINE"
);
},
{
closed = 1;
nodes = (
"454 886 LINE SMOOTH",
"493 909 OFFCURVE",
"515 931 OFFCURVE",
"515 960 CURVE SMOOTH",
"515 982 OFFCURVE",
"498 1011 OFFCURVE",
"454 1011 CURVE SMOOTH",
"413 1011 OFFCURVE",
"383 975 OFFCURVE",
"378 969 CURVE",
"251 830 LINE",
"282 786 LINE"
);
}
);
width = 757;
}
);
note = Racute;
rightKerningGroup = R;
unicode = 0154;
},
{
glyphname = Rcaron;
lastChange = "2015-11-29 22:44:17 +0000";
layers = (
{
layerId = "3717E746-9C6F-47D9-B2A4-B2AE7EC69823";
name = Bold;
paths = (
{
closed = 1;
nodes = (
"384 0 LINE",
"384 23 LINE",
"356 31 OFFCURVE",
"326 41 OFFCURVE",
"304 45 CURVE",
"304 298 LINE",
"441 298 LINE SMOOTH",
"578 298 OFFCURVE",
"675 378 OFFCURVE",
"675 506 CURVE SMOOTH",
"675 615 OFFCURVE",
"628 700 OFFCURVE",
"440 700 CURVE SMOOTH",
"26 700 LINE",
"26 677 LINE",
"56 667 OFFCURVE",
"81 660 OFFCURVE",
"104 655 CURVE",
"104 47 LINE",
"104 47 OFFCURVE",
"53 33 OFFCURVE",
"24 25 CURVE",
"24 0 LINE"
);
},
{
closed = 1;
nodes = (
"304 641 LINE",
"369 641 LINE SMOOTH",
"444 641 OFFCURVE",
"477 599 OFFCURVE",
"477 508 CURVE SMOOTH",
"477 419 OFFCURVE",
"449 356 OFFCURVE",
"369 356 CURVE SMOOTH",
"304 356 LINE"
);
},
{
closed = 1;
nodes = (
"743 0 LINE",
"743 22 LINE",
"714 33 OFFCURVE",
"688 40 OFFCURVE",
"664 46 CURVE",
"519 318 LINE",
"348 318 LINE",
"503 0 LINE"
);
},
{
closed = 1;
nodes = (
"338 786 OFFCURVE",
"429 786 OFFCURVE",
"429 786 CURVE",
"450 819 OFFCURVE",
"553 913 OFFCURVE",
"600 942 CURVE",
"521 997 LINE",
"477 962 OFFCURVE",
"407 892 OFFCURVE",
"385 855 CURVE",
"385 855 OFFCURVE",
"382 855 OFFCURVE",
"382 855 CURVE",
"360 892 OFFCURVE",
"290 962 OFFCURVE",
"246 997 CURVE",
"167 942 LINE",
"214 913 OFFCURVE",
"317 819 OFFCURVE",
"338 786 CURVE"
);
}
);
width = 757;
}
);
note = Rcaron;
rightKerningGroup = R;
unicode = 0158;
},
{
glyphname = Rcommaaccent;
lastChange = "2015-11-29 22:44:21 +0000";
layers = (
{
layerId = "3717E746-9C6F-47D9-B2A4-B2AE7EC69823";
name = Bold;
paths = (
{
closed = 1;
nodes = (
"384 0 LINE",
"384 23 LINE",
"356 31 OFFCURVE",
"326 41 OFFCURVE",
"304 45 CURVE",
"304 298 LINE",
"441 298 LINE SMOOTH",
"578 298 OFFCURVE",
"675 378 OFFCURVE",
"675 506 CURVE SMOOTH",
"675 615 OFFCURVE",
"628 700 OFFCURVE",
"440 700 CURVE SMOOTH",
"26 700 LINE",
"26 677 LINE",
"56 667 OFFCURVE",
"81 660 OFFCURVE",
"104 655 CURVE",
"104 47 LINE",
"104 47 OFFCURVE",
"53 33 OFFCURVE",
"24 25 CURVE",
"24 0 LINE"
);
},
{
closed = 1;
nodes = (
"304 641 LINE",
"369 641 LINE SMOOTH",
"444 641 OFFCURVE",
"477 599 OFFCURVE",
"477 508 CURVE SMOOTH",
"477 419 OFFCURVE",
"449 356 OFFCURVE",
"369 356 CURVE SMOOTH",
"304 356 LINE"
);
},
{
closed = 1;
nodes = (
"437 -356 OFFCURVE",
"489 -264 OFFCURVE",
"489 -174 CURVE SMOOTH",
"489 -130 OFFCURVE",
"459 -89 OFFCURVE",
"397 -89 CURVE SMOOTH",
"351 -89 OFFCURVE",
"311 -119 OFFCURVE",
"311 -168 CURVE SMOOTH",
"311 -209 OFFCURVE",
"348 -246 OFFCURVE",
"391 -251 CURVE",
"382 -297 OFFCURVE",
"338 -344 OFFCURVE",
"313 -368 CURVE",
"372 -412 LINE"
);
},
{
closed = 1;
nodes = (
"743 0 LINE",
"743 22 LINE",
"714 33 OFFCURVE",
"688 40 OFFCURVE",
"664 46 CURVE",
"519 318 LINE",
"348 318 LINE",
"503 0 LINE"
);
}
);
width = 757;
}
);
note = Rcommaaccent;
rightKerningGroup = R;
unicode = 0156;
},
{
glyphname = Rdotbelow;
lastChange = "2015-11-29 22:44:25 +0000";
layers = (
{
layerId = "3717E746-9C6F-47D9-B2A4-B2AE7EC69823";
name = Bold;
paths = (
{
closed = 1;
nodes = (
"384 0 LINE",
"384 23 LINE",
"356 31 OFFCURVE",
"326 41 OFFCURVE",
"304 45 CURVE",
"304 298 LINE",
"441 298 LINE SMOOTH",
"578 298 OFFCURVE",
"675 378 OFFCURVE",
"675 506 CURVE SMOOTH",
"675 615 OFFCURVE",
"628 700 OFFCURVE",
"440 700 CURVE SMOOTH",
"26 700 LINE",
"26 677 LINE",
"56 667 OFFCURVE",
"81 660 OFFCURVE",
"104 655 CURVE",
"104 47 LINE",
"104 47 OFFCURVE",
"53 33 OFFCURVE",
"24 25 CURVE",
"24 0 LINE"
);
},
{
closed = 1;
nodes = (
"304 641 LINE",
"369 641 LINE SMOOTH",
"444 641 OFFCURVE",
"477 599 OFFCURVE",
"477 508 CURVE SMOOTH",
"477 419 OFFCURVE",
"449 356 OFFCURVE",
"369 356 CURVE SMOOTH",
"304 356 LINE"
);
},
{
closed = 1;
nodes = (
"423 -195 OFFCURVE",
"451 -163 OFFCURVE",
"451 -123 CURVE SMOOTH",
"451 -83 OFFCURVE",
"423 -50 OFFCURVE",
"378 -50 CURVE SMOOTH",
"333 -50 OFFCURVE",
"306 -83 OFFCURVE",
"306 -123 CURVE SMOOTH",
"306 -163 OFFCURVE",
"333 -195 OFFCURVE",
"378 -195 CURVE SMOOTH"
);
},
{
closed = 1;
nodes = (
"743 0 LINE",
"743 22 LINE",
"714 33 OFFCURVE",
"688 40 OFFCURVE",
"664 46 CURVE",
"519 318 LINE",
"348 318 LINE",
"503 0 LINE"
);
}
);
width = 757;
}
);
note = Rdotbelow;
rightKerningGroup = R;
unicode = 1E5A;
},
{
glyphname = Rdotbelowmacron;
lastChange = "2015-11-29 22:44:31 +0000";
layers = (
{
layerId = "3717E746-9C6F-47D9-B2A4-B2AE7EC69823";
name = Bold;
paths = (
{
closed = 1;
nodes = (
"384 0 LINE",
"384 23 LINE",
"356 31 OFFCURVE",
"326 41 OFFCURVE",
"304 45 CURVE",
"304 298 LINE",
"441 298 LINE SMOOTH",
"578 298 OFFCURVE",
"675 378 OFFCURVE",
"675 506 CURVE SMOOTH",
"675 615 OFFCURVE",
"628 700 OFFCURVE",
"440 700 CURVE SMOOTH",
"26 700 LINE",
"26 677 LINE",
"56 667 OFFCURVE",
"81 660 OFFCURVE",
"104 655 CURVE",
"104 47 LINE",
"104 47 OFFCURVE",
"53 33 OFFCURVE",
"24 25 CURVE",
"24 0 LINE"
);
},
{
closed = 1;
nodes = (
"304 641 LINE",
"369 641 LINE SMOOTH",
"444 641 OFFCURVE",
"477 599 OFFCURVE",
"477 508 CURVE SMOOTH",
"477 419 OFFCURVE",
"449 356 OFFCURVE",
"369 356 CURVE SMOOTH",
"304 356 LINE"
);
},
{
closed = 1;
nodes = (
"423 -195 OFFCURVE",
"451 -163 OFFCURVE",
"451 -123 CURVE SMOOTH",
"451 -83 OFFCURVE",
"423 -50 OFFCURVE",
"378 -50 CURVE SMOOTH",
"333 -50 OFFCURVE",
"306 -83 OFFCURVE",
"306 -123 CURVE SMOOTH",
"306 -163 OFFCURVE",
"333 -195 OFFCURVE",
"378 -195 CURVE SMOOTH"
);
},
{
closed = 1;
nodes = (
"743 0 LINE",
"743 22 LINE",
"714 33 OFFCURVE",
"688 40 OFFCURVE",
"664 46 CURVE",
"519 318 LINE",
"348 318 LINE",
"503 0 LINE"
);
},
{
closed = 1;
nodes = (
"577 785 LINE",
"577 843 LINE",
"103 843 LINE",
"103 785 LINE"
);
}
);
width = 757;
}
);
note = Rdotbelowmacron;
rightKerningGroup = R;
unicode = 1E5C;
},
{
glyphname = Rlinebelow;
lastChange = "2015-11-29 22:44:35 +0000";
layers = (
{
layerId = "3717E746-9C6F-47D9-B2A4-B2AE7EC69823";
name = Bold;
paths = (
{
closed = 1;
nodes = (
"384 0 LINE",
"384 23 LINE",
"356 31 OFFCURVE",
"326 41 OFFCURVE",
"304 45 CURVE",
"304 298 LINE",
"441 298 LINE SMOOTH",
"578 298 OFFCURVE",
"675 378 OFFCURVE",
"675 506 CURVE SMOOTH",
"675 615 OFFCURVE",
"628 700 OFFCURVE",
"440 700 CURVE SMOOTH",
"26 700 LINE",
"26 677 LINE",
"56 667 OFFCURVE",
"81 660 OFFCURVE",
"104 655 CURVE",
"104 47 LINE",
"104 47 OFFCURVE",
"53 33 OFFCURVE",
"24 25 CURVE",
"24 0 LINE"
);
},
{
closed = 1;
nodes = (
"304 641 LINE",
"369 641 LINE SMOOTH",
"444 641 OFFCURVE",
"477 599 OFFCURVE",
"477 508 CURVE SMOOTH",
"477 419 OFFCURVE",
"449 356 OFFCURVE",
"369 356 CURVE SMOOTH",
"304 356 LINE"
);
},
{
closed = 1;
nodes = (
"560 -112 LINE",
"560 -55 LINE",
"132 -55 LINE",
"132 -112 LINE"
);
},
{
closed = 1;
nodes = (
"743 0 LINE",
"743 22 LINE",
"714 33 OFFCURVE",
"688 40 OFFCURVE",
"664 46 CURVE",
"519 318 LINE",
"348 318 LINE",
"503 0 LINE"
);
}
);
width = 757;
}
);
note = Rlinebelow;
rightKerningGroup = R;
unicode = 1E5E;
},
{
glyphname = S;
lastChange = "2015-10-27 15:50:13 +0000";
layers = (
{
layerId = "3717E746-9C6F-47D9-B2A4-B2AE7EC69823";
name = Bold;
paths = (
{
closed = 1;
nodes = (
"471 -10 OFFCURVE",
"604 63 OFFCURVE",
"604 203 CURVE SMOOTH",
"604 482 OFFCURVE",
"245 421 OFFCURVE",
"245 554 CURVE SMOOTH",
"245 626 OFFCURVE",
"305 648 OFFCURVE",
"368 648 CURVE SMOOTH",
"414 648 OFFCURVE",
"462 637 OFFCURVE",
"490 616 CURVE",
"495 563 OFFCURVE",
"503 527 OFFCURVE",
"516 486 CURVE",
"562 486 LINE",
"579 636 LINE",
"520 689 OFFCURVE",
"443 710 OFFCURVE",
"327 710 CURVE SMOOTH",
"158 710 OFFCURVE",
"42 648 OFFCURVE",
"42 521 CURVE SMOOTH",
"42 256 OFFCURVE",
"400 347 OFFCURVE",
"400 177 CURVE SMOOTH",
"400 89 OFFCURVE",
"329 52 OFFCURVE",
"252 52 CURVE SMOOTH",
"203 52 OFFCURVE",
"152 71 OFFCURVE",
"121 100 CURVE",
"116 153 OFFCURVE",
"111 199 OFFCURVE",
"98 240 CURVE",
"52 240 LINE",
"34 87 LINE",
"81 28 OFFCURVE",
"189 -10 OFFCURVE",
"305 -10 CURVE SMOOTH"
);
}
);
width = 638;
}
);
leftKerningGroup = S;
note = S;
rightKerningGroup = S;
unicode = 0053;
},
{
glyphname = Sacute;
lastChange = "2015-10-27 15:50:12 +0000";
layers = (
{
layerId = "3717E746-9C6F-47D9-B2A4-B2AE7EC69823";
name = Bold;
paths = (
{
closed = 1;
nodes = (
"471 -10 OFFCURVE",
"604 63 OFFCURVE",
"604 203 CURVE SMOOTH",
"604 482 OFFCURVE",
"245 421 OFFCURVE",
"245 554 CURVE SMOOTH",
"245 626 OFFCURVE",
"305 648 OFFCURVE",
"368 648 CURVE SMOOTH",
"414 648 OFFCURVE",
"462 637 OFFCURVE",
"490 616 CURVE",
"495 563 OFFCURVE",
"503 527 OFFCURVE",
"516 486 CURVE",
"562 486 LINE",
"579 636 LINE",
"520 689 OFFCURVE",
"443 710 OFFCURVE",
"327 710 CURVE SMOOTH",
"158 710 OFFCURVE",
"42 648 OFFCURVE",
"42 521 CURVE SMOOTH",
"42 256 OFFCURVE",
"400 347 OFFCURVE",
"400 177 CURVE SMOOTH",
"400 89 OFFCURVE",
"329 52 OFFCURVE",
"252 52 CURVE SMOOTH",
"203 52 OFFCURVE",
"152 71 OFFCURVE",
"121 100 CURVE",
"116 153 OFFCURVE",
"111 199 OFFCURVE",
"98 240 CURVE",
"52 240 LINE",
"34 87 LINE",
"81 28 OFFCURVE",
"189 -10 OFFCURVE",
"305 -10 CURVE SMOOTH"
);
},
{
closed = 1;
nodes = (
"390 886 LINE SMOOTH",
"429 909 OFFCURVE",
"451 931 OFFCURVE",
"451 960 CURVE SMOOTH",
"451 982 OFFCURVE",
"434 1011 OFFCURVE",
"390 1011 CURVE SMOOTH",
"349 1011 OFFCURVE",
"319 975 OFFCURVE",
"314 969 CURVE",
"187 830 LINE",
"218 786 LINE"
);
}
);
width = 638;
}
);
leftKerningGroup = S;
note = Sacute;
rightKerningGroup = S;
unicode = 015A;
},
{
glyphname = Scaron;
lastChange = "2015-10-27 15:50:12 +0000";
layers = (
{
layerId = "3717E746-9C6F-47D9-B2A4-B2AE7EC69823";
name = Bold;
paths = (
{
closed = 1;
nodes = (
"471 -10 OFFCURVE",
"604 63 OFFCURVE",
"604 203 CURVE SMOOTH",
"604 482 OFFCURVE",
"245 421 OFFCURVE",
"245 554 CURVE SMOOTH",
"245 626 OFFCURVE",
"305 648 OFFCURVE",
"368 648 CURVE SMOOTH",
"414 648 OFFCURVE",
"462 637 OFFCURVE",
"490 616 CURVE",
"495 563 OFFCURVE",
"503 527 OFFCURVE",
"516 486 CURVE",
"562 486 LINE",
"579 636 LINE",
"520 689 OFFCURVE",
"443 710 OFFCURVE",
"327 710 CURVE SMOOTH",
"158 710 OFFCURVE",
"42 648 OFFCURVE",
"42 521 CURVE SMOOTH",
"42 256 OFFCURVE",
"400 347 OFFCURVE",
"400 177 CURVE SMOOTH",
"400 89 OFFCURVE",
"329 52 OFFCURVE",
"252 52 CURVE SMOOTH",
"203 52 OFFCURVE",
"152 71 OFFCURVE",
"121 100 CURVE",
"116 153 OFFCURVE",
"111 199 OFFCURVE",
"98 240 CURVE",
"52 240 LINE",
"34 87 LINE",
"81 28 OFFCURVE",
"189 -10 OFFCURVE",
"305 -10 CURVE SMOOTH"
);
},
{
closed = 1;
nodes = (
"273 786 OFFCURVE",
"364 786 OFFCURVE",
"364 786 CURVE",
"385 819 OFFCURVE",
"488 913 OFFCURVE",
"535 942 CURVE",
"456 997 LINE",
"412 962 OFFCURVE",
"342 892 OFFCURVE",
"320 855 CURVE",
"320 855 OFFCURVE",
"317 855 OFFCURVE",
"317 855 CURVE",
"295 892 OFFCURVE",
"225 962 OFFCURVE",
"181 997 CURVE",
"102 942 LINE",
"149 913 OFFCURVE",
"252 819 OFFCURVE",
"273 786 CURVE"
);
}
);
width = 638;
}
);
leftKerningGroup = S;
note = Scaron;
rightKerningGroup = S;
unicode = 0160;
},
{
glyphname = Scedilla;
lastChange = "2015-10-27 15:50:13 +0000";
layers = (
{
layerId = "3717E746-9C6F-47D9-B2A4-B2AE7EC69823";
name = Bold;
paths = (
{
closed = 1;
nodes = (
"471 -10 OFFCURVE",
"604 63 OFFCURVE",
"604 203 CURVE SMOOTH",
"604 482 OFFCURVE",
"245 421 OFFCURVE",
"245 554 CURVE SMOOTH",
"245 626 OFFCURVE",
"305 648 OFFCURVE",
"368 648 CURVE SMOOTH",
"414 648 OFFCURVE",
"462 637 OFFCURVE",
"490 616 CURVE",
"495 563 OFFCURVE",
"503 527 OFFCURVE",
"516 486 CURVE",
"562 486 LINE",
"579 636 LINE",
"520 689 OFFCURVE",
"443 710 OFFCURVE",
"327 710 CURVE SMOOTH",
"158 710 OFFCURVE",
"42 648 OFFCURVE",
"42 521 CURVE SMOOTH",
"42 256 OFFCURVE",
"400 347 OFFCURVE",
"400 177 CURVE SMOOTH",
"400 89 OFFCURVE",
"329 52 OFFCURVE",
"252 52 CURVE SMOOTH",
"203 52 OFFCURVE",
"152 71 OFFCURVE",
"121 100 CURVE",
"116 153 OFFCURVE",
"111 199 OFFCURVE",
"98 240 CURVE",
"52 240 LINE",
"34 87 LINE",
"81 28 OFFCURVE",
"189 -10 OFFCURVE",
"305 -10 CURVE SMOOTH"
);
},
{
closed = 1;
nodes = (
"393 -274 OFFCURVE",
"467 -233 OFFCURVE",
"467 -154 CURVE SMOOTH",
"467 -114 OFFCURVE",
"440 -66 OFFCURVE",
"359 -58 CURVE",
"354 -58 OFFCURVE",
"343 -57 OFFCURVE",
"338 -57 CURVE",
"383 32 LINE",
"303 32 LINE",
"250 -71 LINE",
"278 -108 LINE",
"285 -107 OFFCURVE",
"293 -107 OFFCURVE",
"300 -107 CURVE SMOOTH",
"334 -107 OFFCURVE",
"374 -116 OFFCURVE",
"374 -154 CURVE SMOOTH",
"374 -198 OFFCURVE",
"332 -211 OFFCURVE",
"288 -211 CURVE SMOOTH",
"255 -211 OFFCURVE",
"220 -202 OFFCURVE",
"199 -188 CURVE",
"170 -234 LINE",
"205 -259 OFFCURVE",
"260 -274 OFFCURVE",
"305 -274 CURVE SMOOTH"
);
}
);
width = 638;
}
);
leftKerningGroup = S;
note = Scedilla;
rightKerningGroup = S;
unicode = 015E;
},
{
glyphname = Scircumflex;
lastChange = "2015-10-27 15:50:12 +0000";
layers = (
{
layerId = "3717E746-9C6F-47D9-B2A4-B2AE7EC69823";
name = Bold;
paths = (
{
closed = 1;
nodes = (
"471 -10 OFFCURVE",
"604 63 OFFCURVE",
"604 203 CURVE SMOOTH",
"604 482 OFFCURVE",
"245 421 OFFCURVE",
"245 554 CURVE SMOOTH",
"245 626 OFFCURVE",
"305 648 OFFCURVE",
"368 648 CURVE SMOOTH",
"414 648 OFFCURVE",
"462 637 OFFCURVE",
"490 616 CURVE",
"495 563 OFFCURVE",
"503 527 OFFCURVE",
"516 486 CURVE",
"562 486 LINE",
"579 636 LINE",
"520 689 OFFCURVE",
"443 710 OFFCURVE",
"327 710 CURVE SMOOTH",
"158 710 OFFCURVE",
"42 648 OFFCURVE",
"42 521 CURVE SMOOTH",
"42 256 OFFCURVE",
"400 347 OFFCURVE",
"400 177 CURVE SMOOTH",
"400 89 OFFCURVE",
"329 52 OFFCURVE",
"252 52 CURVE SMOOTH",
"203 52 OFFCURVE",
"152 71 OFFCURVE",
"121 100 CURVE",
"116 153 OFFCURVE",
"111 199 OFFCURVE",
"98 240 CURVE",
"52 240 LINE",
"34 87 LINE",
"81 28 OFFCURVE",
"189 -10 OFFCURVE",
"305 -10 CURVE SMOOTH"
);
},
{
closed = 1;
nodes = (
"225 821 OFFCURVE",
"295 891 OFFCURVE",
"317 928 CURVE",
"317 928 OFFCURVE",
"320 928 OFFCURVE",
"320 928 CURVE",
"342 891 OFFCURVE",
"412 821 OFFCURVE",
"456 786 CURVE",
"535 841 LINE",
"488 870 OFFCURVE",
"385 964 OFFCURVE",
"364 997 CURVE",
"364 997 OFFCURVE",
"273 997 OFFCURVE",
"273 997 CURVE",
"252 964 OFFCURVE",
"149 870 OFFCURVE",
"102 841 CURVE",
"181 786 LINE"
);
}
);
width = 638;
}
);
leftKerningGroup = S;
note = Scircumflex;
rightKerningGroup = S;
unicode = 015C;
},
{
glyphname = Scommaaccent;
lastChange = "2015-10-27 15:50:13 +0000";
layers = (
{
layerId = "3717E746-9C6F-47D9-B2A4-B2AE7EC69823";
name = Bold;
paths = (
{
closed = 1;
nodes = (
"471 -10 OFFCURVE",
"604 63 OFFCURVE",
"604 203 CURVE SMOOTH",
"604 482 OFFCURVE",
"245 421 OFFCURVE",
"245 554 CURVE SMOOTH",
"245 626 OFFCURVE",
"305 648 OFFCURVE",
"368 648 CURVE SMOOTH",
"414 648 OFFCURVE",
"462 637 OFFCURVE",
"490 616 CURVE",
"495 563 OFFCURVE",
"503 527 OFFCURVE",
"516 486 CURVE",
"562 486 LINE",
"579 636 LINE",
"520 689 OFFCURVE",
"443 710 OFFCURVE",
"327 710 CURVE SMOOTH",
"158 710 OFFCURVE",
"42 648 OFFCURVE",
"42 521 CURVE SMOOTH",
"42 256 OFFCURVE",
"400 347 OFFCURVE",
"400 177 CURVE SMOOTH",
"400 89 OFFCURVE",
"329 52 OFFCURVE",
"252 52 CURVE SMOOTH",
"203 52 OFFCURVE",
"152 71 OFFCURVE",
"121 100 CURVE",
"116 153 OFFCURVE",
"111 199 OFFCURVE",
"98 240 CURVE",
"52 240 LINE",
"34 87 LINE",
"81 28 OFFCURVE",
"189 -10 OFFCURVE",
"305 -10 CURVE SMOOTH"
);
},
{
closed = 1;
nodes = (
"361 -323 OFFCURVE",
"414 -225 OFFCURVE",
"414 -135 CURVE SMOOTH",
"414 -91 OFFCURVE",
"384 -50 OFFCURVE",
"322 -50 CURVE SMOOTH",
"276 -50 OFFCURVE",
"236 -80 OFFCURVE",
"236 -129 CURVE SMOOTH",
"236 -170 OFFCURVE",
"273 -207 OFFCURVE",
"316 -212 CURVE",
"307 -258 OFFCURVE",
"262 -311 OFFCURVE",
"237 -335 CURVE",
"296 -379 LINE"
);
}
);
width = 638;
}
);
leftKerningGroup = S;
note = Scommaaccent;
rightKerningGroup = S;
unicode = 0218;
},
{
glyphname = Sdotaccent;
lastChange = "2015-10-27 15:50:12 +0000";
layers = (
{
layerId = "3717E746-9C6F-47D9-B2A4-B2AE7EC69823";
name = Bold;
paths = (
{
closed = 1;
nodes = (
"471 -10 OFFCURVE",
"604 63 OFFCURVE",
"604 203 CURVE SMOOTH",
"604 482 OFFCURVE",
"245 421 OFFCURVE",
"245 554 CURVE SMOOTH",
"245 626 OFFCURVE",
"305 648 OFFCURVE",
"368 648 CURVE SMOOTH",
"414 648 OFFCURVE",
"462 637 OFFCURVE",
"490 616 CURVE",
"495 563 OFFCURVE",
"503 527 OFFCURVE",
"516 486 CURVE",
"562 486 LINE",
"579 636 LINE",
"520 689 OFFCURVE",
"443 710 OFFCURVE",
"327 710 CURVE SMOOTH",
"158 710 OFFCURVE",
"42 648 OFFCURVE",
"42 521 CURVE SMOOTH",
"42 256 OFFCURVE",
"400 347 OFFCURVE",
"400 177 CURVE SMOOTH",
"400 89 OFFCURVE",
"329 52 OFFCURVE",
"252 52 CURVE SMOOTH",
"203 52 OFFCURVE",
"152 71 OFFCURVE",
"121 100 CURVE",
"116 153 OFFCURVE",
"111 199 OFFCURVE",
"98 240 CURVE",
"52 240 LINE",
"34 87 LINE",
"81 28 OFFCURVE",
"189 -10 OFFCURVE",
"305 -10 CURVE SMOOTH"
);
},
{
closed = 1;
nodes = (
"384 786 OFFCURVE",
"412 818 OFFCURVE",
"412 858 CURVE SMOOTH",
"412 898 OFFCURVE",
"384 931 OFFCURVE",
"339 931 CURVE SMOOTH",
"294 931 OFFCURVE",
"267 898 OFFCURVE",
"267 858 CURVE SMOOTH",
"267 818 OFFCURVE",
"294 786 OFFCURVE",
"339 786 CURVE SMOOTH"
);
}
);
width = 638;
}
);
leftKerningGroup = S;
note = Sdotaccent;
rightKerningGroup = S;
unicode = 1E60;
},
{
glyphname = Sdotbelow;
lastChange = "2015-10-27 15:50:12 +0000";
layers = (
{
layerId = "3717E746-9C6F-47D9-B2A4-B2AE7EC69823";
name = Bold;
paths = (
{
closed = 1;
nodes = (
"471 -10 OFFCURVE",
"604 63 OFFCURVE",
"604 203 CURVE SMOOTH",
"604 482 OFFCURVE",
"245 421 OFFCURVE",
"245 554 CURVE SMOOTH",
"245 626 OFFCURVE",
"305 648 OFFCURVE",
"368 648 CURVE SMOOTH",
"414 648 OFFCURVE",
"462 637 OFFCURVE",
"490 616 CURVE",
"495 563 OFFCURVE",
"503 527 OFFCURVE",
"516 486 CURVE",
"562 486 LINE",
"579 636 LINE",
"520 689 OFFCURVE",
"443 710 OFFCURVE",
"327 710 CURVE SMOOTH",
"158 710 OFFCURVE",
"42 648 OFFCURVE",
"42 521 CURVE SMOOTH",
"42 256 OFFCURVE",
"400 347 OFFCURVE",
"400 177 CURVE SMOOTH",
"400 89 OFFCURVE",
"329 52 OFFCURVE",
"252 52 CURVE SMOOTH",
"203 52 OFFCURVE",
"152 71 OFFCURVE",
"121 100 CURVE",
"116 153 OFFCURVE",
"111 199 OFFCURVE",
"98 240 CURVE",
"52 240 LINE",
"34 87 LINE",
"81 28 OFFCURVE",
"189 -10 OFFCURVE",
"305 -10 CURVE SMOOTH"
);
},
{
closed = 1;
nodes = (
"377 -195 OFFCURVE",
"405 -163 OFFCURVE",
"405 -123 CURVE SMOOTH",
"405 -83 OFFCURVE",
"377 -50 OFFCURVE",
"332 -50 CURVE SMOOTH",
"287 -50 OFFCURVE",
"260 -83 OFFCURVE",
"260 -123 CURVE SMOOTH",
"260 -163 OFFCURVE",
"287 -195 OFFCURVE",
"332 -195 CURVE SMOOTH"
);
}
);
width = 638;
}
);
leftKerningGroup = S;
note = Sdotbelow;
rightKerningGroup = S;
unicode = 1E62;
},
{
glyphname = Germandbls;
lastChange = "2015-10-27 15:50:12 +0000";
layers = (
{
layerId = "3717E746-9C6F-47D9-B2A4-B2AE7EC69823";
name = Bold;
paths = (
{
closed = 1;
nodes = (
"690 -10 OFFCURVE",
"780 91 OFFCURVE",
"780 208 CURVE SMOOTH",
"780 309 OFFCURVE",
"693 381 OFFCURVE",
"551 404 CURVE",
"696 552 LINE",
"672 627 OFFCURVE",
"574 710 OFFCURVE",
"406 710 CURVE SMOOTH",
"196 710 OFFCURVE",
"100 631 OFFCURVE",
"100 493 CURVE SMOOTH",
"100 47 LINE",
"20 25 LINE",
"20 0 LINE",
"296 0 LINE",
"296 544 LINE SMOOTH",
"296 614 OFFCURVE",
"334 648 OFFCURVE",
"396 648 CURVE SMOOTH",
"469 648 OFFCURVE",
"501 599 OFFCURVE",
"511 546 CURVE",
"350 379 LINE",
"350 351 LINE",
"463 351 LINE SMOOTH",
"542 351 OFFCURVE",
"583 292 OFFCURVE",
"583 208 CURVE SMOOTH",
"583 114 OFFCURVE",
"544 49 OFFCURVE",
"476 49 CURVE SMOOTH",
"445 49 OFFCURVE",
"413 53 OFFCURVE",
"381 60 CURVE",
"381 -1 LINE",
"411 -7 OFFCURVE",
"444 -10 OFFCURVE",
"480 -10 CURVE SMOOTH"
);
}
);
width = 810;
}
);
note = uni1E9E;
unicode = 1E9E;
},
{
glyphname = Schwa;
lastChange = "2015-10-27 15:50:13 +0000";
layers = (
{
layerId = "3717E746-9C6F-47D9-B2A4-B2AE7EC69823";
name = Bold;
paths = (
{
closed = 1;
nodes = (
"610 -10 OFFCURVE",
"762 112 OFFCURVE",
"762 344 CURVE SMOOTH",
"762 559 OFFCURVE",
"616 710 OFFCURVE",
"352 710 CURVE SMOOTH",
"183 710 OFFCURVE",
"93 657 OFFCURVE",
"45 625 CURVE",
"71 564 LINE",
"176 633 OFFCURVE",
"249 648 OFFCURVE",
"337 648 CURVE SMOOTH",
"490 648 OFFCURVE",
"569 483 OFFCURVE",
"569 326 CURVE SMOOTH",
"569 184 OFFCURVE",
"504 48 OFFCURVE",
"370 48 CURVE SMOOTH",
"270 48 OFFCURVE",
"224 176 OFFCURVE",
"224 290 CURVE",
"581 290 LINE",
"581 351 LINE",
"30 351 LINE",
"30 313 LINE SMOOTH",
"30 139 OFFCURVE",
"133 -10 OFFCURVE",
"374 -10 CURVE SMOOTH"
);
}
);
width = 792;
}
);
note = uni018F;
unicode = 018F;
},
{
glyphname = T;
lastChange = "2015-10-27 15:50:12 +0000";
layers = (
{
layerId = "3717E746-9C6F-47D9-B2A4-B2AE7EC69823";
name = Bold;
paths = (
{
closed = 1;
nodes = (
"542 0 LINE",
"542 23 LINE",
"514 31 OFFCURVE",
"474 41 OFFCURVE",
"452 45 CURVE",
"452 641 LINE",
"591 641 LINE",
"593 607 OFFCURVE",
"622 497 OFFCURVE",
"638 473 CURVE",
"680 473 LINE",
"680 700 LINE",
"24 700 LINE",
"24 473 LINE",
"66 473 LINE",
"82 497 OFFCURVE",
"111 607 OFFCURVE",
"113 641 CURVE",
"252 641 LINE",
"252 47 LINE",
"163 25 LINE",
"163 0 LINE"
);
}
);
width = 704;
}
);
leftKerningGroup = T;
note = T;
rightKerningGroup = T;
unicode = 0054;
},
{
glyphname = Tbar;
lastChange = "2015-10-27 15:50:13 +0000";
layers = (
{
layerId = "3717E746-9C6F-47D9-B2A4-B2AE7EC69823";
name = Bold;
paths = (
{
closed = 1;
nodes = (
"542 0 LINE",
"542 23 LINE",
"514 31 OFFCURVE",
"474 41 OFFCURVE",
"452 45 CURVE",
"452 641 LINE",
"591 641 LINE",
"593 607 OFFCURVE",
"622 497 OFFCURVE",
"638 473 CURVE",
"680 473 LINE",
"680 700 LINE",
"24 700 LINE",
"24 473 LINE",
"66 473 LINE",
"82 497 OFFCURVE",
"111 607 OFFCURVE",
"113 641 CURVE",
"252 641 LINE",
"252 47 LINE",
"163 25 LINE",
"163 0 LINE"
);
},
{
closed = 1;
nodes = (
"597 280 LINE",
"597 338 LINE",
"123 338 LINE",
"123 280 LINE"
);
}
);
width = 704;
}
);
leftKerningGroup = T;
note = Tbar;
rightKerningGroup = T;
unicode = 0166;
},
{
glyphname = Tcaron;
lastChange = "2015-10-27 15:50:12 +0000";
layers = (
{
layerId = "3717E746-9C6F-47D9-B2A4-B2AE7EC69823";
name = Bold;
paths = (
{
closed = 1;
nodes = (
"542 0 LINE",
"542 23 LINE",
"514 31 OFFCURVE",
"474 41 OFFCURVE",
"452 45 CURVE",
"452 641 LINE",
"591 641 LINE",
"593 607 OFFCURVE",
"622 497 OFFCURVE",
"638 473 CURVE",
"680 473 LINE",
"680 700 LINE",
"24 700 LINE",
"24 473 LINE",
"66 473 LINE",
"82 497 OFFCURVE",
"111 607 OFFCURVE",
"113 641 CURVE",
"252 641 LINE",
"252 47 LINE",
"163 25 LINE",
"163 0 LINE"
);
},
{
closed = 1;
nodes = (
"305 786 OFFCURVE",
"396 786 OFFCURVE",
"396 786 CURVE",
"417 819 OFFCURVE",
"520 913 OFFCURVE",
"567 942 CURVE",
"488 997 LINE",
"444 962 OFFCURVE",
"374 892 OFFCURVE",
"352 855 CURVE",
"352 855 OFFCURVE",
"349 855 OFFCURVE",
"349 855 CURVE",
"327 892 OFFCURVE",
"257 962 OFFCURVE",
"213 997 CURVE",
"134 942 LINE",
"181 913 OFFCURVE",
"284 819 OFFCURVE",
"305 786 CURVE"
);
}
);
width = 704;
}
);
leftKerningGroup = T;
note = Tcaron;
rightKerningGroup = T;
unicode = 0164;
},
{
glyphname = Tcedilla;
lastChange = "2015-10-27 15:50:12 +0000";
layers = (
{
layerId = "3717E746-9C6F-47D9-B2A4-B2AE7EC69823";
name = Bold;
paths = (
{
closed = 1;
nodes = (
"542 0 LINE",
"542 23 LINE",
"514 31 OFFCURVE",
"474 41 OFFCURVE",
"452 45 CURVE",
"452 641 LINE",
"591 641 LINE",
"593 607 OFFCURVE",
"622 497 OFFCURVE",
"638 473 CURVE",
"680 473 LINE",
"680 700 LINE",
"24 700 LINE",
"24 473 LINE",
"66 473 LINE",
"82 497 OFFCURVE",
"111 607 OFFCURVE",
"113 641 CURVE",
"252 641 LINE",
"252 47 LINE",
"163 25 LINE",
"163 0 LINE"
);
},
{
closed = 1;
nodes = (
"403 -274 OFFCURVE",
"477 -233 OFFCURVE",
"477 -154 CURVE SMOOTH",
"477 -114 OFFCURVE",
"450 -66 OFFCURVE",
"369 -58 CURVE",
"364 -58 OFFCURVE",
"353 -57 OFFCURVE",
"348 -57 CURVE",
"393 32 LINE",
"313 32 LINE",
"260 -71 LINE",
"288 -108 LINE",
"295 -107 OFFCURVE",
"303 -107 OFFCURVE",
"310 -107 CURVE SMOOTH",
"344 -107 OFFCURVE",
"384 -116 OFFCURVE",
"384 -154 CURVE SMOOTH",
"384 -198 OFFCURVE",
"342 -211 OFFCURVE",
"298 -211 CURVE SMOOTH",
"265 -211 OFFCURVE",
"230 -202 OFFCURVE",
"209 -188 CURVE",
"180 -234 LINE",
"215 -259 OFFCURVE",
"270 -274 OFFCURVE",
"315 -274 CURVE SMOOTH"
);
}
);
width = 704;
}
);
leftKerningGroup = T;
note = Tcedilla;
rightKerningGroup = T;
unicode = 0162;
},
{
glyphname = Tcommaaccent;
lastChange = "2015-10-27 15:50:13 +0000";
layers = (
{
layerId = "3717E746-9C6F-47D9-B2A4-B2AE7EC69823";
name = Bold;
paths = (
{
closed = 1;
nodes = (
"542 0 LINE",
"542 23 LINE",
"514 31 OFFCURVE",
"474 41 OFFCURVE",
"452 45 CURVE",
"452 641 LINE",
"591 641 LINE",
"593 607 OFFCURVE",
"622 497 OFFCURVE",
"638 473 CURVE",
"680 473 LINE",
"680 700 LINE",
"24 700 LINE",
"24 473 LINE",
"66 473 LINE",
"82 497 OFFCURVE",
"111 607 OFFCURVE",
"113 641 CURVE",
"252 641 LINE",
"252 47 LINE",
"163 25 LINE",
"163 0 LINE"
);
},
{
closed = 1;
nodes = (
"390 -356 OFFCURVE",
"442 -264 OFFCURVE",
"442 -174 CURVE SMOOTH",
"442 -130 OFFCURVE",
"412 -89 OFFCURVE",
"350 -89 CURVE SMOOTH",
"304 -89 OFFCURVE",
"264 -119 OFFCURVE",
"264 -168 CURVE SMOOTH",
"264 -209 OFFCURVE",
"301 -246 OFFCURVE",
"344 -251 CURVE",
"335 -297 OFFCURVE",
"291 -344 OFFCURVE",
"266 -368 CURVE",
"325 -412 LINE"
);
}
);
width = 704;
}
);
leftKerningGroup = T;
note = Tcommaaccent;
rightKerningGroup = T;
unicode = 021A;
},
{
glyphname = Tdotbelow;
lastChange = "2015-10-27 15:50:12 +0000";
layers = (
{
layerId = "3717E746-9C6F-47D9-B2A4-B2AE7EC69823";
name = Bold;
paths = (
{
closed = 1;
nodes = (
"542 0 LINE",
"542 23 LINE",
"514 31 OFFCURVE",
"474 41 OFFCURVE",
"452 45 CURVE",
"452 641 LINE",
"591 641 LINE",
"593 607 OFFCURVE",
"622 497 OFFCURVE",
"638 473 CURVE",
"680 473 LINE",
"680 700 LINE",
"24 700 LINE",
"24 473 LINE",
"66 473 LINE",
"82 497 OFFCURVE",
"111 607 OFFCURVE",
"113 641 CURVE",
"252 641 LINE",
"252 47 LINE",
"163 25 LINE",
"163 0 LINE"
);
},
{
closed = 1;
nodes = (
"396 -195 OFFCURVE",
"424 -163 OFFCURVE",
"424 -123 CURVE SMOOTH",
"424 -83 OFFCURVE",
"396 -50 OFFCURVE",
"351 -50 CURVE SMOOTH",
"306 -50 OFFCURVE",
"279 -83 OFFCURVE",
"279 -123 CURVE SMOOTH",
"279 -163 OFFCURVE",
"306 -195 OFFCURVE",
"351 -195 CURVE SMOOTH"
);
}
);
width = 704;
}
);
leftKerningGroup = T;
note = Tdotbelow;
rightKerningGroup = T;
unicode = 1E6C;
},
{
glyphname = Tlinebelow;
lastChange = "2015-10-27 15:50:12 +0000";
layers = (
{
layerId = "3717E746-9C6F-47D9-B2A4-B2AE7EC69823";
name = Bold;
paths = (
{
closed = 1;
nodes = (
"542 0 LINE",
"542 23 LINE",
"514 31 OFFCURVE",
"474 41 OFFCURVE",
"452 45 CURVE",
"452 641 LINE",
"591 641 LINE",
"593 607 OFFCURVE",
"622 497 OFFCURVE",
"638 473 CURVE",
"680 473 LINE",
"680 700 LINE",
"24 700 LINE",
"24 473 LINE",
"66 473 LINE",
"82 497 OFFCURVE",
"111 607 OFFCURVE",
"113 641 CURVE",
"252 641 LINE",
"252 47 LINE",
"163 25 LINE",
"163 0 LINE"
);
},
{
closed = 1;
nodes = (
"566 -112 LINE",
"566 -55 LINE",
"138 -55 LINE",
"138 -112 LINE"
);
}
);
width = 704;
}
);
leftKerningGroup = T;
note = Tlinebelow;
rightKerningGroup = T;
unicode = 1E6E;
},
{
glyphname = U;
lastChange = "2015-10-27 15:50:13 +0000";
layers = (
{
layerId = "3717E746-9C6F-47D9-B2A4-B2AE7EC69823";
name = Bold;
paths = (
{
closed = 1;
nodes = (
"624 -10 OFFCURVE",
"725 76 OFFCURVE",
"725 225 CURVE SMOOTH",
"725 653 LINE",
"733 655 OFFCURVE",
"764 664 OFFCURVE",
"805 678 CURVE",
"805 700 LINE",
"571 700 LINE",
"571 678 LINE",
"601 668 OFFCURVE",
"626 661 OFFCURVE",
"651 656 CURVE",
"651 209 LINE SMOOTH",
"651 91 OFFCURVE",
"560 52 OFFCURVE",
"472 52 CURVE SMOOTH",
"385 52 OFFCURVE",
"298 87 OFFCURVE",
"298 209 CURVE SMOOTH",
"298 653 LINE",
"377 675 LINE",
"377 700 LINE",
"18 700 LINE",
"18 678 LINE",
"48 668 OFFCURVE",
"75 660 OFFCURVE",
"98 655 CURVE",
"98 225 LINE SMOOTH",
"98 64 OFFCURVE",
"214 -10 OFFCURVE",
"422 -10 CURVE SMOOTH"
);
}
);
width = 823;
}
);
leftKerningGroup = U;
note = U;
rightKerningGroup = U;
unicode = 0055;
},
{
glyphname = Uacute;
lastChange = "2015-10-27 15:50:12 +0000";
layers = (
{
layerId = "3717E746-9C6F-47D9-B2A4-B2AE7EC69823";
name = Bold;
paths = (
{
closed = 1;
nodes = (
"624 -10 OFFCURVE",
"725 76 OFFCURVE",
"725 225 CURVE SMOOTH",
"725 653 LINE",
"733 655 OFFCURVE",
"764 664 OFFCURVE",
"805 678 CURVE",
"805 700 LINE",
"571 700 LINE",
"571 678 LINE",
"601 668 OFFCURVE",
"626 661 OFFCURVE",
"651 656 CURVE",
"651 209 LINE SMOOTH",
"651 91 OFFCURVE",
"560 52 OFFCURVE",
"472 52 CURVE SMOOTH",
"385 52 OFFCURVE",
"298 87 OFFCURVE",
"298 209 CURVE SMOOTH",
"298 653 LINE",
"377 675 LINE",
"377 700 LINE",
"18 700 LINE",
"18 678 LINE",
"48 668 OFFCURVE",
"75 660 OFFCURVE",
"98 655 CURVE",
"98 225 LINE SMOOTH",
"98 64 OFFCURVE",
"214 -10 OFFCURVE",
"422 -10 CURVE SMOOTH"
);
},
{
closed = 1;
nodes = (
"545 886 LINE SMOOTH",
"584 909 OFFCURVE",
"606 931 OFFCURVE",
"606 960 CURVE SMOOTH",
"606 982 OFFCURVE",
"589 1011 OFFCURVE",
"545 1011 CURVE SMOOTH",
"504 1011 OFFCURVE",
"474 975 OFFCURVE",
"469 969 CURVE",
"342 830 LINE",
"373 786 LINE"
);
}
);
width = 823;
}
);
leftKerningGroup = U;
note = Uacute;
rightKerningGroup = U;
unicode = 00DA;
},
{
glyphname = Ubreve;
lastChange = "2015-10-27 15:50:12 +0000";
layers = (
{
layerId = "3717E746-9C6F-47D9-B2A4-B2AE7EC69823";
name = Bold;
paths = (
{
closed = 1;
nodes = (
"624 -10 OFFCURVE",
"725 76 OFFCURVE",
"725 225 CURVE SMOOTH",
"725 653 LINE",
"733 655 OFFCURVE",
"764 664 OFFCURVE",
"805 678 CURVE",
"805 700 LINE",
"571 700 LINE",
"571 678 LINE",
"601 668 OFFCURVE",
"626 661 OFFCURVE",
"651 656 CURVE",
"651 209 LINE SMOOTH",
"651 91 OFFCURVE",
"560 52 OFFCURVE",
"472 52 CURVE SMOOTH",
"385 52 OFFCURVE",
"298 87 OFFCURVE",
"298 209 CURVE SMOOTH",
"298 653 LINE",
"377 675 LINE",
"377 700 LINE",
"18 700 LINE",
"18 678 LINE",
"48 668 OFFCURVE",
"75 660 OFFCURVE",
"98 655 CURVE",
"98 225 LINE SMOOTH",
"98 64 OFFCURVE",
"214 -10 OFFCURVE",
"422 -10 CURVE SMOOTH"
);
},
{
closed = 1;
nodes = (
"533 786 OFFCURVE",
"606 831 OFFCURVE",
"624 927 CURVE",
"518 927 LINE",
"511 856 OFFCURVE",
"467 847 OFFCURVE",
"426 847 CURVE SMOOTH",
"385 847 OFFCURVE",
"341 856 OFFCURVE",
"334 927 CURVE",
"228 927 LINE",
"246 831 OFFCURVE",
"319 786 OFFCURVE",
"426 786 CURVE SMOOTH"
);
}
);
width = 823;
}
);
leftKerningGroup = U;
note = Ubreve;
rightKerningGroup = U;
unicode = 016C;
},
{
glyphname = Ucaron;
lastChange = "2015-10-27 15:50:13 +0000";
layers = (
{
layerId = "3717E746-9C6F-47D9-B2A4-B2AE7EC69823";
name = Bold;
paths = (
{
closed = 1;
nodes = (
"624 -10 OFFCURVE",
"725 76 OFFCURVE",
"725 225 CURVE SMOOTH",
"725 653 LINE",
"733 655 OFFCURVE",
"764 664 OFFCURVE",
"805 678 CURVE",
"805 700 LINE",
"571 700 LINE",
"571 678 LINE",
"601 668 OFFCURVE",
"626 661 OFFCURVE",
"651 656 CURVE",
"651 209 LINE SMOOTH",
"651 91 OFFCURVE",
"560 52 OFFCURVE",
"472 52 CURVE SMOOTH",
"385 52 OFFCURVE",
"298 87 OFFCURVE",
"298 209 CURVE SMOOTH",
"298 653 LINE",
"377 675 LINE",
"377 700 LINE",
"18 700 LINE",
"18 678 LINE",
"48 668 OFFCURVE",
"75 660 OFFCURVE",
"98 655 CURVE",
"98 225 LINE SMOOTH",
"98 64 OFFCURVE",
"214 -10 OFFCURVE",
"422 -10 CURVE SMOOTH"
);
},
{
closed = 1;
nodes = (
"366 786 OFFCURVE",
"457 786 OFFCURVE",
"457 786 CURVE",
"478 819 OFFCURVE",
"581 913 OFFCURVE",
"628 942 CURVE",
"549 997 LINE",
"505 962 OFFCURVE",
"435 892 OFFCURVE",
"413 855 CURVE",
"413 855 OFFCURVE",
"410 855 OFFCURVE",
"410 855 CURVE",
"388 892 OFFCURVE",
"318 962 OFFCURVE",
"274 997 CURVE",
"195 942 LINE",
"242 913 OFFCURVE",
"345 819 OFFCURVE",
"366 786 CURVE"
);
}
);
width = 823;
}
);
leftKerningGroup = U;
note = Ucaron;
rightKerningGroup = U;
unicode = 01D3;
},
{
glyphname = Ucircumflex;
lastChange = "2015-10-27 15:50:13 +0000";
layers = (
{
layerId = "3717E746-9C6F-47D9-B2A4-B2AE7EC69823";
name = Bold;
paths = (
{
closed = 1;
nodes = (
"624 -10 OFFCURVE",
"725 76 OFFCURVE",
"725 225 CURVE SMOOTH",
"725 653 LINE",
"733 655 OFFCURVE",
"764 664 OFFCURVE",
"805 678 CURVE",
"805 700 LINE",
"571 700 LINE",
"571 678 LINE",
"601 668 OFFCURVE",
"626 661 OFFCURVE",
"651 656 CURVE",
"651 209 LINE SMOOTH",
"651 91 OFFCURVE",
"560 52 OFFCURVE",
"472 52 CURVE SMOOTH",
"385 52 OFFCURVE",
"298 87 OFFCURVE",
"298 209 CURVE SMOOTH",
"298 653 LINE",
"377 675 LINE",
"377 700 LINE",
"18 700 LINE",
"18 678 LINE",
"48 668 OFFCURVE",
"75 660 OFFCURVE",
"98 655 CURVE",
"98 225 LINE SMOOTH",
"98 64 OFFCURVE",
"214 -10 OFFCURVE",
"422 -10 CURVE SMOOTH"
);
},
{
closed = 1;
nodes = (
"320 821 OFFCURVE",
"390 891 OFFCURVE",
"412 928 CURVE",
"412 928 OFFCURVE",
"415 928 OFFCURVE",
"415 928 CURVE",
"437 891 OFFCURVE",
"507 821 OFFCURVE",
"551 786 CURVE",
"630 841 LINE",
"583 870 OFFCURVE",
"480 964 OFFCURVE",
"459 997 CURVE",
"459 997 OFFCURVE",
"368 997 OFFCURVE",
"368 997 CURVE",
"347 964 OFFCURVE",
"244 870 OFFCURVE",
"197 841 CURVE",
"276 786 LINE"
);
}
);
width = 823;
}
);
leftKerningGroup = U;
note = Ucircumflex;
rightKerningGroup = U;
unicode = 00DB;
},
{
glyphname = Udieresis;
lastChange = "2015-10-27 15:50:12 +0000";
layers = (
{
layerId = "3717E746-9C6F-47D9-B2A4-B2AE7EC69823";
name = Bold;
paths = (
{
closed = 1;
nodes = (
"624 -10 OFFCURVE",
"725 76 OFFCURVE",
"725 225 CURVE SMOOTH",
"725 653 LINE",
"733 655 OFFCURVE",
"764 664 OFFCURVE",
"805 678 CURVE",
"805 700 LINE",
"571 700 LINE",
"571 678 LINE",
"601 668 OFFCURVE",
"626 661 OFFCURVE",
"651 656 CURVE",
"651 209 LINE SMOOTH",
"651 91 OFFCURVE",
"560 52 OFFCURVE",
"472 52 CURVE SMOOTH",
"385 52 OFFCURVE",
"298 87 OFFCURVE",
"298 209 CURVE SMOOTH",
"298 653 LINE",
"377 675 LINE",
"377 700 LINE",
"18 700 LINE",
"18 678 LINE",
"48 668 OFFCURVE",
"75 660 OFFCURVE",
"98 655 CURVE",
"98 225 LINE SMOOTH",
"98 64 OFFCURVE",
"214 -10 OFFCURVE",
"422 -10 CURVE SMOOTH"
);
},
{
closed = 1;
nodes = (
"361 786 OFFCURVE",
"389 818 OFFCURVE",
"389 858 CURVE SMOOTH",
"389 898 OFFCURVE",
"361 931 OFFCURVE",
"316 931 CURVE SMOOTH",
"271 931 OFFCURVE",
"244 898 OFFCURVE",
"244 858 CURVE SMOOTH",
"244 818 OFFCURVE",
"271 786 OFFCURVE",
"316 786 CURVE SMOOTH"
);
},
{
closed = 1;
nodes = (
"614 786 OFFCURVE",
"642 818 OFFCURVE",
"642 858 CURVE SMOOTH",
"642 898 OFFCURVE",
"614 931 OFFCURVE",
"569 931 CURVE SMOOTH",
"524 931 OFFCURVE",
"497 898 OFFCURVE",
"497 858 CURVE SMOOTH",
"497 818 OFFCURVE",
"524 786 OFFCURVE",
"569 786 CURVE SMOOTH"
);
}
);
width = 823;
}
);
leftKerningGroup = U;
note = Udieresis;
rightKerningGroup = U;
unicode = 00DC;
},
{
glyphname = Udieresisacute;
lastChange = "2015-10-27 15:50:12 +0000";
layers = (
{
layerId = "3717E746-9C6F-47D9-B2A4-B2AE7EC69823";
name = Bold;
paths = (
{
closed = 1;
nodes = (
"624 -10 OFFCURVE",
"725 76 OFFCURVE",
"725 225 CURVE SMOOTH",
"725 653 LINE",
"733 655 OFFCURVE",
"764 664 OFFCURVE",
"805 678 CURVE",
"805 700 LINE",
"571 700 LINE",
"571 678 LINE",
"601 668 OFFCURVE",
"626 661 OFFCURVE",
"651 656 CURVE",
"651 209 LINE SMOOTH",
"651 91 OFFCURVE",
"560 52 OFFCURVE",
"472 52 CURVE SMOOTH",
"385 52 OFFCURVE",
"298 87 OFFCURVE",
"298 209 CURVE SMOOTH",
"298 653 LINE",
"377 675 LINE",
"377 700 LINE",
"18 700 LINE",
"18 678 LINE",
"48 668 OFFCURVE",
"75 660 OFFCURVE",
"98 655 CURVE",
"98 225 LINE SMOOTH",
"98 64 OFFCURVE",
"214 -10 OFFCURVE",
"422 -10 CURVE SMOOTH"
);
},
{
closed = 1;
nodes = (
"361 786 OFFCURVE",
"389 818 OFFCURVE",
"389 858 CURVE SMOOTH",
"389 898 OFFCURVE",
"361 931 OFFCURVE",
"316 931 CURVE SMOOTH",
"271 931 OFFCURVE",
"244 898 OFFCURVE",
"244 858 CURVE SMOOTH",
"244 818 OFFCURVE",
"271 786 OFFCURVE",
"316 786 CURVE SMOOTH"
);
},
{
closed = 1;
nodes = (
"614 786 OFFCURVE",
"642 818 OFFCURVE",
"642 858 CURVE SMOOTH",
"642 898 OFFCURVE",
"614 931 OFFCURVE",
"569 931 CURVE SMOOTH",
"524 931 OFFCURVE",
"497 898 OFFCURVE",
"497 858 CURVE SMOOTH",
"497 818 OFFCURVE",
"524 786 OFFCURVE",
"569 786 CURVE SMOOTH"
);
},
{
closed = 1;
nodes = (
"512 1095 LINE SMOOTH",
"551 1118 OFFCURVE",
"573 1140 OFFCURVE",
"573 1169 CURVE SMOOTH",
"573 1191 OFFCURVE",
"556 1220 OFFCURVE",
"512 1220 CURVE SMOOTH",
"471 1220 OFFCURVE",
"441 1184 OFFCURVE",
"436 1178 CURVE",
"309 1039 LINE",
"340 995 LINE"
);
}
);
width = 823;
}
);
leftKerningGroup = U;
note = Udieresisacute;
rightKerningGroup = U;
unicode = 01D7;
},
{
glyphname = Udieresiscaron;
lastChange = "2015-10-27 15:50:13 +0000";
layers = (
{
layerId = "3717E746-9C6F-47D9-B2A4-B2AE7EC69823";
name = Bold;
paths = (
{
closed = 1;
nodes = (
"624 -10 OFFCURVE",
"725 76 OFFCURVE",
"725 225 CURVE SMOOTH",
"725 653 LINE",
"733 655 OFFCURVE",
"764 664 OFFCURVE",
"805 678 CURVE",
"805 700 LINE",
"571 700 LINE",
"571 678 LINE",
"601 668 OFFCURVE",
"626 661 OFFCURVE",
"651 656 CURVE",
"651 209 LINE SMOOTH",
"651 91 OFFCURVE",
"560 52 OFFCURVE",
"472 52 CURVE SMOOTH",
"385 52 OFFCURVE",
"298 87 OFFCURVE",
"298 209 CURVE SMOOTH",
"298 653 LINE",
"377 675 LINE",
"377 700 LINE",
"18 700 LINE",
"18 678 LINE",
"48 668 OFFCURVE",
"75 660 OFFCURVE",
"98 655 CURVE",
"98 225 LINE SMOOTH",
"98 64 OFFCURVE",
"214 -10 OFFCURVE",
"422 -10 CURVE SMOOTH"
);
},
{
closed = 1;
nodes = (
"361 785 OFFCURVE",
"389 817 OFFCURVE",
"389 857 CURVE SMOOTH",
"389 897 OFFCURVE",
"361 930 OFFCURVE",
"316 930 CURVE SMOOTH",
"271 930 OFFCURVE",
"244 897 OFFCURVE",
"244 857 CURVE SMOOTH",
"244 817 OFFCURVE",
"271 785 OFFCURVE",
"316 785 CURVE SMOOTH"
);
},
{
closed = 1;
nodes = (
"614 785 OFFCURVE",
"642 817 OFFCURVE",
"642 857 CURVE SMOOTH",
"642 897 OFFCURVE",
"614 930 OFFCURVE",
"569 930 CURVE SMOOTH",
"524 930 OFFCURVE",
"497 897 OFFCURVE",
"497 857 CURVE SMOOTH",
"497 817 OFFCURVE",
"524 785 OFFCURVE",
"569 785 CURVE SMOOTH"
);
},
{
closed = 1;
nodes = (
"488 950 LINE",
"509 983 OFFCURVE",
"594 1072 OFFCURVE",
"641 1101 CURVE",
"562 1156 LINE",
"518 1121 OFFCURVE",
"466 1056 OFFCURVE",
"444 1019 CURVE",
"444 1019 OFFCURVE",
"441 1019 OFFCURVE",
"441 1019 CURVE",
"419 1056 OFFCURVE",
"367 1121 OFFCURVE",
"323 1156 CURVE",
"244 1101 LINE",
"291 1072 OFFCURVE",
"376 983 OFFCURVE",
"397 950 CURVE"
);
}
);
width = 823;
}
);
leftKerningGroup = U;
note = Udieresiscaron;
rightKerningGroup = U;
unicode = 01D9;
},
